<svg width="99" height="106" viewBox="0 0 99 106" fill="none" xmlns="http://www.w3.org/2000/svg">
<path d="M0.376224 46.2184C0.376224 46.2184 0.446625 46.2185 0.470092 46.2067L0.0476866 46.019C-0.186983 46.1011 0.528759 46.1598 0.376224 46.2184Z" fill="#E77622"/>
<path d="M0.329399 46.2768C0.235531 46.3472 0.423267 46.3824 0.493668 46.4058C0.341132 46.3472 0.540602 46.265 0.329399 46.2768Z" fill="#E77622"/>
<path d="M11.8053 49.4096H11.8522C11.8522 49.4096 11.8522 49.4448 11.8757 49.4682L11.8053 49.4096ZM11.0778 49.4096C11.2773 49.4096 11.4885 49.4096 11.688 49.4096C11.5589 49.6325 11.3242 49.5034 11.0778 49.4096ZM10.6085 49.4096H10.6789C10.6789 49.4096 10.632 49.433 10.6085 49.4448V49.4096ZM10.2917 49.4096H10.5146C10.4442 49.4448 10.3621 49.4565 10.2917 49.4096ZM15.208 49.8437L15.2315 49.8906C15.3606 49.8202 15.4779 49.7616 15.5835 49.6677C15.7008 49.5738 15.7595 49.4213 15.783 49.2805C15.8299 49.0106 15.7947 48.6586 15.8064 48.4005C15.8064 47.8725 15.8064 47.4618 15.6187 47.0159C15.6774 45.9482 15.7243 44.7866 15.7595 43.6249L15.8534 43.5898C15.8416 43.4724 15.8534 43.3668 15.8299 43.2495C15.8299 43.1439 15.7595 43.0148 15.6539 42.9796C15.4427 42.9092 15.2315 42.9092 15.032 42.8623C14.6331 42.7919 14.2224 42.7215 13.7296 42.7801C13.1429 42.6511 12.3568 42.9092 11.6528 43.0148C11.3829 43.0148 11.113 43.0148 10.8549 43.0148C10.8314 43.0148 10.7962 43.0148 10.761 43.0031C10.5498 42.8036 10.2096 42.9092 9.85755 43.0148C9.50554 43.0148 9.16527 43.0148 8.81327 43.0148C8.02713 42.5103 7.04151 42.698 6.10284 43.0148C5.46923 43.0148 4.83562 43.0148 4.20201 43.0148C3.31027 43.0148 2.58279 43.3316 2.01959 43.8948C1.74972 43.977 1.45638 44.1178 1.35078 44.3759L1.45638 44.4228C1.18651 44.4228 1.37424 44.6927 1.37424 44.8335C1.37424 44.857 1.35078 44.8804 1.33904 44.9039C1.30384 44.9156 1.25691 44.9274 1.17477 44.9039V44.8804C1.02224 44.8804 1.13957 44.9978 1.26864 45.1034C1.22171 45.2324 1.17477 45.3615 1.12784 45.5023C1.12784 45.514 1.12784 45.5258 1.12784 45.5375C1.12784 45.5727 1.10437 45.6196 1.09264 45.6548C1.05744 45.6783 0.987039 45.69 0.834504 45.6431C0.846237 45.5844 0.588101 45.6783 0.5177 45.5023C0.447299 45.5258 0.423832 45.7135 0.658502 45.7722C0.78757 45.8191 0.904905 45.8895 1.02224 45.9247V46.5231C1.04571 46.5818 1.08091 46.6522 1.10437 46.7226C1.55025 48.4826 2.70013 49.3861 4.49535 49.3978H4.55402C4.34281 49.433 4.11988 49.4682 3.88521 49.48C3.89694 49.4682 3.90868 49.4213 3.93214 49.3978C3.88521 49.4448 3.82654 49.5504 3.77961 49.5269C3.77961 49.4917 3.80307 49.4565 3.81481 49.4448C3.69747 49.1632 3.27507 49.5034 3.2164 49.2688C3.15773 49.2688 3.09907 49.3744 3.1108 49.4565C2.41852 49.3157 1.74972 48.8815 1.16304 48.3535C1.16304 48.3066 1.23344 48.2597 1.30384 48.2127C0.951839 48.0719 0.740636 47.7786 0.623301 47.4735C0.564634 47.321 0.529433 47.1567 0.505966 47.0042C0.505966 46.9221 0.4825 46.8399 0.447299 46.7578L0.412099 46.6405V46.4762C0.318231 46.4527 0.306497 46.5818 0.189163 46.4997C0.107028 46.6991 0.224363 46.7695 0.329964 46.8517C0.435566 46.9338 0.494233 47.0042 0.423832 47.1215H0.318231C0.294764 47.2858 0.588101 47.0746 0.494233 47.2506C0.423832 47.3327 0.365165 47.2741 0.365165 47.3093C0.505966 47.5791 0.541167 47.9311 0.904905 48.0602C0.728903 48.2362 1.05744 48.3535 0.940105 48.5647C1.05744 48.5882 1.09264 48.6586 1.23344 48.5882C1.51505 49.0575 1.99612 49.433 2.51239 49.6325C3.02866 49.8437 3.5684 49.9024 4.08468 49.9493C4.58922 49.5269 5.07029 50.0432 5.61003 49.9024C5.61003 49.9141 5.61003 49.9376 5.61003 49.9493C5.7743 49.832 6.0207 49.785 6.2319 49.8437L6.38444 49.656C7.63992 50.0432 8.8602 49.7733 10.1392 49.9258C11.5706 50.0314 12.9787 50.3365 14.1051 49.7733C14.1285 49.8202 14.1403 49.832 14.1168 49.8554C14.4688 49.7733 14.9029 49.9258 15.2432 49.832" fill="#E77622"/>
<path d="M50.1262 0L50.0793 0.152535L50.1497 0.0586674L50.1262 0Z" fill="#E77622"/>
<path d="M50.0333 0.0585508C49.9511 -0.176119 49.8925 0.539623 49.8455 0.387088C49.8455 0.410555 49.8455 0.457489 49.8573 0.480956L50.0333 0.0585508Z" fill="#E77622"/>
<path d="M49.7864 0.340401C49.716 0.246533 49.6925 0.446002 49.6691 0.50467C49.6925 0.352135 49.7981 0.551604 49.7864 0.340401Z" fill="#E77622"/>
<path d="M46.384 10.4313C46.384 10.6308 46.384 10.8303 46.384 11.018C46.1611 10.9007 46.3019 10.666 46.384 10.4313ZM46.384 9.97372V10.0324C46.384 10.0324 46.3606 9.98546 46.3488 9.97372H46.384ZM46.384 9.66865V9.87985C46.3488 9.80945 46.3371 9.73905 46.384 9.66865ZM46.384 11.1823C46.384 11.1823 46.3488 11.194 46.3254 11.2057L46.384 11.1353V11.1823ZM45.9382 13.3882C46.0203 13.7284 45.8678 14.1626 45.9616 14.4794L45.9264 14.5028C46.0086 14.6554 46.032 14.937 46.2667 15.1247C46.5014 15.289 46.7947 15.2303 47.088 15.2303C47.7099 15.1951 48.0619 15.1717 48.4961 14.9487C49.5286 14.9253 50.6902 14.9135 51.7814 14.89V14.9839C52.0161 14.9605 52.239 14.9722 52.4737 15.0074C52.591 15.0074 52.7084 15.0309 52.8257 14.9839C52.943 14.937 52.99 14.8196 53.0252 14.7258C53.1308 14.3151 53.1894 13.9162 53.1308 13.4351C53.2246 13.0127 53.1073 12.473 52.99 11.9801C52.943 11.7689 52.8961 11.5695 52.8726 11.3817C52.8726 11.1588 52.8726 10.9359 52.8726 10.7247C52.8726 10.6777 52.8726 10.6308 52.8961 10.5839C53.1073 10.314 52.99 9.99719 52.8726 9.68038C52.8726 9.35185 52.8726 9.03504 52.8726 8.70651C53.4124 7.81476 53.1895 6.94648 52.8726 6.06647C52.8726 5.49153 52.8726 4.91659 52.8726 4.34165C52.8726 3.40297 52.5793 2.65203 52.0513 2.07709C51.9809 1.81895 51.8636 1.50215 51.6054 1.39655L51.5585 1.50215C51.5585 1.22055 51.2886 1.42001 51.1478 1.40828C51.1361 1.40828 51.1244 1.39655 51.1009 1.38481C51.0774 1.36135 51.0657 1.31441 51.1009 1.20881H51.1244C51.1244 1.05628 51.0188 1.17361 50.9132 1.29095C50.7958 1.24401 50.6785 1.20881 50.5494 1.16188C50.526 1.13841 50.5025 1.13841 50.4673 1.13841C50.4321 1.13841 50.4086 1.11494 50.3734 1.10321C50.3499 1.06801 50.3382 1.00934 50.3851 0.845074C50.4321 0.868541 50.3851 0.598671 50.5142 0.52827C50.5025 0.45787 50.4086 0.434403 50.3147 0.669072C50.2443 0.79814 50.1739 0.903742 50.1153 1.00934H49.0945C49.0358 1.03281 48.9654 1.07974 48.9067 1.09148C47.3696 1.51388 46.4896 2.5699 46.4192 4.10698C46.384 3.88405 46.3606 3.66111 46.3723 3.41471C46.384 3.42644 46.431 3.43817 46.4427 3.46164C46.3958 3.41471 46.3136 3.34431 46.3371 3.3091C46.3723 3.3091 46.4075 3.34431 46.4192 3.35604C46.7008 3.2739 46.4192 2.8163 46.6539 2.79283C46.6539 2.73416 46.56 2.66376 46.4779 2.66376C46.7008 2.01842 47.2054 1.43175 47.7569 0.915475C47.8038 0.927209 47.839 0.985876 47.8742 1.07974C48.0385 0.751207 48.3318 0.563471 48.6369 0.481337C48.8011 0.446136 48.9185 0.317068 49.1766 0.375735C49.3057 0.375735 49.3526 0.399202 49.4347 0.410936L49.6459 0.434403C49.6694 0.328801 49.5873 0.317068 49.6459 0.199733C49.4465 0.0589312 49.3878 0.469603 49.0475 0.270134L49.071 0.164533C48.8481 0.105865 49.0475 0.410936 48.8715 0.328801C48.7894 0.270134 48.8598 0.188 48.8246 0.188C48.6721 0.293601 48.5313 0.305334 48.3905 0.364002C48.2497 0.422669 48.1323 0.516537 48.0502 0.692539C47.8859 0.516537 47.7568 0.809874 47.5574 0.680806C47.5339 0.79814 47.4518 0.821607 47.5104 0.962409C47.0294 1.17361 46.6187 1.59602 46.3488 2.06536C46.079 2.54643 45.9499 3.07444 45.856 3.57897C46.2198 4.10698 45.727 4.58805 45.856 5.10433C45.8443 5.10433 45.8208 5.10433 45.8091 5.10433C45.9264 5.2686 45.9734 5.50327 45.9147 5.70273L46.1024 5.85527C45.7152 7.08729 45.9968 8.27237 45.8326 9.51612C45.727 10.9124 45.4336 12.3204 45.9851 13.3764C45.9499 13.3999 45.9264 13.4234 45.903 13.3882" fill="#E77622"/>
<path d="M52.8372 73.2874L52.8959 73.1583L52.7434 72.8181L52.8372 73.2874Z" fill="#E77622"/>
<path d="M52.5084 71.0695C52.4849 71.1399 52.438 71.1047 52.4145 71.1751L52.8369 72.4775C53.0716 71.8908 52.3558 71.4567 52.5084 71.0695Z" fill="#E77622"/>
<path d="M52.5559 70.6822C52.6497 70.1777 52.4503 69.9665 52.3916 69.8491C52.5441 70.0251 52.3447 70.7995 52.5559 70.6822Z" fill="#E77622"/>
<path d="M44.7293 51.9911C44.7293 51.9911 44.8114 52.0615 44.8466 52.085C44.7997 52.0263 44.7528 51.9911 44.7293 51.9911Z" fill="#E77622"/>
<path d="M53.2357 53.5048C53.2357 53.5048 53.224 53.5048 53.2122 53.5165C53.177 53.5752 53.2005 53.5517 53.2357 53.5048Z" fill="#E77622"/>
<path d="M49.7162 90.6292L49.9743 90.4767L49.6458 90.5706L49.6223 90.5354L49.5636 90.6879L49.6458 90.594L49.7162 90.6292Z" fill="#E77622"/>
<path d="M51.2997 90.2423C51.2997 90.2423 51.2762 90.1719 51.2176 90.1484L50.2202 90.5708C50.6661 90.8055 50.9946 90.0898 51.288 90.2423" fill="#E77622"/>
<path d="M52.2264 90.1129C52.0973 90.2655 51.5106 90.066 51.5928 90.2772C51.98 90.3711 52.1325 90.1716 52.2264 90.1129Z" fill="#E77622"/>
<path d="M49.8443 57.0482C49.7387 57.1655 49.6449 57.2477 49.5627 57.2829C49.7153 57.2007 49.8091 57.0599 49.9265 56.9426C50.8886 55.8983 51.8508 54.8892 52.8598 53.8332C52.8129 53.9036 52.8246 53.9623 52.766 54.0444C52.9302 53.8097 53.071 53.5164 53.3057 53.3052C53.3878 53.27 53.3057 53.4225 53.2353 53.5047C53.4817 53.3521 53.7398 53.1175 54.0097 52.8593C53.118 53.7511 52.2262 54.6428 51.3345 55.5463C50.8299 56.0508 50.3019 56.5202 49.8443 57.0599M77.3124 37.0543C77.2772 36.9722 77.2537 36.8901 77.2185 36.8079C77.242 36.8079 77.2537 36.8079 77.2772 36.7845L77.3124 37.0543ZM78.345 40.0816C78.3802 40.3045 78.4154 40.5392 78.4506 40.7738C78.2042 39.6944 77.8991 38.6501 77.5354 37.6293C78.0047 38.4037 78.2159 39.225 78.345 40.0816ZM78.8847 43.2496C78.873 43.144 78.8612 43.0384 78.8378 42.9328C78.873 43.0619 78.8964 43.1792 78.9316 43.3083L78.8847 43.2496ZM79.0842 44.951C79.049 44.552 79.002 44.1531 78.9551 43.7542C79.049 44.1883 79.1076 44.6107 79.0842 44.951ZM49.4689 57.3181C49.4689 57.3181 49.4806 57.3181 49.4923 57.3181H49.4689ZM46.6646 84.5749C46.7936 84.5515 46.864 84.4693 46.8992 84.3755C46.8758 84.5045 46.8171 84.5749 46.7232 84.6219C46.7115 84.6101 46.688 84.5867 46.6646 84.5749ZM46.864 80.1279C46.8875 79.8346 46.911 79.5295 46.9227 79.2245C46.9227 80.6794 46.9227 82.1461 46.9227 83.601C46.735 82.3338 46.7819 81.2544 46.864 80.1279ZM46.9227 73.6628V75.2468C46.8875 74.6601 46.8758 74.0852 46.9227 73.6628ZM46.9227 76.4084C46.911 76.209 46.8992 76.033 46.8875 75.8218L46.9227 75.9273V76.4084ZM51.8742 62.5512C51.8742 62.1992 51.9681 61.9528 52.2145 61.7181C54.7255 59.2189 57.2364 56.7079 59.7474 54.1969C60.5101 53.4343 60.8503 52.5543 60.5101 51.4982C59.9351 49.6913 57.7175 49.1868 56.3329 50.5478C55.5937 51.2753 54.8545 52.0028 54.1271 52.742C54.9719 51.8855 55.8401 50.759 56.3447 50.4657C56.5794 50.2076 56.6732 50.0433 56.4503 50.0902C56.9431 49.7148 57.565 49.4684 58.2103 49.4801C58.8556 49.4801 59.501 49.7148 60.0055 50.1372C60.5101 50.5713 60.8386 51.1932 60.9559 51.8385C61.085 52.4956 60.9325 53.2231 60.5805 53.7863C60.4162 54.0679 60.1933 54.326 59.9821 54.549L59.3719 55.1826L58.1516 56.4615C57.3538 57.3181 56.5559 58.1746 55.7697 59.0194C55.582 59.1485 55.5116 59.125 55.4881 59.0194C54.8663 59.7938 54.2092 60.5448 53.5286 61.284L53.0124 61.8354C52.8481 62.0114 52.6134 62.2344 52.59 62.293C52.543 62.3869 52.5313 62.3987 52.543 62.6568V63.4195C52.543 65.4494 52.4961 67.491 52.4609 69.5091C52.5665 69.6617 52.5782 69.0985 52.6956 69.4974C52.8364 68.2067 52.4257 67.1272 52.6252 65.9422L52.7308 66.0947C52.8012 65.2382 52.4609 65.9187 52.6017 65.0387C52.6956 64.6867 52.7425 65.1208 52.7425 64.9683C52.7425 64.5107 52.7425 64.0531 52.7308 63.5955V62.9032V62.5629C52.7308 62.5042 52.7308 62.469 52.7308 62.4573C52.7542 62.4104 52.7073 62.4338 52.8833 62.2578C53.0358 62.0936 53.1884 61.9176 53.3409 61.7533C53.6342 61.413 53.9159 61.0728 54.174 60.7325C54.6433 60.6034 55.5585 59.3597 56.1921 59.0429C56.462 58.6439 56.814 58.3271 56.8258 58.0925C57.9756 56.9895 59.1138 55.8631 60.2519 54.725C60.5805 54.3964 60.8855 54.0092 61.085 53.5281C61.2962 53.0588 61.3783 52.5073 61.3197 51.9911C61.2141 51.0054 60.6157 50.0081 59.6887 49.5153C58.7852 49.0108 57.6354 49.0225 56.7436 49.4918C56.2977 49.703 55.8871 50.102 55.6407 50.3601L54.7841 51.2284C53.6342 52.39 52.4961 53.5399 51.3462 54.7015C51.2289 54.854 51.1116 55.0066 50.9825 55.1591C50.8651 55.2999 50.7478 55.4407 50.6422 55.5815C50.4075 55.8631 50.1494 56.1447 49.8795 56.4263L49.6801 56.6375C49.6214 56.6962 49.5862 56.7314 49.5393 56.7783C49.4337 56.8722 49.2811 56.8135 49.199 56.7196C48.9291 56.4263 48.6475 56.133 48.3659 55.8396C47.1808 54.5724 45.984 53.2348 44.6816 52.038C44.6816 52.0145 44.6816 52.0028 44.7168 52.0028C44.2709 51.639 43.7429 51.1697 43.2032 50.6534L42.7925 50.2662C42.64 50.1254 42.464 49.9846 42.288 49.8556C41.936 49.6092 41.5253 49.4332 41.1146 49.351C40.6336 49.3276 40.1642 49.4332 39.7653 49.6326C38.6389 49.9729 37.7237 51.0758 37.7589 52.3431C37.7589 52.9649 37.9935 53.5751 38.3573 54.0561C38.4394 54.1852 38.5567 54.2908 38.6506 54.4081L38.9322 54.7015L39.4954 55.2764C40.9856 56.8135 42.4992 58.3389 44.0245 59.8525L46.3008 62.117C46.4064 62.2344 46.4534 62.3282 46.4416 62.516V63.3139V64.9096C46.4416 67.0451 46.4299 69.1689 46.383 71.2926C46.3478 73.698 46.3126 76.0212 46.2774 78.3092C46.2656 79.4474 46.2422 80.5738 46.2304 81.7002C46.2304 82.2634 46.2187 82.8266 46.207 83.3781V83.8005C46.207 83.8005 46.207 83.8826 46.1718 83.9178C46.1483 83.9413 46.1014 83.9413 46.0544 83.9413H45.6672H42.5109C41.9946 83.9413 41.4197 83.9765 41.009 83.9178C40.5749 83.8474 40.2698 83.6714 40.0703 83.3546C39.9647 83.2021 39.8943 83.0026 39.8474 82.7797C39.8005 82.5568 39.7887 82.3221 39.777 82.017C39.7418 81.4304 39.7066 80.8554 39.6479 80.2687C39.5423 79.0954 39.3898 77.922 39.2021 76.737C39.249 76.737 39.2607 76.6666 39.3077 76.913C39.2138 76.2207 39.1551 75.5636 39.0261 74.8713C38.897 74.1908 38.721 73.5337 38.4863 72.9001C38.0053 71.6329 37.2895 70.483 36.3978 69.4974L36.433 69.4739C34.1801 67.1155 31.6457 64.9213 29.7449 62.2461C27.8323 59.5826 26.5534 56.5671 25.7438 53.5985C25.0163 49.9377 24.9224 45.8427 25.8376 41.9003C26.307 39.929 27.0345 38.0165 28.0201 36.233C28.9822 34.4378 30.1204 32.7599 31.4462 31.2697L31.5049 31.3401C33.5583 28.9113 36.21 27.0691 39.073 25.8606C40.5162 25.2622 41.9946 24.7928 43.52 24.4526C45.0336 24.0654 46.5824 23.8542 48.1547 23.6547C49.7739 23.596 51.4166 23.596 53.0593 23.7603C54.702 23.948 56.3447 24.2766 57.9522 24.7811C59.149 25.1918 60.3223 25.6846 61.437 26.2713C62.9858 27.1395 64.4643 28.2073 65.8957 29.4628C66.0835 29.6388 66.2712 29.8148 66.4472 29.9908C66.7992 30.3663 67.1278 30.7769 67.5032 31.1759C67.8787 31.5631 68.2542 31.9737 68.6414 32.3961C69.3571 33.194 70.0729 34.0623 70.7182 34.9658C71.9737 36.937 72.9006 39.0725 73.4756 41.3371C73.7924 43.2027 73.9214 45.0566 73.9332 46.9105C73.9449 48.8465 73.8393 50.759 73.5342 52.6599C73.1236 55.2882 72.3257 57.893 71.1054 60.3218C70.0963 62.0936 68.8408 63.7832 67.3155 65.3672C65.9075 66.8339 64.4642 68.2771 63.1266 69.8259C61.5191 71.6916 60.6743 73.8388 60.4279 76.2911C60.2402 78.2858 60.0877 80.2805 60.0759 82.2869C60.0759 83.8474 59.2194 84.6571 57.6471 84.6688C57.2716 84.6688 56.8844 84.6688 56.509 84.6688C55.6759 84.6101 54.8428 84.5632 53.998 84.5045C53.5521 84.4811 53.1062 84.4576 52.6604 84.4576C52.543 84.4576 52.4374 84.4576 52.367 84.4459C52.2849 84.4341 52.191 84.3989 52.1441 84.3285C52.062 84.1643 52.0972 83.9883 52.0854 83.7536L51.9681 83.9296C52.191 82.9792 51.9212 82.064 51.8508 81.2661C51.8508 81.0784 51.8508 80.8906 51.8508 80.7029C51.8742 80.5034 51.9094 80.3039 52.0033 80.1279L52.0268 80.257C52.1558 79.8698 52.0033 79.4943 51.8625 79.1541C51.8625 78.1919 51.8625 77.2298 51.8625 76.2676C51.8625 76.1386 51.8625 75.986 51.8625 75.8335C51.8625 75.5519 51.8625 75.282 51.8625 75.0004C51.886 74.7775 51.9564 74.6132 52.1089 74.578C52.1089 75.0356 52.3318 73.8505 52.4492 74.8713C52.5078 74.578 52.4844 73.1817 52.238 73.3108C52.1089 73.2521 51.9798 73.0644 51.8625 73.0292C51.8625 69.5443 51.8625 66.0478 51.8625 62.5629M74.2148 65.2734C75.2473 64.0179 76.1039 62.6099 76.8783 61.1549C77.6057 59.6765 78.2042 58.1277 78.6618 56.5202C79.0842 54.9127 79.401 53.2817 79.577 51.6273C79.7295 49.9729 79.8116 48.3067 79.753 46.6523C79.6708 44.7632 79.53 42.9563 79.2015 41.1728C78.8612 39.3893 78.3802 37.6645 77.6879 36.0335C76.3151 32.7481 74.2265 29.803 71.4926 27.3625C71.5278 27.339 71.5043 27.2803 71.6569 27.3977C70.1315 25.931 68.7822 24.5347 67.0926 23.4435L67.1278 23.4083C65.004 22.1176 62.7394 20.8973 60.3575 20.0056C57.9756 19.1373 55.4999 18.5272 53.118 18.445C50.2667 18.0578 47.1574 18.1282 44.1184 18.7384C41.0677 19.3368 38.1109 20.4984 35.4474 21.9533L35.4239 21.8712C34.8959 22.1763 34.3796 22.4931 33.8751 22.8216C33.3823 23.1619 32.8777 23.5022 32.3849 23.8424C31.3993 24.5347 30.4489 25.2505 29.5219 26.0131C27.6798 27.5385 25.9902 29.2985 24.6643 31.3519C23.1624 33.37 22.1181 35.7871 21.4258 38.2629C21.2029 39.049 21.0269 39.8469 20.8744 40.6448C20.5224 42.1349 20.276 43.672 20.1352 45.2912C20.1117 45.4555 20.0882 45.6198 20.0648 45.784C19.7128 47.3211 19.8418 49.1398 20.1 50.8998C20.1 50.9233 20.1 50.9468 20.1117 50.9702C20.2525 52.6716 20.5341 54.3377 20.9682 55.9804C21.4141 58.8903 22.5288 61.6829 24.1832 64.0883C25.3448 65.7896 26.7176 67.2915 28.1961 68.7113C28.3603 68.8873 28.5246 69.075 28.7006 69.251C29.9209 70.5534 31.2233 71.7972 32.3615 73.1817C33.0655 74.0383 33.5231 74.9652 33.6756 76.0916C33.9572 78.1919 34.0863 80.2922 34.1097 82.4042C34.1097 82.8853 34.1449 83.3664 34.2271 83.8357C34.6495 85.9829 35.9402 87.7195 37.7237 88.7168C38.8149 89.4678 40.2111 89.9606 41.5957 89.8785L41.5018 89.7611C42.1472 89.9723 42.8864 89.7259 43.4965 89.6438C43.6725 89.6438 43.8485 89.6438 44.0363 89.6438C44.1653 89.6673 44.2944 89.7025 44.3883 89.7846L44.2827 89.8081C44.5525 89.9371 44.8576 89.7846 45.1392 89.6438C45.9254 89.6438 46.7115 89.6438 47.4976 89.6438C47.5094 89.6438 47.5328 89.6438 47.5446 89.6438H48.3072C48.4715 89.6673 48.6006 89.7377 48.6123 89.8902C48.2603 89.8902 49.1638 90.1131 48.3659 90.2305C48.5889 90.2891 49.6801 90.2657 49.5862 90.0193C49.6331 89.8785 49.7739 89.7611 49.7974 89.6438C52.4961 89.6438 55.1831 89.6555 57.8818 89.6438C62.0002 89.6203 65.0979 86.511 65.1213 82.4042C65.1213 80.5738 65.2856 78.7551 65.4381 76.9364C65.5789 75.2351 66.1891 73.7801 67.3859 72.5716C67.468 72.4894 67.5384 72.4073 67.6088 72.3252C67.515 72.4308 67.4328 72.5364 67.339 72.6302C66.6232 73.4164 66.0952 74.3785 65.8253 75.4228C65.8253 75.3524 65.7901 75.3172 65.8019 75.2468C65.7901 75.458 65.8253 75.7044 65.7667 75.9273C65.7197 75.9743 65.708 75.8452 65.708 75.7748C65.4616 76.1972 65.4381 76.8895 65.4381 77.5231C65.4381 78.1684 65.4381 78.7551 65.3208 79.0367C65.3208 79.2949 65.4381 79.4239 65.5203 79.2831C65.4733 80.1397 65.4499 81.0079 65.4499 81.8762C65.4616 82.7445 65.4499 83.7184 65.18 84.6101C64.7107 86.4288 63.5138 88.0832 61.9181 89.1275C61.7421 89.1862 61.6834 89.1392 61.6834 89.0454C61.0381 89.5147 60.2871 89.8667 59.4893 90.0779C58.6914 90.2774 57.8231 90.3126 57.0839 90.3009C55.5468 90.3009 53.998 90.2422 52.4609 90.207C52.3436 90.3243 52.7777 90.3243 52.4726 90.4417C53.4582 90.5825 54.2796 90.1718 55.1713 90.3713L55.054 90.4769C55.6993 90.5473 55.1831 90.207 55.8636 90.3478C56.1335 90.4417 55.7932 90.4886 55.9223 90.4886C56.6146 90.4651 57.3068 90.4886 58.0226 90.4534C58.7852 90.4299 59.5479 90.2539 60.1933 89.9371C60.3927 89.9958 60.7917 89.8785 61.1906 89.7025C61.3901 89.6086 61.6013 89.5265 61.789 89.4326C61.9768 89.3387 62.1528 89.2683 62.3053 89.2449C62.5986 88.9632 62.9154 88.7168 62.9506 88.5174C63.9832 87.696 64.828 86.5814 65.2856 85.3259C65.532 84.704 65.6845 84.0469 65.7549 83.3781C65.8019 83.0496 65.7901 82.7093 65.8136 82.3808V81.4773C65.8371 80.2687 65.8957 79.0485 65.9779 77.8164L66.0483 76.9012C66.0717 76.6196 66.1069 76.3263 66.1656 76.0564C66.2712 75.4932 66.4589 74.9535 66.7171 74.4607C66.8579 73.9444 67.1395 73.4399 67.5384 72.994C67.9491 72.5364 68.4184 72.0553 68.8878 71.6094C69.8382 70.6825 70.859 69.7438 71.7507 68.6878C71.7742 68.6878 71.7859 68.6995 71.7859 68.723C72.3139 67.972 73.1353 66.9395 73.8276 66.1064C73.9684 65.8248 74.0974 65.5432 74.2148 65.2499" fill="#E77622"/>
<path d="M49.2348 90.9229C49.2348 90.9229 49.2348 90.9933 49.2582 91.0167L49.5046 90.5943C49.3873 90.3596 49.3052 91.0754 49.2348 90.9229Z" fill="#E77622"/>
<path d="M49.1527 90.8756C49.0588 90.7817 49.0119 90.9812 48.9884 91.0398C49.0236 90.8873 49.1644 91.0868 49.1527 90.8756Z" fill="#E77622"/>
<path d="M40.7632 97.5404C40.7632 97.5404 40.8102 97.5522 40.8336 97.5522C40.8336 97.5756 40.8336 97.5874 40.8336 97.6108L40.775 97.5287L40.7632 97.5404ZM39.9888 97.3527C39.9888 97.3527 39.895 97.2588 39.8598 97.2119C40.0944 97.341 40.3643 97.4348 40.6342 97.5052C40.3643 97.646 40.1531 97.5052 39.9888 97.3527ZM39.3435 96.8716C39.3435 96.8716 39.3787 96.9068 39.4022 96.9186C39.367 96.9186 39.3435 96.8951 39.3083 96.8834L39.3435 96.8599V96.8716ZM39.0384 96.5783C39.1088 96.6604 39.1909 96.7308 39.2731 96.8012C39.1557 96.7543 39.0619 96.6722 39.0384 96.5783ZM60.0179 91.9905C59.5485 91.6854 58.9971 91.5798 58.4691 91.615C58.2813 91.5798 58.0936 91.5564 57.8941 91.5564C56.1458 91.5564 54.3975 91.5564 52.6492 91.5564C52.3207 91.4273 51.9804 91.2865 51.6402 91.3334L51.6636 91.439C51.4994 91.2278 51.3116 91.4742 51.1591 91.5564H51.0418C51.0418 91.5564 50.9714 91.4977 50.9479 91.4156L50.9714 91.3921C50.901 91.263 50.8306 91.4156 50.7602 91.5564C50.5724 91.5564 50.3847 91.5564 50.1969 91.5564C50.1852 91.5564 50.1618 91.5564 50.15 91.5564H49.9857C49.9857 91.5564 49.9036 91.4742 49.9036 91.31C49.9975 91.31 49.7628 91.087 49.9623 90.9697C49.9036 90.911 49.6337 90.9345 49.6572 91.1809C49.6455 91.3217 49.6103 91.439 49.6103 91.5564C47.111 91.5564 44.6235 91.5446 42.1243 91.5564C42.4177 91.5094 42.6993 91.4625 42.9926 91.439C42.9691 91.4508 42.9691 91.4977 42.9574 91.5212C43.0043 91.4625 43.063 91.3686 43.1217 91.3804C43.1334 91.4156 43.1099 91.4508 43.0865 91.4742C43.3211 91.7324 43.767 91.31 43.9078 91.5094C43.9782 91.486 44.0017 91.3686 43.9665 91.2865C44.823 91.2161 45.7382 91.1692 46.6065 90.9579C46.6534 90.9931 46.6534 91.0636 46.6417 91.1574C47.3926 90.735 48.1671 90.8993 48.9297 90.9697C48.9532 90.8523 48.8476 90.8524 48.9297 90.735C48.6833 90.5942 48.4839 91.0049 48.2609 90.8054L48.2844 90.6998C48.1201 90.6294 48.2492 90.9697 48.0849 90.8289C48.0145 90.735 48.0967 90.6881 48.0732 90.6881C47.7329 90.735 47.3692 90.6412 47.0524 90.8993C46.9702 90.6646 46.6769 90.8993 46.5478 90.6646C46.4657 90.7585 46.3718 90.735 46.3366 90.8876C45.1281 90.7702 43.9078 90.9932 42.6641 90.9814C42.3825 91.2044 42.0657 91.1809 41.7254 91.1222C41.5611 91.0988 41.4086 91.0518 41.2091 91.0401C41.0096 91.0283 40.8102 91.0401 40.6224 91.1222C40.6224 91.1105 40.6224 91.087 40.6224 91.0753C40.376 91.2278 40.0592 91.3921 39.7542 91.4742C39.7072 91.5681 39.6603 91.6737 39.6251 91.7676C38.7568 92.0374 38.088 92.8705 37.8885 93.7975C37.6773 94.7127 37.8416 95.6983 38.3227 96.5548C38.8859 97.5052 39.8246 98.1623 40.8688 98.3266C41.432 98.4087 41.8192 98.3618 42.2651 98.3266C42.6993 98.2796 43.1334 98.1858 43.591 98.0332C43.591 98.0802 43.591 98.1036 43.5558 98.1154C44.0721 98.0215 44.5531 98.1858 45.0342 98.0919V98.1388C46.2428 97.7634 47.5569 98.1858 48.7303 97.7868C50.15 97.8338 51.7692 97.7868 53.2829 97.6695V97.7634C54.4914 97.5756 55.653 98.045 56.8616 97.9042C57.1784 97.9511 57.4834 97.9511 57.8002 97.9042C58.117 97.8807 58.4691 97.7751 58.7741 97.6226C58.9971 97.517 59.1848 97.3879 59.3725 97.2471C59.6893 97.0711 59.9709 96.8482 60.2056 96.5783C60.2408 96.5431 60.2877 96.5196 60.3229 96.4844C60.7336 96.3084 60.8744 95.8039 60.8627 95.358C60.9683 94.9473 60.9918 94.5015 60.9096 94.0439C61.1091 93.2577 60.6867 92.4129 60.0179 92.0022" fill="#E77622"/>
<path d="M40.7753 105.202C40.7753 105.202 40.8222 105.202 40.834 105.214C40.834 105.237 40.834 105.249 40.834 105.273L40.787 105.202H40.7753ZM39.9892 105.014C39.9892 105.014 39.907 104.932 39.8601 104.885C40.0948 105.014 40.3529 105.108 40.611 105.167C40.3529 105.296 40.1417 105.167 39.9774 105.003M39.3321 104.522C39.3321 104.522 39.379 104.557 39.4025 104.58C39.3673 104.58 39.3321 104.557 39.2969 104.545L39.3321 104.522ZM39.027 104.228C39.0857 104.299 39.1561 104.369 39.2265 104.428C39.1209 104.381 39.0505 104.31 39.027 104.228ZM60.8865 101.659C61.0742 100.884 60.6518 100.028 59.983 99.6287C59.5137 99.3237 58.9622 99.2181 58.4342 99.2533C58.2464 99.2181 58.0587 99.1946 57.8592 99.1946C56.111 99.1946 54.3627 99.1946 52.6261 99.1946C52.2976 99.0655 51.9573 98.9247 51.617 98.9717L51.6405 99.0773C51.4762 98.8661 51.2885 99.1125 51.136 99.1946H51.0186C51.0186 99.1946 50.9482 99.1359 50.9248 99.0538L50.9482 99.0303C50.8778 98.9013 50.8074 99.0538 50.737 99.1946C50.5493 99.1946 50.3616 99.1946 50.1621 99.1946C50.1503 99.1946 50.1269 99.1946 50.1151 99.1946H49.9509C49.9509 99.1946 49.8687 99.1125 49.8687 98.9482C49.9626 98.9482 49.7279 98.7253 49.9274 98.6079C49.8687 98.5493 49.5989 98.5727 49.6223 98.8191C49.6106 98.9482 49.5754 99.0773 49.5754 99.1946C47.0762 99.1946 44.5769 99.1946 42.0777 99.1946C42.3711 99.1477 42.6644 99.1007 42.9695 99.0773C42.9577 99.089 42.946 99.1359 42.9343 99.1594C42.9812 99.1007 43.0399 99.0069 43.0985 99.0186C43.1103 99.0538 43.0868 99.089 43.0633 99.1125C43.298 99.3706 43.7439 98.9482 43.8847 99.1477C43.9433 99.1242 43.9785 99.0069 43.9433 98.9247C44.7999 98.8543 45.7151 98.8074 46.5834 98.5962C46.6303 98.6314 46.6303 98.7018 46.6186 98.7957C47.3578 98.3733 48.1439 98.5375 48.9066 98.6079C48.9301 98.4906 48.8245 98.4906 48.9066 98.3733C48.6602 98.2325 48.4607 98.6431 48.2378 98.4437L48.2613 98.3381C48.097 98.2677 48.2261 98.6079 48.0618 98.4671C47.9914 98.3733 48.0735 98.3263 48.0501 98.3263C47.7098 98.3733 47.346 98.2794 47.0175 98.5375C46.9354 98.3029 46.642 98.5375 46.5247 98.3029C46.4308 98.3967 46.3487 98.3733 46.3135 98.5258C45.105 98.4085 43.8847 98.6314 42.6527 98.6079C42.3711 98.8309 42.0542 98.8074 41.714 98.7487C41.4089 98.6901 40.9865 98.5845 40.5993 98.7487C40.5993 98.737 40.5993 98.7135 40.5993 98.7018C40.3646 98.8661 40.0361 99.0186 39.7428 99.1125C39.6958 99.2063 39.6489 99.3002 39.6137 99.4058C38.7571 99.6874 38.0883 100.509 37.8771 101.436C37.6659 102.363 37.8537 103.36 38.3347 104.193C38.8862 105.132 39.8366 105.812 40.8926 105.965L41.2916 106C41.4206 106 41.5145 106 41.6201 106C41.8313 106 42.0542 105.977 42.2655 105.953C42.6996 105.906 43.1455 105.812 43.5913 105.66C43.5913 105.707 43.5913 105.73 43.5561 105.742C44.0724 105.648 44.5535 105.812 45.0463 105.718V105.765C46.2666 105.39 47.5807 105.824 48.7423 105.413C50.1621 105.449 51.7813 105.413 53.2949 105.296V105.39C54.5035 105.202 55.6651 105.671 56.8736 105.531C57.1787 105.578 57.4955 105.578 57.8123 105.531C58.1409 105.495 58.4929 105.402 58.7862 105.237C59.0091 105.132 59.2086 105.003 59.3963 104.862C59.7131 104.686 60.0065 104.451 60.2411 104.181C60.2763 104.158 60.2998 104.123 60.335 104.099C60.7457 103.935 60.8865 103.43 60.863 102.985C60.9686 102.562 60.9921 102.116 60.91 101.647" fill="#E77622"/>
<path d="M49.6109 98.1974L49.5522 98.35L49.6343 98.2561L49.6109 98.1974Z" fill="#E77622"/>
<path d="M49.2233 98.5845C49.2233 98.5845 49.2233 98.6549 49.2468 98.6784L49.4932 98.256C49.3759 98.0213 49.2937 98.7371 49.2233 98.5845Z" fill="#E77622"/>
<path d="M49.1412 98.5378C49.0474 98.444 49.0004 98.6435 48.977 98.7021C49.0122 98.5496 49.153 98.7491 49.1412 98.5378Z" fill="#E77622"/>
<path d="M81.6668 10.5366L81.6199 10.6892L81.6903 10.5953L81.6668 10.5366Z" fill="#E77622"/>
<path d="M81.5489 10.6072C81.4316 10.3725 81.4199 11.1 81.3495 10.9474C81.3612 10.9709 81.3612 11.0178 81.3729 11.0413C81.4316 10.9005 81.4903 10.748 81.5489 10.6072Z" fill="#E77622"/>
<path d="M81.2789 10.912C81.185 10.8298 81.1733 11.0293 81.1615 11.0997C81.1615 10.9472 81.3141 11.1232 81.2789 10.912Z" fill="#E77622"/>
<path d="M72.0093 19.7357C72.0093 19.7357 71.9858 19.7592 71.9741 19.7709C71.9506 19.7709 71.9389 19.7709 71.9037 19.7592L71.9975 19.7357H72.0093ZM72.5255 19.2312C72.3847 19.372 72.2439 19.5128 72.0914 19.6536C71.9975 19.4541 72.2674 19.3602 72.5255 19.2312ZM72.8658 18.9026C72.8658 18.9026 72.8306 18.9261 72.8189 18.9496C72.8189 18.9261 72.8306 18.9144 72.8306 18.8909L72.8658 18.9144V18.9026ZM73.0887 18.6797L72.9362 18.8322C72.9597 18.7618 73.0066 18.7149 73.0887 18.6797ZM71.4343 21.2376C71.5517 21.308 71.669 21.3784 71.7746 21.4371C71.8802 21.4957 71.9506 21.5075 72.0327 21.5427C71.9975 21.5779 71.9975 21.6013 71.9506 21.5896C72.2909 21.7773 72.4317 22.1411 72.7602 22.3288L72.725 22.364C73.6285 22.7277 73.9805 23.7368 74.8488 24.124C75.0248 24.3352 75.2712 24.6638 75.5058 24.8984C75.5645 24.9571 75.6232 25.0158 75.7053 25.051C75.7874 25.0862 75.8813 25.0627 75.9517 25.0158C76.0925 24.9219 76.2216 24.7928 76.3624 24.652C76.5619 24.4408 76.7496 24.2414 76.9021 24.0536C77.0664 23.8659 77.2307 23.6664 77.3949 23.4787L77.4536 23.5374C77.9581 22.7747 78.9203 22.4931 79.46 21.7656C79.9998 21.4253 80.2696 20.78 80.6451 20.2402C80.8446 20.0408 81.044 19.8413 81.2435 19.6418C81.267 19.6301 81.2904 19.6066 81.3139 19.5949C81.6659 19.548 81.8067 19.2429 81.9593 18.9378C82.2057 18.7032 82.4403 18.4568 82.6867 18.2221C83.2969 18.0696 83.7075 17.741 84.0361 17.3069C84.2825 17.0135 84.4585 16.6263 84.5406 16.2274C85.0334 15.4061 85.0686 14.4556 84.6345 13.4818C84.4233 12.989 84.13 12.6017 83.7897 12.3084C83.6841 12.0503 83.5315 11.7687 83.2499 11.6865L83.2147 11.7921C83.1795 11.5105 82.9331 11.7335 82.7923 11.7452C82.7689 11.7452 82.7571 11.7335 82.7337 11.7217C82.7102 11.6983 82.6985 11.6513 82.6985 11.5575H82.7219C82.6985 11.4049 82.6046 11.534 82.5107 11.6631C82.3817 11.6279 82.2409 11.6044 82.1001 11.5809C82.0766 11.5809 82.0531 11.5809 82.0297 11.5809C81.9945 11.5809 81.971 11.5809 81.9358 11.5809C81.9006 11.5575 81.8654 11.4988 81.8889 11.3228C81.9593 11.3228 81.795 11.0881 81.971 10.9825C81.9241 10.9239 81.7011 10.9239 81.7011 11.1703C81.6894 11.3111 81.6542 11.4284 81.6425 11.5575C80.7507 11.6044 80.0115 11.8625 79.4014 12.4492C78.6504 13.1767 77.9112 13.9159 77.1603 14.6434C77.2776 14.4674 77.3949 14.2914 77.5357 14.1036C77.5357 14.1271 77.5709 14.1506 77.5827 14.174C77.5709 14.1154 77.524 14.0215 77.5592 13.998C77.5944 14.0098 77.6061 14.045 77.6061 14.0684C77.9347 14.1036 77.8408 13.6108 78.0755 13.6578C78.0872 13.6108 78.0168 13.5287 77.9464 13.4935C78.3688 12.989 78.7795 12.4844 79.1901 11.8391C79.2488 11.8391 79.2958 11.8977 79.3427 11.9681C79.4483 11.6044 79.7299 11.3463 80.0584 11.2172C80.387 11.0764 80.739 11.0412 81.0558 11.0295C81.0558 10.9121 80.9736 10.9239 81.0206 10.7948C80.7742 10.6892 80.6803 11.1351 80.4456 10.9943V10.8887C80.2696 10.8652 80.4926 11.1585 80.3048 11.0647C80.211 10.9943 80.2696 10.9356 80.2462 10.9356C79.9646 11.0764 79.5891 11.1585 79.4835 11.5457C79.284 11.3932 79.2019 11.7335 78.9672 11.6513C78.9672 11.7804 78.8851 11.8156 78.9672 11.9447C78.2045 12.5196 77.7 13.3527 77.0077 13.998C77.0547 14.573 76.2451 14.6316 75.9869 15.0892C75.9752 15.0892 75.9634 15.0775 75.9517 15.0658C75.9165 15.2418 75.7874 15.4413 75.5997 15.5586L75.6466 15.7698C74.4264 16.4503 73.781 17.4594 72.7367 18.2808C72.1735 18.7618 71.5869 19.2077 71.0823 19.677C70.965 19.8061 70.8242 19.8765 70.742 20.0642C70.6599 20.252 70.6716 20.5453 70.8124 20.7213C70.965 20.9091 71.1645 21.0851 71.3874 21.2259" fill="#E77622"/>
<path d="M17.3664 10.5366L17.3195 10.6892L17.3899 10.5953L17.3664 10.5366Z" fill="#E77622"/>
<path d="M17.2611 10.607C17.1321 10.3841 17.1438 11.0998 17.0617 10.959C17.0734 10.9825 17.0734 11.0294 17.0851 11.0529C17.1321 10.9003 17.1907 10.7595 17.2494 10.607" fill="#E77622"/>
<path d="M16.9908 10.924C16.8969 10.8418 16.8852 11.0413 16.8852 11.1117C16.8852 10.9592 17.0377 11.1352 16.9908 10.924Z" fill="#E77622"/>
<path d="M19.1386 20.8036L19.1621 20.8271C19.1621 20.8506 19.1503 20.8506 19.1386 20.8741V20.7919V20.8036ZM18.6341 20.2991C18.7749 20.4399 18.9157 20.569 19.0447 20.7098C18.8101 20.7567 18.7279 20.522 18.6341 20.2991ZM18.2821 19.9588C18.2821 19.9588 18.3055 19.9823 18.3173 19.994C18.2938 19.994 18.2821 19.9823 18.2586 19.9823L18.2821 19.9588ZM18.0709 19.7476C18.0709 19.7476 18.1647 19.8415 18.2117 19.8767C18.153 19.8532 18.0943 19.8063 18.0709 19.7476ZM14.3162 16.6383C14.3162 16.6383 14.2927 16.6617 14.281 16.6617C14.4804 16.7673 14.6799 16.9433 14.7972 17.1428C14.8911 17.1428 14.9732 17.1428 15.0671 17.1428C15.6772 18.281 16.7685 18.9615 17.5663 19.9588C18.5167 21.0383 19.3381 22.2351 20.5349 22.6458C20.5232 22.6927 20.5232 22.7162 20.488 22.7162C20.8048 22.9039 21.016 23.3146 21.3093 23.4906V23.5375C21.6848 23.6784 22.0133 24.0304 22.3536 24.3706C22.5296 24.5466 22.6939 24.7109 22.8699 24.8517C23.0341 24.9808 23.1984 25.145 23.4448 25.0746C23.5973 25.0746 23.6912 24.9456 23.7968 24.84C23.9024 24.7226 24.008 24.617 24.1136 24.488C24.3013 24.265 24.4891 24.0304 24.6768 23.8074C25.0406 23.3615 25.4043 22.9039 25.7563 22.4698L25.815 22.5285C26.3195 21.7423 27.2582 21.5194 27.8566 20.7919C27.9153 20.745 27.9857 20.6863 28.0443 20.569C28.103 20.4516 28.0913 20.2522 28.0326 20.1583C27.9153 19.9588 27.8097 19.9119 27.7275 19.8415C27.5398 19.7007 27.3169 19.5834 27.1056 19.4543C26.9414 19.3604 26.7771 19.2548 26.6246 19.1492C26.4486 18.985 26.2843 18.809 26.1083 18.6447C26.0848 18.6095 26.0496 18.5743 26.0262 18.5274C25.9792 18.1754 25.6624 18.0345 25.3456 17.8937C25.111 17.6591 24.8763 17.4361 24.6416 17.2015C24.36 16.1689 23.5621 15.6879 22.6821 15.2772C21.7434 14.3502 20.793 13.4233 19.8544 12.5081C19.7722 12.4259 19.6784 12.3673 19.5845 12.2969C19.5845 12.2969 19.5845 12.2969 19.5845 12.2851C19.4672 12.027 19.3029 11.7454 19.0213 11.6633L18.9978 11.7689C18.9509 11.4873 18.6927 11.7571 18.5519 11.7454H18.5285C18.4933 11.7219 18.4698 11.675 18.4815 11.5694H18.505C18.4815 11.4051 18.3877 11.5577 18.2938 11.6867C18.1647 11.6633 18.0474 11.6398 17.9066 11.6281C17.8714 11.5929 17.8245 11.6163 17.7658 11.6163H17.7423C17.6954 11.6163 17.6602 11.5459 17.6719 11.3465C17.7423 11.3465 17.5781 11.1118 17.7423 11.0062C17.6954 10.9358 17.4725 10.9593 17.4842 11.2057C17.4725 11.3465 17.4373 11.4755 17.4373 11.5929C16.1583 11.6867 15.1258 12.2851 14.586 13.5524C14.3044 14.2094 14.234 14.8548 14.3748 15.4532C14.281 15.2537 14.2106 15.0308 14.1871 14.7961C14.1988 14.8078 14.2458 14.8196 14.2692 14.8313C14.2106 14.7961 14.1167 14.7374 14.1284 14.6905C14.1636 14.6905 14.1988 14.7022 14.2106 14.7257C14.4804 14.5849 14.105 14.186 14.3396 14.1156C14.3279 14.0569 14.2223 14.01 14.1402 14.0217C14.2575 13.3412 14.5508 12.6489 14.9967 11.9683C15.0436 11.9683 15.1023 12.0153 15.1492 12.0974C15.2431 11.7219 15.5247 11.4638 15.8415 11.323C16.1583 11.1705 16.5103 11.1235 16.8389 11.1001C16.8389 10.9827 16.745 10.9945 16.7919 10.8654C16.5338 10.7715 16.4634 11.2174 16.217 11.0883V10.9827C16.041 10.971 16.2639 11.2526 16.0762 11.1705C15.9823 11.1118 16.041 11.0414 16.0175 11.0414C15.7359 11.1939 15.3722 11.2878 15.2783 11.675C15.0788 11.5225 15.0084 11.8745 14.7738 11.7923C14.7738 11.9214 14.6916 11.9566 14.7738 12.0974C14.3396 12.4494 14.0698 12.9657 13.9172 13.4702C13.7529 13.9865 13.706 14.538 13.7295 15.1012C13.9642 15.3476 13.9876 15.594 14.0228 15.8873C14.058 16.1689 14.105 16.5092 14.3279 16.7204" fill="#E77622"/>
<path d="M84.4707 49.4216H84.5176C84.5176 49.4216 84.4942 49.4568 84.4942 49.4803L84.4707 49.4216ZM83.8488 49.3864C83.8488 49.3864 83.8019 49.2808 83.8019 49.2222C83.8723 49.363 84.0248 49.4216 84.2947 49.4216H84.3534C84.107 49.5976 83.931 49.539 83.8371 49.3864M83.7315 48.788C83.7315 48.788 83.7315 48.835 83.7315 48.8467C83.7198 48.8232 83.7198 48.8115 83.6963 48.788H83.7315ZM83.7315 48.4829C83.7315 48.5533 83.7315 48.6237 83.7315 48.6824C83.708 48.612 83.6963 48.5416 83.7315 48.4829ZM98.1402 46.9341C98.4101 46.6995 98.3397 46.3005 98.1871 45.9837C98.1871 45.9837 98.1871 45.972 98.1871 45.9602C98.1637 45.6434 98.0933 45.3266 97.9877 45.045C98.0933 44.4114 97.7178 43.8365 97.225 43.5314C96.8613 43.3202 96.4506 43.2381 96.0399 43.2381C95.6644 43.109 95.2655 43.0269 94.8314 43.0269C93.8105 43.0269 92.778 43.0269 91.7572 43.0269C91.5108 42.8978 91.2527 42.757 90.9945 42.7922L91.018 42.9095C90.8889 42.6866 90.7481 42.9565 90.6425 43.0269H90.5604C90.5604 43.0269 90.5017 42.9682 90.49 42.8861L90.5134 42.8626C90.4665 42.7335 90.4078 42.8861 90.3492 43.0269H89.9268C89.9268 43.0269 89.9033 43.0269 89.8798 43.0269H89.7625C89.7625 43.0269 89.7038 42.9447 89.7038 42.7805C89.7742 42.7805 89.5982 42.5575 89.7508 42.4402C89.7038 42.3815 89.5044 42.405 89.5278 42.6514C89.5278 42.7805 89.4926 42.9095 89.4926 43.0269C87.6387 43.0269 85.7848 43.0269 83.931 43.0269C83.9427 43.0269 83.9544 43.0269 83.9662 43.0269C84.1422 42.9917 84.3182 42.9565 84.5059 42.933C84.5059 42.9447 84.5294 42.9917 84.5176 43.0034C84.5176 42.9565 84.5176 42.8626 84.5646 42.8743C84.5998 42.9095 84.588 42.9447 84.588 42.9565C84.8931 43.1911 85.0104 42.8039 85.2216 42.9917C85.2568 42.9682 85.2216 42.8626 85.163 42.7922C85.7966 42.7335 86.4771 42.6749 87.1107 42.4754C87.1577 42.5106 87.1811 42.581 87.1929 42.6631C87.6739 42.2525 88.3662 42.405 88.9646 42.4637C88.9764 42.3581 88.8942 42.3463 88.9529 42.229C88.7417 42.0999 88.6126 42.4989 88.4131 42.3111V42.2055C88.2841 42.1351 88.4249 42.4754 88.2724 42.3346C88.202 42.2407 88.2723 42.2055 88.2371 42.1938C87.9673 42.2407 87.6505 42.1469 87.4393 42.405C87.3219 42.1821 87.1459 42.405 86.9817 42.1821C86.9347 42.2759 86.8526 42.2525 86.8643 42.3933C85.8552 42.2877 84.9518 42.5106 83.9779 42.4989C83.884 42.7218 83.6259 42.6279 83.3091 42.7335C82.9805 42.8861 82.9336 43.2146 83.004 43.6135C82.9923 43.6135 82.9688 43.6136 82.9571 43.6018C83.0157 43.7426 83.0861 43.8952 83.1213 44.0477C83.1683 44.212 83.1683 44.2824 83.1448 44.3997L83.356 44.5522C83.0744 45.7608 83.403 46.9459 83.2152 48.1427C83.2035 48.3539 83.1683 48.5181 83.1566 48.8115C83.1331 49.0814 83.1331 49.3395 83.227 49.5624C83.4147 50.0552 84.06 50.1491 84.2947 50.1256C84.9518 50.1491 85.6441 50.0787 86.4302 49.7971C86.4185 49.844 86.4185 49.8675 86.3715 49.8792C86.7939 49.7854 87.099 49.9496 87.5097 49.8558V49.9027C88.5188 49.539 89.4105 49.9496 90.3726 49.5624C91.4286 49.5976 92.6607 49.5624 93.7871 49.4451V49.539C94.2447 49.4334 94.6671 49.539 95.1364 49.5742C95.594 49.6211 96.1103 49.5742 96.521 49.3043C97.0255 49.187 97.3893 48.7411 97.6005 48.2835C97.6943 48.084 97.7647 47.8963 97.8351 47.7085C97.929 47.5208 98.0111 47.3331 98.0815 47.1219C98.105 47.0632 98.1285 47.0045 98.1637 46.9576" fill="#E77622"/>
<path d="M17.5306 81.9116L17.5775 81.7591L17.5189 81.853L17.5306 81.9116Z" fill="#E77622"/>
<path d="M17.6369 81.8409C17.7425 82.0755 17.7425 81.3481 17.8129 81.5006C17.8012 81.4771 17.8012 81.4302 17.7894 81.4067C17.7425 81.5475 17.6956 81.7001 17.6369 81.8409Z" fill="#E77622"/>
<path d="M17.871 81.5478C17.9531 81.6417 17.9649 81.4422 17.9649 81.3718C17.9649 81.5244 17.8358 81.3366 17.871 81.5478Z" fill="#E77622"/>
<path d="M25.6383 74.3434C25.6383 74.3434 25.5444 74.3904 25.4975 74.4138C25.6617 74.2378 25.7087 74.1205 25.5913 73.9445C25.8964 74.0384 25.8143 74.2613 25.6383 74.3434ZM25.2159 74.6954C25.2159 74.6954 25.2393 74.672 25.2511 74.6602C25.2511 74.6837 25.2393 74.6954 25.2511 74.7189L25.2159 74.6954ZM25.0164 74.8832C25.0164 74.8832 25.1103 74.7893 25.1572 74.7541C25.1455 74.8128 25.0985 74.8714 25.0164 74.8832ZM25.5913 73.8272C25.5913 73.8272 25.5561 73.8624 25.5444 73.8741C25.5444 73.8741 25.5444 73.8506 25.5209 73.8389C25.5444 73.8389 25.5561 73.8389 25.5913 73.8272ZM25.7908 73.041L25.5796 72.8298L25.4153 72.689C25.1924 72.513 24.946 72.3605 24.6409 72.2431C24.6761 72.2197 24.6879 72.1962 24.7231 72.2079C24.4415 72.0085 24.3711 71.6799 24.1012 71.4922L24.1364 71.4687C23.3503 71.0933 23.186 70.2015 22.3881 69.7908C22.2356 69.5679 22.083 69.345 21.907 69.1572C21.8249 69.0634 21.6606 69.0282 21.555 69.1103C21.4377 69.1807 21.3673 69.2863 21.2734 69.3684C20.9214 69.7439 20.5577 70.1429 20.2291 70.5418L20.2057 70.4479C19.7011 71.1754 19.0089 71.2575 18.4926 71.9498C18.035 72.2197 17.7534 72.8533 17.4131 73.3461C17.2371 73.5104 17.0728 73.6864 16.8968 73.8506C16.8734 73.8624 16.8499 73.8858 16.8264 73.8976C16.5214 73.8976 16.3923 74.1792 16.275 74.4725C16.0638 74.6837 15.8526 74.8832 15.6531 75.0944C15.395 75.1413 15.1603 75.2352 14.9608 75.3643C14.7496 75.5168 14.5853 75.728 14.468 75.9627C14.3155 76.3029 14.292 76.6784 14.3507 77.0304C14.2099 77.6405 14.2803 78.2976 14.5736 78.9664C14.8317 79.5531 15.2072 79.999 15.6414 80.3041C15.747 80.5387 15.8878 80.7851 16.1342 80.8438L16.1576 80.7382C16.1928 80.9963 16.3923 80.7734 16.5096 80.7382C16.5331 80.7382 16.5566 80.7499 16.58 80.7617C16.6035 80.7851 16.6152 80.8321 16.6035 80.9142L16.58 80.9377C16.5918 81.0785 16.6856 80.9377 16.7678 80.8086C16.8851 80.8321 16.9907 80.8555 17.108 80.879C17.1315 80.8907 17.1432 80.8907 17.1784 80.879C17.2019 80.879 17.2254 80.879 17.2488 80.879C17.284 80.9025 17.3075 80.9611 17.284 81.1371C17.2254 81.1371 17.3662 81.3718 17.2136 81.4774C17.2488 81.5361 17.4483 81.5243 17.4483 81.2779C17.46 81.1371 17.4952 81.0198 17.507 80.8907C18.4809 80.8438 19.2553 80.527 19.9006 79.8934C20.4169 79.3888 20.9449 78.8726 21.4612 78.368C21.3673 78.5206 21.2617 78.6848 21.1444 78.8491C21.1444 78.8256 21.1092 78.8022 21.0974 78.7787C21.1209 78.8374 21.1678 78.9312 21.1326 78.943C21.0974 78.9312 21.0857 78.8843 21.0857 78.8726C20.7806 78.8139 20.898 79.295 20.675 79.2246C20.675 79.2715 20.7337 79.3536 20.8158 79.4006C20.4521 79.8347 20.1353 80.3158 19.6659 80.8555C19.619 80.8438 19.5721 80.7851 19.5369 80.703C19.2905 81.3718 18.5747 81.4422 18.0233 81.4422C18.0233 81.5595 18.0937 81.5478 18.0585 81.6769C18.2697 81.7942 18.3518 81.3483 18.5513 81.5126V81.6182C18.7038 81.6534 18.5161 81.3483 18.6686 81.4422C18.7507 81.5126 18.6921 81.583 18.7155 81.583C18.9619 81.4657 19.2905 81.4422 19.3961 81.0902C19.5603 81.2662 19.6542 80.9494 19.8537 81.0902C19.8537 80.9729 19.9358 80.9494 19.8537 80.8086C20.0531 80.703 20.2526 80.5505 20.4051 80.3862C20.5459 80.2454 20.6868 80.0811 20.8158 79.9286C21.0857 79.6118 21.3321 79.2832 21.6372 79.0016C21.555 78.4619 22.306 78.4619 22.5172 78.0512C22.5289 78.0512 22.5524 78.063 22.5524 78.0747C22.5641 77.9104 22.6814 77.7227 22.8457 77.6288L22.787 77.4176C23.8783 76.8779 24.418 75.9744 25.3332 75.2821C25.5913 75.0709 25.8377 74.8714 26.0842 74.6837C26.2132 74.5781 26.3306 74.3669 26.354 74.1557C26.354 73.9328 26.3188 73.745 26.178 73.5573C26.049 73.3813 25.9081 73.1701 25.7673 73.041" fill="#E77622"/>
<path d="M81.5139 81.9116L81.5608 81.7591L81.4904 81.853L81.5139 81.9116Z" fill="#E77622"/>
<path d="M81.6073 81.8526C81.7011 82.0873 81.7363 81.3598 81.795 81.5241C81.795 81.5006 81.795 81.4537 81.7715 81.4302C81.7246 81.571 81.6659 81.7118 81.6073 81.8526Z" fill="#E77622"/>
<path d="M81.8542 81.5592C81.9363 81.6531 81.948 81.4536 81.9598 81.3832C81.9598 81.5358 81.8307 81.348 81.8542 81.5592Z" fill="#E77622"/>
<path d="M81.5258 73.0642C81.5258 73.0642 81.514 73.0525 81.5023 73.0408C81.5023 73.029 81.514 73.0173 81.5258 72.9938V73.0642ZM81.9599 73.4984C81.8426 73.381 81.7252 73.2637 81.6079 73.1464C81.8308 73.0877 81.8895 73.2989 81.9599 73.4984ZM82.265 73.8034L82.2298 73.7682C82.2298 73.7682 82.265 73.78 82.2884 73.7682L82.265 73.7917V73.8034ZM82.4527 73.9912L82.3354 73.8738C82.3354 73.8738 82.4292 73.9325 82.4527 73.9912ZM85.4213 77.1005C85.4213 77.1005 85.4565 77.1005 85.4682 77.1005C85.3274 76.948 85.2218 76.7251 85.1983 76.5256L84.9637 76.4435C84.9285 75.8451 84.5061 75.3053 84.1189 74.9533C83.7317 74.5661 83.321 74.2141 82.9807 73.7682C82.1711 72.8296 81.4671 71.7383 80.3876 71.445C80.3994 71.4098 80.3994 71.3746 80.4346 71.3863C80.153 71.2338 79.9769 70.8583 79.7188 70.7175V70.6706C79.0617 70.4829 78.522 69.4386 77.9119 69.3213C77.8297 69.2391 77.7476 69.1453 77.6185 69.0983C77.4894 69.0396 77.3604 69.1452 77.29 69.2391C77.114 69.4386 76.9497 69.6733 76.7972 69.9079C76.5038 70.3421 76.2457 70.741 75.9876 71.1634L75.9172 71.1047C75.5769 71.8322 74.7321 72.1138 74.3331 72.7826C73.9929 73.0173 73.8169 73.4045 73.6291 73.7917C73.5822 73.8856 73.5235 74.0146 73.547 74.132C73.5587 74.1906 73.5939 74.2376 73.6291 74.2845C73.6643 74.3315 73.6995 74.3784 73.7582 74.4253C73.8638 74.5309 73.9694 74.6365 74.075 74.7421C74.0985 74.7773 74.1219 74.8008 74.1454 74.8477C74.1689 75.1763 74.4505 75.2936 74.7438 75.3992C74.9433 75.5987 75.1545 75.7981 75.354 75.9976C75.5417 76.948 76.2457 77.3352 77.0436 77.652C77.8297 78.4264 78.6159 79.2008 79.402 79.9753C79.4959 80.0691 79.6132 80.1513 79.7188 80.2334C79.8127 80.4681 79.9417 80.7379 80.1764 80.7966L80.2116 80.691C80.2351 80.9609 80.4698 80.7145 80.5871 80.7145C80.5871 80.7145 80.6106 80.7145 80.6223 80.7145C80.6458 80.7379 80.6575 80.7849 80.6458 80.8905H80.6223C80.6223 81.043 80.7279 80.9022 80.81 80.7731C80.9156 80.8083 81.033 80.8318 81.1386 80.8435C81.162 80.8787 81.209 80.8553 81.2559 80.8553C81.2559 80.8553 81.2676 80.8553 81.2794 80.8553C81.3263 80.867 81.3498 80.9257 81.338 81.1251C81.2676 81.1251 81.4202 81.3598 81.2676 81.4654C81.3028 81.5358 81.5258 81.5123 81.514 81.2659C81.514 81.1251 81.5492 81.0078 81.561 80.8905C83.0277 80.8905 84.201 80.1278 84.6938 78.9544C84.8111 78.6494 84.8933 78.356 84.9402 78.0744C84.9519 78.2622 84.9519 78.4499 84.9402 78.6611C84.9285 78.6494 84.8815 78.6259 84.8698 78.6142C84.9167 78.6611 84.9989 78.7315 84.9754 78.7667C84.9402 78.7667 84.905 78.7315 84.8933 78.7198C84.6117 78.7667 84.8933 79.2008 84.6586 79.2126C84.6586 79.2595 84.7525 79.3299 84.8346 79.3534C84.6117 79.9283 84.1893 80.4446 83.7317 80.9491C83.6847 80.9374 83.6495 80.8787 83.6026 80.7966C83.3327 81.4537 82.617 81.5006 82.0772 81.4771C82.0772 81.5945 82.1476 81.5945 82.1007 81.7118C82.3119 81.8291 82.394 81.395 82.6052 81.5593V81.6649C82.746 81.7001 82.57 81.395 82.7343 81.5006C82.8047 81.571 82.7578 81.6414 82.7813 81.6414C83.0277 81.5241 83.3445 81.5241 83.4618 81.1721C83.6261 81.3598 83.7199 81.0547 83.9194 81.1838C83.9311 81.0665 84.0015 81.043 83.9429 80.9022C84.8346 80.4798 85.2453 79.4238 85.4565 78.5907C85.2922 78.3326 85.3509 78.1214 85.433 77.8867C85.5034 77.652 85.5973 77.3704 85.4799 77.1123" fill="#E77622"/>
</svg>
