<svg width="123" height="122" viewBox="0 0 123 122" fill="none" xmlns="http://www.w3.org/2000/svg">
<path d="M14.3082 42.855C14.3082 42.855 14.2606 42.926 14.2478 42.9597L14.2944 43.0248C14.4651 42.7306 14.6509 42.4747 14.8356 42.1828C14.6602 42.4189 14.4709 42.6527 14.3082 42.855Z" fill="#E77622"/>
<path d="M31.947 85.5651C31.947 85.5651 31.9993 85.6383 32.0226 85.6708C32.0354 85.6371 31.9702 85.5976 31.947 85.5651Z" fill="#E77622"/>
<path d="M28.8612 59.5066L28.8729 59.5228L28.881 59.517C28.881 59.517 28.8671 59.5147 28.8612 59.5066Z" fill="#E77622"/>
<path d="M72.6765 17.0788L72.6882 17.0951L72.6963 17.0893C72.6963 17.0893 72.6905 17.0811 72.6765 17.0788Z" fill="#E77622"/>
<path d="M73.7338 29.6617C73.6537 29.756 73.5758 29.8362 73.5061 29.9107C73.548 29.9176 73.656 29.742 73.7338 29.6617Z" fill="#E77622"/>
<path d="M76.3418 100.003L76.1662 99.809L76.1429 99.7764C76.3033 99.7601 76.6008 99.6948 76.6125 99.711L76.5799 99.7343C76.437 99.7751 76.2684 99.7973 76.1964 99.7996L76.3219 99.8205C76.2348 99.8705 76.1929 99.8636 76.3976 100.012C76.3976 100.012 76.379 100.009 76.3418 100.003ZM76.0591 99.6765C76.2579 99.645 76.5101 99.6367 76.3602 99.7193L76.1231 99.766L76.0649 99.6846L76.0591 99.6765ZM73.7161 96.8648C73.9056 96.8891 74.0568 96.9285 74.0115 97.0715L74.1405 97.0284C74.4069 97.2805 74.0557 97.1506 74.2 97.4039C74.2884 97.4759 74.4127 97.2887 74.4838 97.5083C74.4164 97.5688 74.4106 97.6467 74.4211 97.713C74.1815 97.4295 73.9639 97.1425 73.7219 96.8729M71.7462 99.4909L71.5905 99.5654C71.2988 99.7249 70.8851 99.9716 70.4121 100.187L70.1145 100.166L70.1296 100.119C70.1296 100.119 70.0669 100.151 70.0506 100.163C62.3732 99.5189 49.7421 98.275 42.1686 96.4872C41.7685 96.1341 41.3846 95.7693 41.0287 95.4092C41.4065 95.5077 41.4834 95.7355 41.7904 95.8725C41.7904 95.8725 41.7927 95.8586 41.7811 95.8423C42.0518 95.6364 42.3762 95.7977 42.575 95.8522L42.6507 95.958C42.7473 96.1962 43.2596 95.5717 43.0692 95.9414C44.0875 95.9385 45.2616 96.0331 46.4056 96.137C46.5706 96.0067 47.2659 96.2224 47.0506 95.9215C47.3008 96.2712 48.1437 96.4183 48.4634 96.4356C48.4448 96.4612 48.446 96.4972 48.3902 96.4879C48.9682 96.9351 49.1479 96.155 49.6655 96.7068C49.7874 96.3615 50.7072 96.9084 51.0662 96.5165C51.1244 96.5978 51.1407 96.6722 51.1152 96.7396C52.1452 96.8389 53.2625 97.0603 54.1506 97.1504C54.9224 96.9058 55.9445 97.441 56.6232 97.0663C57.1441 97.2101 57.9928 97.4514 58.7414 97.3463L58.6682 97.3986C59.0879 97.4181 59.5494 97.4445 60.0097 97.435C60.7932 97.4647 61.4779 97.4422 61.7685 97.3327C62.6174 97.832 63.2544 97.7944 64.1961 97.9938C64.5634 97.9401 65.2633 97.9559 66.0084 98.0008C66.7559 98.0317 67.5453 98.0696 67.8789 98.0031C68.9985 98.2965 68.6554 97.9886 70.1646 98.3969C70.4342 98.327 70.7411 98.2919 71.1119 98.2603L71.1817 98.3579C71.2108 98.3985 71.2596 98.4496 71.2829 98.4822C71.2352 98.4671 71.2364 98.5031 71.1457 98.4451C71.2691 98.7379 71.3692 98.9122 71.5111 99.0935C71.581 99.1911 71.6531 99.2748 71.745 99.3689L71.8032 99.4502C71.8032 99.4502 71.7648 99.4653 71.7404 99.4828M51.0616 103.97C50.5291 103.81 50.0175 103.611 49.5082 103.397C51.886 104.229 54.5391 104.827 57.4513 105.031C55.2867 104.944 53.122 104.685 51.0535 103.976M42.7189 95.4174C42.3388 95.4188 42.6781 95.2744 42.3898 95.1979C42.2817 95.2014 42.333 95.4107 42.1109 95.3236C42.1085 95.1655 42.0096 95.1133 41.8782 95.0843L43.1919 95.202C43.013 95.33 42.8503 95.4464 42.7758 95.2906L42.7189 95.4174ZM61.1101 96.7217L60.7858 96.7323L59.4966 96.7692C56.3076 96.2469 53.0425 96.6152 49.987 95.8499C49.2245 95.9527 48.4443 95.773 47.6386 95.5747L61.1101 96.7217ZM60.852 94.7793C61.0089 94.8269 61.1682 94.8605 61.3252 94.9081C61.9635 95.0786 62.6228 95.2955 63.0948 95.4742L60.8578 94.7875L60.852 94.7793ZM47.2853 90.1473C47.348 90.1147 47.4852 90.0658 47.4782 90.0216C47.1992 90.0613 47.1457 89.9521 47.1468 89.9021C47.1317 89.8638 47.156 89.8463 46.4167 89.8956C46.4551 89.8805 46.7538 89.8512 46.8759 89.85C46.569 89.799 46.2283 89.7353 45.8981 89.6518C45.611 89.6113 45.9016 89.5879 45.9666 89.5413L46.3188 89.4493C46.8395 89.335 47.4416 89.2486 48.0624 89.2227C49.7115 88.5718 51.6345 88.9914 53.3956 88.7892L53.3793 88.8868C55.6984 88.7772 58.0588 89.6708 60.2541 90.5227C61.1367 90.9488 61.789 91.1216 62.6727 91.5837L62.6402 91.693C64.3389 92.1255 65.4269 93.8186 67.0432 94.5313L66.856 94.5791C67.1966 94.5568 67.5539 95.211 67.7491 94.9854C67.7863 95.0202 67.8375 95.0574 67.8631 95.076L67.962 95.2142C68.0271 95.2537 68.0945 95.2793 68.1597 95.3187C68.6144 95.7311 69.0902 96.19 69.5438 96.6524C68.2882 96.4439 66.9129 96.2228 66.0375 96.0989C66.0956 96.0943 66.2095 96.0988 66.3211 96.1174C65.6549 95.9423 66.0443 95.799 65.1909 95.5857C65.349 95.5832 65.3408 95.5891 65.6001 95.6249C65.0583 95.5207 64.9106 95.4173 64.6594 95.2896C64.4082 95.1619 64.0513 95.0237 63.4351 94.9358L63.5339 94.902L62.8224 94.7839C62.9932 94.7477 63.2408 94.6813 63.4966 94.7811C62.6304 94.5155 61.7863 94.2463 60.9201 93.9807L59.3318 93.5306C58.3494 93.2744 57.3553 93.0018 56.3728 92.7455C54.3719 92.2341 52.3768 91.7309 50.4129 91.0823L50.5919 91.0403L49.7874 90.9641C49.7874 90.9641 49.8467 90.9094 49.8909 90.9024C49.4199 90.6737 48.9269 90.5345 48.4131 90.4349L47.6887 90.2645C47.555 90.2494 47.4039 90.21 47.2771 90.1531M40.7367 95.1385L40.7856 95.1896C40.76 95.171 40.7542 95.1629 40.7367 95.1385ZM48.5869 85.8477C49.5516 85.6494 50.5012 85.4989 51.3175 85.7634C50.3735 85.75 49.4587 85.7774 48.5869 85.8477ZM61.1356 87.4579C62.4986 88.2289 63.9984 88.6929 65.3346 89.4954C65.994 89.8844 66.7173 90.1908 67.3023 90.6822C67.9117 91.1561 68.4863 91.6672 69.004 92.219C69.654 92.4918 70.1019 93.0321 70.5347 93.62C67.0092 90.3755 63.3658 88.3585 59.823 87.2041C60.2555 87.2759 60.6857 87.3617 61.1217 87.4556M69.22 97.3512L69.1258 97.3571L66.269 96.4743C67.9549 96.8545 70.3558 97.461 69.2258 97.3594M43.2202 86.6985C43.8688 86.5051 44.5243 86.3559 45.1962 86.2811C44.5011 86.4094 43.8479 86.5447 43.2202 86.6985ZM34.0595 89.6361L34.5149 89.3103L34.5848 89.4079L34.0595 89.6361ZM32.6674 86.9679C32.6674 86.9679 32.6662 86.8458 32.6243 86.7529L32.4535 86.875C32.451 86.6309 32.4348 86.7286 32.4719 86.5914C32.0951 86.2708 32.2088 86.0173 31.9959 85.7024C31.9959 85.7024 31.9936 85.7163 31.9773 85.728C31.6425 85.7584 31.4575 85.4482 31.3168 85.3029L31.3178 85.1669C31.3514 84.9216 30.6052 85.1848 30.9504 84.9626C30.5143 84.6966 30.0712 84.3865 29.6246 84.0543C29.2268 83.7733 28.8512 83.4887 28.4476 83.1995C28.2628 83.2333 28.2022 82.9939 27.9093 83.1173C28.0534 83.0265 28.1208 82.966 28.1777 82.9253C28.3684 82.8996 28.4346 82.8891 28.4671 82.8659C28.4927 82.8844 28.5323 82.9053 28.5323 82.9053C29.0555 83.1212 28.2147 82.6161 28.96 82.833C28.904 82.4796 29.9654 82.5197 30.0731 82C30.1824 82.0324 30.229 82.0975 30.2337 82.1556C31.1692 81.7447 32.2291 81.3185 33.0356 80.9507C33.5456 80.3401 34.7115 80.2684 35.0598 79.5521C35.5677 79.3856 36.408 79.1165 36.9738 78.6012L36.9378 78.6884C37.6594 78.2706 38.5274 77.662 38.8851 77.148C39.3142 77.3698 39.5803 77.1057 39.9522 77.0241C40.3402 76.5868 41.3035 76.0084 41.9099 75.378C42.132 75.465 42.4386 74.9138 42.634 75.1183C44.3185 73.3479 46.7598 71.7247 48.9746 70.3865C49.1267 70.0318 49.2008 69.5854 49.325 69.2261C49.3668 69.233 49.3982 69.2598 49.339 69.3144C49.6549 68.9655 50.1489 68.8826 50.4591 68.5256C50.4591 68.5256 50.4603 68.5616 50.4627 68.6337C50.7054 68.2511 51.2808 68.1961 51.5164 67.6833L51.5955 67.7251L51.7662 67.4308C51.815 67.482 51.8732 67.5633 51.8314 67.6424C54.2375 65.4542 56.3039 62.8083 58.3238 60.1833C58.7872 59.5936 59.2367 59.0016 59.7002 58.412L59.6782 58.5875L60.0207 57.8631C60.0207 57.8631 60.0591 57.934 60.0463 57.9677C60.7747 57.25 61.1914 56.2512 61.7419 55.4394C61.7733 55.4661 61.7653 55.644 61.8873 55.5567C62.0821 54.8149 62.7959 54.7471 62.5711 54.1578C62.6095 54.1427 62.7223 54.1972 62.7165 54.2751C63.585 52.5843 64.5534 50.8958 65.4998 49.2108C65.5683 49.1003 65.6333 48.9677 65.6937 48.8631C65.8699 48.0609 66.2077 47.2783 66.5536 46.4899C66.4136 47.549 66.1353 48.621 65.8174 49.6721C65.5588 50.5825 65.2385 51.4755 64.9659 52.3835C64.6072 53.2916 64.5519 53.9706 64.1653 54.8741L64.0456 54.8613C63.9427 55.6972 63.513 56.4717 63.0974 57.2485C62.6282 58.0021 62.1532 58.7475 61.9934 59.6242L61.9014 59.444C61.9958 59.7822 61.459 60.2522 61.7114 60.416C61.6963 60.4636 61.6673 60.509 61.6464 60.5485L61.5081 60.6474C61.5081 60.7335 61.4849 60.787 61.4757 60.8428C61.1529 61.4056 60.844 61.9708 60.5037 62.5092C60.4189 62.6313 60.3202 62.7511 60.2389 62.8953C60.1065 63.0884 59.9695 63.3093 59.8697 63.5651C59.8465 63.6186 59.7954 63.6675 59.764 63.7268L59.75 63.6384C59.7094 63.7536 59.6548 63.8663 59.6026 63.9652C59.476 64.1664 59.3517 64.3536 59.2193 64.5467C59.1949 64.5641 59.1926 64.5781 59.1682 64.5955C59.1833 64.5479 59.1391 64.5549 59.1751 64.4677C58.2131 65.2541 57.7733 66.5645 56.9788 67.5508L56.9159 67.3253C56.7256 67.9531 55.8845 68.7023 55.4094 69.3617L55.3699 69.2548L55.205 69.6432L55.0655 69.534C54.3696 70.3145 53.8505 71.1529 53.1279 71.8788L53.0593 71.7312C52.5797 72.5906 51.6699 73.1921 51.0007 73.9412L51.017 73.8435C49.653 75.065 48.4169 76.2934 47.1134 77.4962C42.9445 80.8468 38.1501 83.9931 32.636 86.9412M30.4322 85.493C30.6484 85.4859 30.8472 85.4543 30.8392 85.6322L30.9449 85.5566C31.2624 85.7598 30.8997 85.6996 31.1009 85.9122C31.1974 85.9784 31.2624 85.7598 31.402 85.955C31.3126 86.105 31.3766 86.1945 31.4766 86.2828L30.4322 85.493ZM47.9886 69.9361C47.259 70.7037 46.5236 71.4633 45.6857 71.8044C45.645 71.8335 45.5986 71.8545 45.5498 71.8894C46.3724 71.2518 47.1892 70.6061 47.9804 69.9419M52.1316 66.2228C51.6042 66.809 51.0361 67.3383 50.4273 67.8107C51.0012 67.2895 51.5751 66.7684 52.1316 66.2228ZM28.8048 81.9112C28.4853 82.1521 28.1959 82.2976 27.8972 82.4129L27.3673 82.5829L27.0569 82.6819C26.9663 82.7099 26.8094 82.7483 26.8385 82.789L26.7733 82.7495C30.9711 80.952 34.8862 78.914 38.5582 76.6565C38.1283 77.0009 37.7007 77.3313 37.2626 77.6814C34.3771 79.0445 31.8454 81.1258 28.8048 81.9112ZM55.391 58.5926C55.3515 58.6577 55.3085 58.7007 55.2632 58.7577C54.9473 59.1067 54.6592 59.4602 54.363 59.8196C54.7103 59.4114 55.0576 59.0031 55.391 58.5926ZM56.3225 57.3853C56.7326 56.8585 57.1426 56.3316 57.5526 55.8047C57.16 56.356 56.7617 56.8991 56.34 57.4097C56.0473 57.7912 55.7569 58.1587 55.4526 58.5239C55.7453 58.1425 56.024 57.7587 56.3225 57.3853ZM28.1427 78.9915C28.1427 78.9915 28.0787 78.9881 28.0567 78.9916C28.0706 78.9939 28.1066 78.9927 28.1369 78.9834C28.0287 78.9009 28.0275 78.7789 28.0076 78.6824C27.8577 78.679 28.0018 78.5882 27.7321 78.6582C28.0459 78.5812 28.1098 78.4987 28.1028 78.4545C28.133 78.4452 28.1528 78.4556 28.1586 78.4637C28.2249 78.4532 28.2493 78.4358 28.2737 78.4183C28.2585 78.38 27.89 78.3977 28.262 78.3161C27.911 78.3581 28.3584 78.2102 27.9399 78.2267C28.0283 78.2127 28.0887 78.1941 28.1526 78.1975C28.1899 78.2324 28.255 78.2719 28.3097 78.3311L28.5099 78.8518C28.3867 78.903 28.2694 78.9624 28.1543 79.0078M27.1814 77.3554C27.2524 77.403 27.3152 77.4564 27.3884 77.4901C27.1806 77.8355 27.8538 78.0548 27.3995 78.4166C27.5623 78.4723 27.474 78.5723 27.352 78.6596L27.1896 77.3496L27.1814 77.3554ZM27.0682 76.5266L27.0308 76.2337C27.1691 76.3068 27.311 76.4021 27.0844 76.515L27.06 76.5324L27.0682 76.5266ZM26.9549 75.6978C27.0014 75.7629 27.0119 75.8291 26.9899 75.9187L26.9549 75.6978ZM27.7754 77.2748L27.7987 77.3073C27.7987 77.3073 27.751 77.2922 27.7173 77.2795L27.7754 77.2748ZM29.1574 71.3685C29.0479 71.078 28.9815 70.8304 28.7943 70.8782L28.8326 70.691C28.6303 70.6144 28.4195 70.0275 28.2902 69.5544C28.1515 69.0512 28.014 68.4979 27.8091 68.0052C27.6949 67.5705 27.4843 67.3277 27.3318 66.9081L27.4468 66.8627C26.7676 66.2912 27.2819 65.2225 26.5526 64.6499L26.7189 64.6417C26.4573 64.6197 26.6 64.2349 26.3095 64.3443L26.2932 64.2699L26.3291 64.1827C26.3291 64.1827 26.264 64.1432 26.2384 64.1247L25.9427 63.3158C25.939 63.1216 25.8889 62.9485 25.7528 62.7753L25.7249 62.6847L25.7888 62.6881C25.7399 62.637 25.705 62.5882 25.6643 62.5313L25.5956 62.2977C25.5956 62.2977 25.5665 62.257 25.5793 62.2233C25.6049 62.2418 25.6176 62.2081 25.6607 62.2511C25.8474 61.6012 25.2287 61.1831 25.0412 60.6287L25.2493 60.6274C24.9492 60.4486 24.964 59.8847 24.7429 59.5757L24.8371 59.5698L24.6522 59.4316L24.8195 59.3734C24.6658 58.9178 24.3703 58.539 24.1898 58.1148L24.3502 58.0984C23.935 57.7929 24.044 57.2233 23.7647 56.8328L23.8345 56.8444C23.5829 56.0285 23.2046 55.3278 22.8089 54.6027L20.9888 49.5482C21.0515 49.5156 21.1317 49.5074 21.212 49.5853C21.2596 49.5143 21.2048 49.283 20.9654 49.3436C20.9514 49.3413 20.9235 49.3367 20.9154 49.3425L20.7628 48.9229C20.9787 48.3997 21.2248 47.8671 21.4849 47.3369L21.5418 47.2961C21.4559 47.4682 21.5093 47.4054 21.4327 47.5217C21.5688 47.6948 21.4097 47.9193 21.4412 48.1181C21.4412 48.1181 21.4435 48.1041 21.4598 48.0925C21.7039 48.004 21.7075 48.1981 21.7436 48.2829L21.7111 48.3922C21.5926 48.5876 22.1923 48.2571 21.8751 48.484C22.2716 48.729 22.6415 49.0915 22.9998 49.4377C23.159 49.3852 23.2511 49.7374 23.3892 49.4665C23.236 49.7851 23.4245 50.1174 23.5385 50.208C23.5001 50.2232 23.4839 50.2348 23.4664 50.2104C23.3493 50.6999 23.9767 50.2019 23.769 50.7194C24.0537 50.5158 23.9855 51.1424 24.3934 50.9736C24.3516 51.0526 24.3086 51.0957 24.2517 51.1364C24.5483 51.4652 24.7311 51.9615 24.9522 52.2705C25.4126 52.347 25.3304 52.9713 25.8489 52.957C25.9235 53.1987 25.9621 53.6137 26.2784 53.7809L26.2203 53.7856C26.4378 54.0726 26.7054 54.4467 27.074 54.5151C26.7789 54.8245 26.9231 54.9058 26.8802 55.1209C27.1616 55.2393 27.3433 55.6995 27.6677 55.9469C27.5307 56.0818 27.8923 56.192 27.6552 56.3247C28.5856 57.0239 28.934 58.3361 28.8674 59.5149C29.0534 59.6032 29.408 59.6692 29.6301 59.7562C29.6115 59.7818 29.5836 59.7772 29.572 59.7609C29.6477 59.9527 29.4479 60.2062 29.5398 60.3864C29.5398 60.3864 29.5026 60.3802 29.4282 60.3678C29.6027 60.5258 29.3122 60.8073 29.5727 60.9653L29.5077 61.0118L29.6333 61.1187C29.5589 61.135 29.4566 61.1467 29.4333 61.1141C29.6832 62.8042 30.2853 64.5743 30.0865 66.3763L30.0039 66.3124L30.1157 66.675C30.1157 66.675 30.0541 66.6576 30.0367 66.6332C29.8509 67.0611 30.0558 67.5539 29.9422 67.9794C29.8945 67.9643 29.8201 67.8946 29.755 67.9412C29.9587 68.3119 29.3566 68.3983 29.8392 68.6432C29.8148 68.6607 29.695 68.648 29.6659 68.6073C29.6591 68.8212 29.6349 69.0967 29.621 69.2665C29.6164 69.3804 29.5956 69.506 29.5747 69.6315C29.511 69.8861 29.4321 70.1024 29.3415 70.2164C29.3696 70.5651 29.3349 70.8604 29.306 71.0778C29.27 71.251 29.2179 71.608 29.1701 71.3348M22.0407 60.3528L22.1902 61.5244C22.0226 61.1525 21.8433 60.7644 22.0233 60.4144C22.0419 60.3888 22.0383 60.3667 22.0407 60.3528ZM20.9333 51.9976L21.6178 57.1144C21.5282 56.9203 21.4327 56.7181 21.3431 56.524C21.4272 55.2836 20.6406 54.1495 20.9827 52.9089C20.7768 52.6382 20.8417 52.3336 20.9333 51.9976ZM22.3431 69.886L22.4163 69.8337C21.679 69.2669 21.5249 68.2951 21.0745 67.5107C20.9685 67.1562 20.7406 66.975 20.5904 66.6276L20.7054 66.5822C20.0449 66.1571 20.5744 65.2128 19.9289 64.7401L20.087 64.7377C19.8312 64.7239 20.0089 64.3878 19.723 64.4694C19.7171 64.4613 19.7055 64.445 19.702 64.4229L19.7438 64.3438C19.7438 64.3438 19.6985 64.3148 19.6589 64.2939C19.596 64.0684 19.5296 63.8208 19.4748 63.5896C19.4863 63.4338 19.47 63.2734 19.3571 63.1328C19.3478 63.1026 19.3524 63.0747 19.335 63.0503L19.3989 63.0537C19.3617 63.0189 19.3407 62.9724 19.3 62.9154C19.2837 62.841 19.2871 62.7771 19.2685 62.7167C19.2708 62.7027 19.2534 62.6783 19.2719 62.6527C19.2778 62.6609 19.3138 62.6597 19.3452 62.6864C19.6552 62.1573 19.1144 61.7449 19.0595 61.2556L19.2548 61.288C19.0094 61.0824 19.1637 60.6278 19.0345 60.3268L19.1321 60.343L18.9833 60.2036L19.1599 60.1756C19.1248 59.7827 18.9851 59.4154 18.9279 59.026L19.1034 59.048C18.7975 58.689 19.0669 58.275 18.9655 57.8926L19.019 57.9158C19.0848 57.2171 19.0019 56.5511 18.9596 55.8559C19.1399 54.2516 19.5004 52.5553 20.0944 50.7903C20.1644 51.0599 20.2099 51.347 20.2473 51.64C20.3961 51.6933 20.2777 51.9747 20.5427 51.8467C20.2452 51.998 20.1977 52.327 20.235 52.4479C20.1931 52.4409 20.171 52.4444 20.1734 52.4305C19.7969 52.7121 20.5885 52.6499 20.1179 52.9374C20.4724 52.9174 20.0565 53.3501 20.4913 53.4079C20.4204 53.4463 20.3542 53.4568 20.2821 53.4592C20.3231 53.8602 20.2513 54.2927 20.2817 54.6275C20.6201 54.8772 20.2275 55.3425 20.6938 55.5131C20.6288 55.7316 20.493 56.0747 20.7071 56.3396L20.6455 56.3222C20.7084 56.6337 20.7796 57.0254 21.0854 57.2123C20.674 57.3591 20.7892 57.4857 20.6637 57.6369C20.8894 57.8321 20.8896 58.2622 21.0991 58.555C20.9213 58.633 21.2155 58.8037 20.9482 58.8597C21.5915 59.6904 21.5655 60.8401 21.2825 61.854C21.4604 61.948 21.7941 62.0536 21.9918 62.1581C21.9674 62.1756 21.9453 62.1791 21.9279 62.1547C21.9861 62.322 21.7479 62.5047 21.8259 62.6825C21.8259 62.6825 21.7934 62.6771 21.7283 62.6663C21.8748 62.8196 21.546 63.0303 21.7902 63.1998L21.7414 63.2347L21.8473 63.3311C21.7752 63.3335 21.6648 63.351 21.6357 63.3103C21.7692 64.8378 22.4478 66.3195 22.5627 67.8725L22.4778 67.8226L22.6756 68.0991C22.6291 68.1201 22.6036 68.1015 22.5698 68.0887C22.4748 68.4887 22.7807 68.8477 22.7903 69.222C22.7519 69.2371 22.6589 69.193 22.5996 69.2477C22.8823 69.4881 22.3547 69.7303 22.843 69.8113C22.7965 69.8323 22.7221 69.8486 22.6907 69.8219C22.757 69.9834 22.7734 70.1438 22.8177 70.3089C22.6955 70.1381 22.5606 70.001 22.3571 69.8884M20.6475 50.3087L20.6416 50.3005C20.6416 50.3005 20.6823 50.2715 20.7067 50.254L20.723 50.3284C20.723 50.3284 20.6672 50.3191 20.6533 50.3168M20.574 49.9309C20.6484 49.9146 20.6611 49.8809 20.6623 49.8309L20.7031 50.0599C20.6543 50.0088 20.6031 49.9716 20.574 49.9309ZM22.4292 47.9524C22.27 48.0048 22.1328 48.0537 22.206 47.9153L22.1003 47.9909C21.9444 47.8934 22.185 47.8688 22.1222 47.7294C22.0745 47.7143 21.9444 47.8934 21.9292 47.769C22.0384 47.6294 22.0337 47.5713 21.9988 47.5225C22.1477 47.6619 22.2826 47.799 22.4234 47.9442M27.5586 54.23C27.3666 54.0476 27.1747 53.8652 26.9805 53.6968C26.6999 53.0123 26.2101 52.465 25.7157 51.9457C25.2353 51.4287 24.7897 50.8745 24.4906 50.2156C24.1394 50.0856 23.9892 49.7381 23.8355 49.3685C25.3687 51.0136 26.6043 52.638 27.5504 54.2358M29.6912 58.9994C29.4364 58.5916 29.1455 58.1849 29.2429 57.771C29.2452 57.757 29.2336 57.7408 29.2498 57.7291C29.4082 58.1568 29.5608 58.5764 29.6912 58.9994ZM72.5867 29.7941C72.4218 30.0104 72.265 30.2209 72.1058 30.3594C72.2557 30.1907 72.4101 29.9942 72.5867 29.7941ZM72.9352 29.3359C73.4857 28.6101 74.0885 27.6995 74.6388 26.6297C74.5775 27.0424 74.5149 27.4191 74.2674 27.5715L74.3094 27.7505C73.8368 28.5681 74.1269 27.7704 73.6936 28.3508C73.5601 28.5938 73.8426 28.5762 73.4406 29.0112C73.2999 28.952 73.1303 29.1102 72.927 29.3417M69.4259 31.5631L69.4399 31.5654L69.434 31.5573L69.4259 31.5631ZM69.427 31.5131L69.441 31.5154L69.4352 31.5073L69.427 31.5131ZM71.6789 24.4682C71.6729 24.03 71.6947 23.5963 71.6376 23.379C71.6502 23.0872 71.5304 23.0745 71.4965 22.8037L71.6034 22.678C71.3814 22.677 71.4439 22.3003 71.5031 22.0736C71.5843 21.8434 71.6411 21.5446 71.3701 21.3204L71.5375 21.3482C71.3026 21.2949 71.5117 21.0716 71.2351 21.0973L71.2362 21.0473L71.3013 21.0008C71.3013 21.0008 71.2524 20.9497 71.2245 20.945L71.1753 20.3778C71.2078 20.2685 71.2228 20.1348 71.1414 20.0209L71.1367 19.9628L71.1925 19.9721C71.1634 19.9314 71.1401 19.8989 71.125 19.8605L71.1086 19.7001C71.1086 19.7001 71.0993 19.6699 71.1179 19.6443C71.1353 19.6687 71.1597 19.6512 71.1912 19.678C71.5443 19.2778 71.0721 18.9271 71.0463 18.5644L71.2358 18.5887C70.9974 18.4273 71.1553 18.0807 71.0284 17.8518L71.1342 17.8622L70.9946 17.753L71.1713 17.725C71.1583 17.4146 70.9664 17.1462 70.9232 16.8452L71.0812 16.8427C70.7568 16.5953 71.0227 16.2453 70.8749 15.9699L70.9307 15.9791C70.9071 15.4304 70.7301 14.9423 70.5578 14.4263L70.0373 9.40123C70.1676 9.56622 70.2874 9.75098 70.4073 9.93574C70.5619 9.91123 70.5341 10.1647 70.7409 9.95529C70.5097 10.1821 70.5599 10.4413 70.6204 10.5087C70.5902 10.518 70.5739 10.5297 70.5623 10.5134C70.2823 10.8611 70.9924 10.5131 70.6276 10.897C70.953 10.7503 70.6545 11.2097 71.0753 11.0931C71.016 11.1478 70.951 11.1944 70.8905 11.213C71.0186 11.478 71.063 11.815 71.1538 12.0452C71.5165 12.1054 71.218 12.5647 71.6923 12.5575C71.6564 12.7307 71.588 13.0132 71.8392 13.1409L71.781 13.1456C71.8765 13.3478 71.9964 13.6186 72.3091 13.6777C71.9384 13.8814 72.0547 13.958 71.9618 14.086C72.1979 14.1753 72.2469 14.4845 72.4667 14.6715C72.3028 14.7518 72.6028 14.8446 72.339 14.9227C73.0356 15.4326 73.0292 16.3347 72.7124 17.0777C72.8786 17.1555 73.1995 17.2087 73.4018 17.2853C73.3774 17.3028 73.3553 17.3063 73.3379 17.2819C73.3949 17.4132 73.1358 17.5494 73.2068 17.683C73.2068 17.683 73.1742 17.6776 73.1091 17.6668C73.2406 17.7818 72.8931 17.932 73.1222 18.0632L73.0478 18.0795L73.1478 18.1678C73.0676 18.176 72.9758 18.1679 72.9583 18.1435C72.9276 19.2351 73.3108 20.4241 72.9953 21.5472L72.9186 21.4915L73.0187 21.7518C73.0187 21.7518 72.9455 21.7182 72.9396 21.71C72.6969 22.0066 72.9295 22.1599 72.8494 22.3401C72.8121 22.3053 72.7423 22.2077 72.6947 22.1926C72.8181 22.4855 72.5365 22.109 72.6506 22.3717C72.6985 22.8169 72.5024 23.2645 72.3803 23.2658C72.3366 24.047 72.2345 24.3167 72.1311 24.4644C72.0893 24.5435 72.0475 24.6226 71.9918 24.7854C71.9303 24.94 71.8886 25.1051 71.8224 25.2877L71.8745 24.9308C71.7446 25.2819 71.7199 24.8692 71.7092 24.4589M68.1301 17.3921L68.0526 18.0746C67.9583 17.8224 67.8477 17.5818 68.1092 17.4317C68.1115 17.4177 68.1278 17.4061 68.1359 17.4003M66.9963 22.4078C66.9357 22.0823 66.9878 21.7254 66.8888 21.4151C66.8979 21.1872 66.7665 21.0722 66.7396 20.8456L66.85 20.8281C66.3593 20.5029 67.168 20.0351 66.6656 19.6936L66.8214 19.7051C66.5982 19.6681 66.8259 19.5052 66.5656 19.5193C66.5679 19.5053 66.5725 19.4774 66.5667 19.4693L66.6236 19.4286C66.6236 19.4286 66.5922 19.4019 66.5701 19.4054C66.5677 19.2473 66.5653 19.0892 66.5687 18.9392C66.5942 18.8718 66.6139 18.7962 66.5697 18.7172C66.572 18.7032 66.5604 18.687 66.565 18.6591L66.6208 18.6683L66.5685 18.5951C66.5685 18.5951 66.5789 18.4893 66.5719 18.4452C66.58 18.4394 66.5742 18.4312 66.5742 18.4312C66.5881 18.4335 66.6242 18.4323 66.6474 18.4649C67.0472 18.2159 66.6401 17.9046 66.6864 17.6255L66.8655 17.6696C66.655 17.5128 66.8838 17.2999 66.8221 17.1105L66.9116 17.1325L66.7976 17.0419L66.9732 17.0639C67.0184 16.8349 66.8938 16.592 66.9228 16.3746L67.0658 16.4198C66.8355 16.1665 67.1678 15.978 67.0828 15.756L67.1363 15.7793C67.2848 15.4025 67.2579 15.0038 67.253 14.6016C67.3342 14.3714 67.4212 14.1493 67.5083 13.9272C67.8002 14.1118 67.326 14.2912 67.7376 14.4885C67.6412 14.5944 67.4414 14.7619 67.5973 14.9455L67.5496 14.9304C67.5497 15.1024 67.544 15.3524 67.7987 15.5022C67.3884 15.5129 67.4466 15.5942 67.3152 15.6513C67.5002 15.7895 67.4108 16.0255 67.562 16.237C67.3737 16.2487 67.6284 16.3985 67.3448 16.3801C67.8276 16.9692 67.5676 17.5855 67.0959 18.0949C67.2599 18.1867 67.5575 18.2934 67.7355 18.3875C67.7052 18.3968 67.6715 18.384 67.6738 18.3701C67.7111 18.4909 67.4298 18.5446 67.4671 18.6655C67.4671 18.6655 67.44 18.6562 67.3857 18.6376C67.4613 18.7434 67.1417 18.8122 67.3371 18.9306L67.2569 18.9388L67.3592 19.0131C67.279 19.0213 67.1755 18.997 67.1639 18.9807C66.9866 19.8329 67.3475 20.7673 67.1854 21.6579L67.1063 21.6161L67.2401 21.8031C67.2401 21.8031 67.1703 21.7916 67.1366 21.7788C66.9659 21.987 67.202 22.2484 67.1394 22.453C67.0975 22.4461 67.0417 22.4368 66.9998 22.4299M68.6664 12.607L68.3416 15.5565C68.2985 15.4274 68.2415 15.2961 68.1984 15.1671C68.5235 14.5043 67.9708 13.7316 68.5389 13.1163C68.3911 12.9269 68.5189 12.7617 68.6664 12.607ZM67.9426 13.2969C67.8624 13.305 67.8148 13.29 67.7369 13.2842C67.7636 13.2528 67.7543 13.2226 67.781 13.1912C67.7961 13.2295 67.8275 13.2562 67.9426 13.2969ZM68.1467 12.4132C68.1467 12.4132 68.2002 12.4365 68.2862 12.4364C68.2222 12.433 68.1595 12.4655 68.1014 12.4702C68.1258 12.4528 68.1281 12.4388 68.1327 12.4109M68.5971 11.5132C68.5971 11.5132 68.6041 11.4713 68.6122 11.4655C68.6622 11.4667 68.6983 11.4655 68.7168 11.4399C68.711 11.4318 68.6692 11.4248 68.6354 11.412C68.6378 11.3981 68.654 11.3865 68.6505 11.3644C68.7447 11.3585 68.7889 11.3515 68.7854 11.3294L68.7448 11.6166C68.6518 11.5725 68.5483 11.5481 68.5669 11.5225C68.5669 11.5225 68.577 11.5194 68.5971 11.5132ZM63.6114 17.1939C63.911 14.8281 64.6349 12.5399 65.7345 10.4502C65.9829 9.90366 66.2708 9.37804 66.5937 8.90122L67.5576 7.41264L68.653 6.03906L69.1594 5.40635C69.1919 5.29706 69.3395 5.22838 69.4719 5.12135L69.4257 5.4864C64.413 10.9404 63.3586 16.342 63.7578 20.7161C63.6059 19.5584 63.5343 18.3925 63.5893 17.1974M70.3508 8.80817C70.3508 8.80817 70.3938 8.76513 70.4065 8.73141L70.4472 8.78835C70.4472 8.78835 70.3729 8.80467 70.3508 8.80817ZM70.4822 8.83715L70.4798 8.8511L70.5555 8.95684C70.5148 8.98592 70.4415 8.86624 70.3508 8.89419C70.3439 8.93605 70.5357 9.03241 70.4311 9.05805C70.2916 8.94887 70.2474 8.95587 70.2149 8.97914C70.266 8.93028 70.2892 8.87679 70.3322 8.83376L70.4822 8.83715ZM72.7915 13.4926C72.6844 13.3601 72.5611 13.2393 72.4541 13.1068C72.3361 12.1339 71.3848 11.5603 71.3818 10.5419C71.1504 10.4247 71.134 10.1782 71.1164 9.89576C71.8425 11.1345 72.3815 12.335 72.7856 13.4844M73.5945 16.8156C73.4351 16.5239 73.2512 16.2497 73.4359 15.9578C73.444 15.952 73.4544 15.9322 73.4509 15.9101C73.5139 16.2216 73.5653 16.5168 73.6026 16.8098M69.6868 4.82013C70.0237 4.43165 70.364 4.06526 70.6986 3.69073C71.7318 5.06644 72.3507 5.91466 72.9919 7.01744C73.6808 8.04929 74.1814 9.1789 74.6843 10.2946C75.1486 11.0813 75.4944 11.9773 75.81 12.8827C76.0187 13.8276 76.3076 14.7644 76.3547 15.7757C75.8414 12.8234 74.5873 9.54017 72.0509 5.9939L71.7076 5.51401L70.6687 4.13016L69.5999 5.30029L69.5719 5.03759C69.6195 4.96665 69.6566 4.91547 69.6845 4.83408M76.4605 100.152C76.6196 99.9273 76.6672 99.8563 76.9159 99.7399C76.6032 99.6808 76.3753 99.5856 76.0032 99.4952C75.9649 99.5103 75.9486 99.522 75.9242 99.5394L75.8776 99.4744C75.8776 99.4744 75.9404 99.4418 75.9683 99.4464C75.902 99.4569 75.8741 99.4523 75.8404 99.4395L75.3274 98.8598C75.4308 98.7981 75.4808 98.7132 75.4492 98.5144L75.254 98.568C75.3248 98.3576 75.269 98.4343 75.3515 98.3262C75.0583 97.9334 75.2314 97.7113 75.1009 97.3743L75.0765 97.3917C74.7394 97.3501 74.6392 97.0037 74.531 96.8352L74.5658 96.712C74.6551 96.4759 73.8729 96.5683 74.2599 96.439C73.8958 96.0847 73.5305 95.6943 73.1699 95.276C72.8035 94.8497 72.3696 94.4837 71.966 94.1085C71.7521 94.1017 71.3576 93.4986 71.3393 93.8683C71.3588 93.4486 70.805 92.8119 70.5654 92.6145C70.598 92.5912 70.6224 92.5737 70.6456 92.6063C70.4859 91.8845 69.8876 92.4231 69.7662 91.6861C69.463 91.9154 69.0183 90.967 68.5069 91.1115C68.4952 91.0092 68.5231 90.9278 68.5777 90.9011C68.1787 90.584 67.7647 90.2285 67.3762 89.8916C66.9529 89.592 66.5412 89.3086 66.1644 89.074C65.3564 88.9757 64.7025 87.9927 63.9132 88.1269C63.4818 87.833 62.7653 87.3127 62.0224 87.1679L62.105 87.1457C61.3549 86.7847 60.3341 86.5435 59.7122 86.6195C59.6108 86.1511 59.2434 86.1187 58.9387 85.8818C58.361 85.8647 57.2658 85.6399 56.4102 85.6125C56.3147 85.4103 55.7115 85.5467 55.7136 85.2747C53.2888 85.4599 50.4638 85.1199 47.8807 84.9635C47.5541 85.1601 47.2579 85.5195 46.9547 85.7487C46.9291 85.7301 46.9256 85.708 46.95 85.6906C46.5281 85.7711 46.0804 85.5749 45.6399 85.681C45.6399 85.681 45.6573 85.648 45.6921 85.5821C45.2958 85.7672 44.7749 85.5374 44.324 85.8352L44.2775 85.7702L43.9858 85.9296C43.9811 85.8715 43.9613 85.775 44.0182 85.7343C42.4072 86.0259 40.8173 86.5361 39.2937 87.2078C38.8997 87.379 38.5035 87.564 38.1234 87.7375L36.8811 88.3556L35.2599 89.0971C36.1919 88.578 37.096 88.0543 37.9699 87.54C39.0238 86.8476 40.0917 86.1576 41.1537 85.4594L41.1213 85.6548C42.0799 84.9323 43.1222 84.2236 44.1889 83.4976C45.2439 82.7553 46.3769 82.1047 47.3226 81.2439L47.2251 81.3997C50.7144 78.818 53.7432 75.9877 56.4834 72.8229C58.6267 70.4908 60.5282 68.0612 62.1622 65.5155C64.738 61.5707 66.7139 57.3543 68.1362 52.8453C70.1131 46.5504 70.9876 39.6425 70.8491 32.0574C70.9397 32.0294 71.0432 31.9678 71.2198 31.8537L71.194 31.5771C71.5706 31.4676 71.4346 31.4665 71.6183 31.4826C72.471 30.5777 72.7965 30.6031 73.4715 29.9482L73.4656 29.94C73.6722 29.3005 74.253 28.6515 74.5364 28.2398L74.749 28.1246C75.0988 27.9605 75.0689 26.6294 75.2192 27.149C76.3848 24.7907 77.2165 21.8108 77.253 18.8708C77.1004 18.4513 77.1458 16.6238 76.9009 17.2785C77.2038 16.5331 76.8955 14.3316 76.5986 13.5727C76.6463 13.5878 76.6835 13.6226 76.7127 13.7493C76.7127 12.0649 75.7595 12.1073 75.7109 10.5438C75.3063 10.4767 74.6305 8.07077 73.8049 7.60398C73.7792 7.41335 73.8094 7.31801 73.8908 7.34586C73.4835 6.69048 73.0564 6.02465 72.641 5.37509C71.972 4.43972 71.3204 3.52875 70.7352 2.6933C70.0033 3.47495 69.3435 4.1682 68.8579 4.67535C68.6638 4.851 68.464 5.01853 68.4524 5.08828L68.4582 5.09642C68.5826 4.9952 68.3143 5.35923 68.19 5.54647C68.0332 5.75697 67.8683 5.9733 67.7033 6.18962C67.3734 6.62227 66.9622 7.02708 66.6591 7.51435C66.0157 8.45403 65.3653 9.34955 65.2158 10.2064C64.4598 11.3496 63.4509 13.4113 63.2313 15.3388L63.2358 15.1389C62.7512 17.2805 62.8088 20.0425 63.2688 21.4592C62.9612 22.1465 63.1722 23.0775 63.303 24.0167C63.8142 25.3846 64.7878 28.1553 66.1502 29.9226C66.1772 30.3213 67.2275 31.3773 67.0173 31.5646C67.0312 31.5669 67.0905 31.5983 67.0963 31.6064C67.094 31.6203 67.1115 31.6447 67.0779 31.8901C67.0316 32.2551 66.9749 32.6399 66.9205 33.0108C66.7931 33.7781 66.6995 34.5582 66.5256 35.3464C66.1325 36.894 65.7755 38.5263 65.1662 40.0809C64.5536 41.9575 63.7305 43.7634 62.8435 45.4798C62.2142 46.6798 61.55 47.8311 60.9032 48.9208C60.6398 49.687 60.4567 50.6171 60.2107 51.4077C60.1596 51.4566 60.1317 51.452 60.1491 51.3903C59.6208 52.3706 58.8064 53.0884 58.2408 54.0339C58.216 54.0106 58.223 53.9401 58.2616 53.8223C57.7775 54.7956 56.8387 55.5285 56.2151 56.6507L56.121 56.6566L55.977 56.9194L55.7169 57.3636C55.6622 57.3044 55.5761 57.2184 55.7515 56.9823C49.7068 64.6376 41.9062 71.3849 32.9768 76.1241C33.0686 76.0462 33.1627 75.9543 33.2626 75.8705C32.7106 76.2161 32.0738 76.5978 31.8356 76.7805C31.853 76.7189 31.9042 76.67 31.9413 76.6188C31.6531 76.7143 31.4346 76.8214 31.1615 76.9553L30.9651 77.0589C30.9024 77.0915 30.7804 77.1787 30.8547 77.0764L31.0288 76.7182C31.1484 76.4729 31.2749 76.1856 31.398 75.8764C31.6209 75.3973 31.8959 74.7333 32.1246 74.1764C32.156 74.2031 32.0935 74.5797 32.2804 74.2739C32.7234 72.4695 33.533 71.5215 33.2603 70.4871C33.3021 70.408 33.4288 70.3789 33.4243 70.5788C34.4394 65.5005 33.964 59.9883 31.8231 55.2247C29.6632 51.4829 26.9254 47.4659 23.3305 44.8119L23.4037 44.7596C22.5453 44.058 21.6788 43.3622 20.6961 42.5898C20.0679 43.7399 19.5431 44.7423 18.9986 45.8202C18.4168 46.8633 18.0211 47.9947 17.5301 49.0959C16.6911 51.3435 16.1032 53.7188 15.9129 56.1171C15.6552 58.5759 15.869 60.2672 16.296 62.7034L16.1903 62.7791C16.7949 64.7933 17.3856 66.8911 18.2692 68.9517C19.1354 70.9878 20.291 72.9644 21.8648 74.4944L21.5497 74.3632C22.1137 74.7221 23.0807 76.1943 23.3095 75.9814C23.4096 76.0697 23.4933 76.1697 23.5933 76.2579L23.8028 76.5507C23.9168 76.6413 24.0249 76.7238 24.1412 76.8005C24.3331 76.9829 24.4937 77.1385 24.6367 77.2698L27.0153 79.3921C26.9572 79.3968 26.913 79.4038 26.8572 79.3946C26.8108 79.4155 26.8457 79.4643 27.0642 79.4432L27.1584 79.5234C26.9562 79.6189 26.7563 79.7004 26.5622 79.79L26.3507 79.8552C26.0137 79.9856 25.6604 80.1277 25.2873 80.2593C24.698 80.484 24.1054 80.7727 23.4639 81.0962C23.4499 81.0939 23.4255 81.1114 23.4058 81.1009L23.0827 81.2337L23.1791 81.1278C22.8979 81.2675 22.6248 81.4013 22.3459 81.5271L21.0198 82.0452L21.2733 82.245C21.2733 82.245 21.3047 82.2717 21.3164 82.288C21.2234 82.2439 21.1931 82.2532 20.9722 82.1162C21.2048 82.3555 21.5107 82.6285 21.8504 82.9142C22.1807 83.1698 22.5063 83.4532 22.8425 83.7169C23.4635 84.207 24.1113 84.6658 24.7649 85.1327C26.0803 86.0607 27.4584 86.9561 28.711 87.9167L28.3227 87.8379C28.8285 88.1154 29.4449 88.5474 30.0997 89.0504C30.7742 89.5637 31.4977 90.1283 32.2036 90.6684C32.744 90.3925 33.1472 90.1656 33.5226 89.934L36.0735 90.7159L35.7539 90.6987L36.9851 90.9246C36.9502 90.9618 36.8863 90.9583 36.82 90.9688C36.9863 91.0466 37.163 91.1046 37.3375 91.1766L37.6909 91.2926C37.9374 91.3622 38.1699 91.4295 38.4129 91.477L38.5803 91.5048C37.9259 91.604 37.2622 91.587 36.5972 91.5339C35.6846 91.4613 34.5151 91.3388 33.792 91.3765C33.9735 91.5786 34.1527 91.7947 34.3446 91.9771L34.1702 91.9051C35.2578 93.082 35.8117 93.8908 36.5144 94.8389C37.1892 95.7824 37.935 96.6875 38.7632 97.4845C39.446 98.1641 39.9554 98.5497 40.7079 99.1549L40.6556 99.2537C41.4301 99.5973 42.0059 100.23 42.6758 100.772C43.0073 101.063 43.3469 101.349 43.6935 101.593C44.0587 101.811 44.4587 101.992 44.8923 102.1L44.7064 102.184C45.0504 102.098 45.553 102.783 45.6667 102.358L45.8587 102.626C46.4992 102.611 46.9469 102.893 47.404 103.205C47.8587 103.532 48.3669 103.881 49.0923 103.916L48.9866 103.991C49.3517 104.038 49.776 104.115 50.0179 104.299C49.9679 104.298 49.9773 104.328 49.8831 104.334C50.3681 104.737 50.9727 104.894 51.6074 104.957C52.2376 105.047 52.8746 105.096 53.4711 105.259L53.2921 105.387C53.9245 105.291 54.9837 105.603 55.7858 105.608L55.7277 105.698L56.1357 105.615L56.1358 105.787C57.1577 105.893 58.1364 105.697 59.1384 105.705L59.0769 105.86C59.9963 105.633 61.0507 105.715 62.0294 105.519L61.9562 105.571C63.221 105.552 64.3797 105.178 65.5327 104.882C66.1824 104.724 66.8054 104.512 67.433 104.273C70.441 103.596 73.6383 102.514 77.0143 100.874L76.4117 100.187L76.4605 100.152Z" fill="#E77622"/>
<path d="M41.9213 95.9011C41.9213 95.9011 41.8399 95.8733 41.7923 95.8582C41.8016 95.8884 41.8795 95.8942 41.9213 95.9011Z" fill="#E77622"/>
<path d="M74.942 72.4679C77.6821 72.5859 80.641 73.199 83.7445 74.5815C85.0992 75.1863 86.4911 75.912 87.889 76.8178C87.4809 76.8146 87.0566 76.823 86.5603 76.8338L87.2217 76.7787C86.4614 76.7815 85.8314 76.7773 85.3094 76.7695C84.1818 76.7399 83.5168 76.6869 82.7681 76.6199C81.7323 76.5125 80.4756 76.354 79.1364 76.3037C78.0703 76.2056 77.5286 76.2733 76.5696 76.2216L76.5521 76.1112C74.9481 76.447 73.2572 75.4925 71.5742 75.8726L71.6892 75.7411C71.437 75.9215 70.8196 75.6255 70.7884 75.9428L70.6547 75.9278L70.5082 75.8605C70.4454 75.8931 70.3873 75.8977 70.3211 75.9082L69.6398 75.8668L68.5133 75.7873C68.1529 75.7132 67.7739 75.6646 67.331 75.6986L67.1311 75.694L67.1962 75.6475C67.088 75.6511 66.9637 75.6663 66.8556 75.6698L66.1883 75.6307C66.1883 75.6307 66.1464 75.6238 66.1267 75.6133C66.1848 75.6086 66.1836 75.5726 66.2638 75.5644C65.837 75.3287 65.5371 75.3219 64.8966 75.3374C64.3142 75.3483 63.3947 75.4035 62.8413 75.3689L63.6806 75.2359C63.3958 75.2675 63.0412 75.2874 62.9319 75.255C63.0354 75.1933 63.2073 75.1072 63.3933 75.0233C63.7814 74.8441 64.201 74.6915 64.3683 74.5473L64.5497 74.5774C64.5497 74.5774 64.5438 74.4832 64.5531 74.4274L64.9565 74.4586C65.6224 74.2035 66.1023 73.8603 67.132 73.5295L67.1263 73.6934C67.3518 73.5445 67.5981 73.442 67.862 73.364C68.5128 73.1566 69.2359 73.119 69.8844 72.9256L69.8368 72.9966C71.5652 72.7316 73.2448 72.5015 74.9583 72.4562M88.8368 77.4554C89.195 77.7156 89.5637 77.956 89.9196 78.2301L89.972 78.3893C89.7615 78.3185 89.8464 78.3685 89.7185 78.2756C89.3187 78.5246 89.107 78.3317 88.7607 78.4319C88.7607 78.4319 88.7746 78.4342 88.7863 78.4505C88.7272 78.7633 88.3855 78.8355 88.2216 78.9159L88.0984 78.8811C87.8914 78.7464 87.9174 79.5391 87.8126 79.1347C87.6592 79.2812 87.4942 79.4115 87.3153 79.5395C86.6867 80.0014 85.9313 80.4064 85.2213 80.8405C85.1726 81.0475 84.5031 81.1943 84.8496 81.3522C84.4613 81.1874 83.721 81.4587 83.4537 81.6007C83.4525 81.5647 83.4629 81.5449 83.4873 81.5275C82.8339 81.4047 83.0762 82.1903 82.3763 81.9164C82.4381 82.2779 81.4569 82.1437 81.3212 82.6588C81.2363 82.6088 81.1898 82.5438 81.1932 82.4798C80.3123 82.864 79.258 82.9542 78.5107 83.1813C77.9158 83.656 76.8775 83.3904 76.3931 83.9336C76.1234 83.9175 75.77 83.8875 75.4038 83.8912C75.0876 83.8961 74.7447 83.9324 74.446 84.0476L74.5111 84.0011C73.7462 84.0318 72.8081 84.1126 72.2689 84.3385C72.0524 83.9155 71.7269 83.9761 71.4141 83.831C70.89 84.0092 69.8948 83.7866 69.0892 83.8464C69.0019 83.6384 68.4324 83.7875 68.4647 83.5062C67.3453 83.5569 66.1257 83.2612 64.9745 82.7691C64.685 82.6565 64.414 82.5183 64.1233 82.3697C63.8722 82.242 63.5326 82.0423 63.5035 82.0016C63.3906 81.861 63.3929 81.7611 63.601 81.7598C63.4173 81.7436 63.1162 81.7008 62.7477 81.6324C62.5407 81.5837 62.3117 81.5385 62.1105 81.498C61.8978 81.4412 61.6571 81.3797 61.6059 81.3425C61.6757 81.3541 61.7873 81.3726 61.7931 81.3808C62.0046 81.3155 62.8138 81.4499 62.9033 81.3859C62.956 81.4138 62.9948 81.4393 63.0196 81.4625C62.987 81.3998 63.1962 81.4345 63.3218 81.4554C63.4474 81.4762 63.5206 81.5099 63.5473 81.3925L63.5938 81.4575C63.5938 81.4575 63.6356 81.3784 63.6705 81.3412C63.6845 81.4296 63.702 81.54 63.6776 81.5574C63.752 81.5411 64.0309 81.5014 64.1937 81.4711L64.9062 81.3672L66.3161 81.121C67.2506 80.9321 68.2131 80.7478 69.1534 80.567C70.289 80.3327 71.4246 80.0983 72.5753 79.9022C73.3366 79.7634 74.1177 79.6351 74.8884 79.5265L74.7583 79.6195L75.4823 79.3599C75.4812 79.4098 75.4545 79.4413 75.4138 79.4703C76.388 79.4744 77.3433 79.0739 78.2557 78.9745C78.2546 79.0245 78.1384 79.1199 78.2756 79.157C78.6219 78.9708 78.7963 79.0427 79.2671 79.0134C79.6554 79.0062 80.0285 78.9606 80.0423 78.7048C80.1062 78.7083 80.2621 78.8058 80.1889 78.8582C82.2171 78.4279 83.9943 78.1281 86.1296 77.8303C86.9665 77.7112 87.8755 77.5897 88.8786 77.4624M89.2377 79.0989C88.8961 79.3432 88.5626 79.5818 88.2233 79.8121C88.272 79.6052 88.3103 79.418 88.4568 79.4853L88.4277 79.3586C88.6891 79.1225 88.5416 79.4492 88.7961 79.341C88.8717 79.2747 88.6949 79.1306 88.9145 79.0596C89.0216 79.192 89.1343 79.1606 89.2296 79.1047M72.2739 84.9127C72.8051 84.8647 73.3166 84.8063 73.835 84.706C74.5464 84.7381 75.2416 84.6958 75.9181 84.5931C78.1882 84.2603 80.3556 83.3371 82.5419 82.8184C83.0938 82.3868 83.8167 82.1771 84.5559 81.9557C81.5205 83.4875 78.666 84.3611 76.0053 84.7151C74.7128 84.9019 73.4631 84.9596 72.2739 84.9127ZM63.7443 85.9481C64.2478 86.1535 64.7699 86.3334 65.314 86.5097C64.7792 86.3636 64.2432 86.1814 63.7443 85.9481ZM61.8725 81.9387C62.3364 82.1233 62.7946 82.2997 63.2167 82.4773C63.5934 82.6258 64.0144 82.8534 64.3226 83.1124C64.3598 83.1473 64.4191 83.1786 64.4447 83.1972C63.5273 82.8084 62.6447 82.3823 61.8586 81.9364M58.644 83.3381C58.644 83.3381 58.6068 83.3032 58.5894 83.2788C59.2499 83.7039 59.9779 84.1544 60.8082 84.5933C59.9629 84.2881 59.1385 83.9434 58.644 83.3381ZM60.0963 78.3896C59.8568 78.3642 59.6313 78.3411 59.3941 78.3017C59.6754 78.2481 59.9625 78.2026 60.238 78.1408L61.1889 78.1983L61.1947 78.2064L60.0963 78.3896ZM57.2497 78.8274C57.3612 78.7599 57.46 78.7261 57.603 78.7713L57.2497 78.8274ZM54.8471 79.1811C55.2399 79.06 55.7071 78.9225 56.2023 78.7897C56.3929 78.764 56.5754 78.7441 56.7579 78.7242C56.7498 78.73 56.7254 78.7475 56.7114 78.7452C56.794 78.8091 56.8731 78.8509 56.9428 78.8624L54.8471 79.1811ZM56.0552 77.8621L57.1619 77.9312C57.0515 77.9487 56.9365 77.9941 56.8237 78.0255C56.8098 78.0232 56.7737 78.0244 56.7598 78.0221L56.7842 78.0046C56.7842 78.0046 56.7342 78.0035 56.7202 78.0012L56.0971 77.8691C56.0971 77.8691 56.0715 77.8505 56.0494 77.854M55.2545 76.4676L55.1382 76.391C55.4322 76.1316 55.3498 76.4118 55.6171 76.2698C55.6845 76.2093 55.4485 76.1199 55.703 76.0117C55.8344 76.1267 55.939 76.101 56.0366 76.0312L55.1187 76.7246C55.0129 76.6282 54.9942 76.4818 55.2545 76.4676ZM75.7876 69.4902C74.6576 69.3026 73.5649 69.494 72.4932 69.5598C72.1177 69.6193 71.7423 69.6788 71.3785 69.7546C69.4675 69.9534 67.6764 70.337 66.0725 70.8449C61.5246 72.2044 58.2803 74.3895 57.0068 75.325C56.9568 75.2378 56.8603 75.1716 56.672 75.1834L56.7476 75.3751C56.5453 75.2985 56.6221 75.3543 56.5081 75.2637C56.1444 75.5115 55.9246 75.3245 55.6143 75.4235L55.6201 75.4316C55.5343 75.7758 55.0473 75.9888 54.7696 76.1506L54.565 76.174C54.3546 76.1892 54.2885 76.3718 54.292 76.4799C54.2793 76.5996 54.3096 76.6763 54.1119 76.5718C53.4671 77.1314 52.7827 77.67 52.0008 78.2785C52.6181 78.3165 53.3214 78.3544 54.0026 78.3958C54.4454 78.2758 55.207 78.4811 55.1754 78.1963C55.1662 78.2521 55.2092 78.2951 55.2662 78.3404C54.7536 78.4488 54.3282 78.5932 54.1493 78.7212C53.2935 78.4358 52.7717 78.6 51.9335 78.5971C51.8348 78.6309 51.7092 78.696 51.4582 78.7404C52.3618 79.385 53.4807 80.3305 54.453 80.9507C54.4402 81.0704 54.6705 81.2377 54.8671 81.3921C54.9752 81.4746 55.0834 81.5571 55.0067 81.6734C56.9406 82.6754 58.9829 84.276 60.8496 85.6825C61.1902 85.6602 61.6155 85.5158 61.9666 85.4737C61.9759 85.504 61.9573 85.5296 61.9155 85.5226C62.2864 85.663 62.511 86.0802 62.9249 86.1776C62.9249 86.1776 62.8904 86.1982 62.8215 86.2393C63.2249 86.2704 63.4925 86.7306 64.0052 86.7082L63.9936 86.7779L64.3133 86.7952C64.2819 86.8545 64.246 86.9417 64.1599 86.9417C67.4983 88.2916 71.2845 88.3252 74.8753 88.1544L74.737 88.2533L75.4343 88.025C75.4343 88.025 75.4088 88.0924 75.3763 88.1157C76.2818 88.1442 77.1919 87.8867 78.0427 87.6839C78.0416 87.7339 77.9312 87.8374 78.0684 87.8745C78.1091 87.8454 78.1556 87.8245 78.216 87.8059C78.732 87.5475 79.1879 87.9099 79.3759 87.382C79.4015 87.4006 79.4573 87.4958 79.4039 87.5587C80.2756 87.3163 81.1298 86.9635 81.991 86.6549C82.8441 86.3521 83.732 86.0982 84.5571 85.7047C85.1392 85.1778 85.8493 84.8297 86.5814 84.4782C87.2821 84.0999 87.9759 83.6775 88.5405 83.1262L88.5928 83.1994C88.8601 82.9713 89.1691 82.7503 89.4782 82.5292C90.0069 82.1511 90.5589 81.8055 91.098 81.4076C91.9497 80.8107 92.8607 80.2451 93.6578 79.589C94.1156 79.2492 94.5756 78.8095 94.9556 78.464C94.7648 78.3177 94.545 78.1307 94.2891 77.9448L94.3949 77.8692C93.9437 77.651 93.6704 77.4407 93.3796 77.2061C93.0888 76.9714 92.7992 76.6868 92.527 76.4266C91.9652 75.8818 91.3813 75.3404 90.629 75.0793L90.7987 75.0071C90.5034 75.0585 90.1601 74.4926 89.9743 74.7484C89.9371 74.7136 89.8894 74.6985 89.8522 74.6637L89.7766 74.5579C89.7766 74.5579 89.7068 74.5463 89.651 74.5371C89.087 74.1782 88.5148 73.8252 87.9659 73.5047C87.7671 73.3642 87.5461 73.2271 87.2903 73.1273C87.217 73.0937 87.1519 73.0542 87.0868 73.0147L87.1437 72.974C87.0623 72.9461 86.9868 72.9264 86.8833 72.9021C86.6798 72.7894 86.4798 72.6989 86.2681 72.5921C86.2984 72.5827 86.3088 72.563 86.3786 72.5746C85.5736 71.8102 84.3459 71.6063 83.2972 71.2745L83.4842 71.1407C82.8891 71.1853 82.0064 70.6732 81.3089 70.5574L81.3646 70.4806L80.9985 70.4843L81.0344 70.3111C80.917 70.2844 80.7856 70.2555 80.674 70.2369C79.8834 70.077 79.1138 70.0496 78.3407 69.9141L78.4243 69.7559C77.556 69.8483 76.6363 69.5595 75.7458 69.5693L75.8109 69.5228L75.7876 69.4902Z" fill="#E77622"/>
<path d="M55.5504 75.4206C55.5504 75.4206 55.476 75.4369 55.4109 75.4834C55.4841 75.4311 55.5201 75.4299 55.5504 75.4206Z" fill="#E77622"/>
<path d="M91.773 51.1353C91.773 51.1353 91.7347 51.1504 91.7184 51.162C91.7347 51.1504 91.7509 51.1388 91.773 51.1353Z" fill="#E77622"/>
<path d="M77.73 53.2122L77.7824 53.3714C77.7357 53.1343 78.0253 53.2469 77.8891 52.9877C77.9135 52.9703 77.9274 52.9726 77.9356 52.9668L78.017 52.9946C78.017 52.9946 78.0262 52.9388 78.0332 52.897C78.2052 52.8108 78.3795 52.7108 78.5596 52.6188C78.7037 52.6141 78.8327 52.571 78.9175 52.4489C78.9419 52.4314 78.964 52.4279 78.9803 52.4163L78.985 52.4744C79.0198 52.4372 79.0407 52.3976 79.0756 52.3604C79.1221 52.3395 79.1627 52.3104 79.2232 52.2917C79.2534 52.2824 79.2557 52.2685 79.2813 52.287C79.279 52.301 79.2964 52.3254 79.2778 52.351C79.7871 52.5646 79.9879 52.003 80.3633 51.8574L80.389 52.048C80.4911 51.7783 80.8934 51.8594 81.1013 51.6861L81.1153 51.7744L81.1931 51.6081L81.2514 51.7755C81.5617 51.6765 81.8208 51.4543 82.1253 51.3471L82.1416 51.5075C82.3576 51.1563 82.7518 51.3293 83.0319 51.1536L83.0226 51.2094C83.5887 51.1242 84.1117 50.9099 84.6323 50.7097C85.8842 50.5519 87.214 50.486 88.637 50.5502C88.4894 50.6189 88.3522 50.6678 88.2209 50.7248C88.2233 50.8829 87.9629 50.811 88.1316 51.0469C87.9396 50.7785 87.6653 50.7903 87.5642 50.838C87.5549 50.8078 87.5595 50.7799 87.5734 50.7822C87.2524 50.4709 87.4854 51.2263 87.1445 50.8185C87.2447 51.1649 86.7923 50.8245 86.8507 51.25C86.8041 51.1849 86.7657 51.114 86.761 51.0559C86.4565 51.163 86.0764 51.1644 85.8103 51.2564C85.7117 51.6343 85.2267 51.3173 85.1898 51.7986C85.0085 51.7684 84.6957 51.7094 84.5424 51.9419L84.5436 51.892C84.303 52.0025 84.0101 52.126 83.9348 52.4503C83.7148 52.0913 83.6382 52.2076 83.4859 52.1321C83.3965 52.3681 83.0327 52.4439 82.8469 52.6998C82.7386 52.5313 82.6772 52.858 82.5631 52.5953C82.0556 53.3641 81.1199 53.5169 80.2259 53.4187C80.1981 53.5861 80.1937 53.8721 80.1647 54.0895C80.1741 54.1197 80.1636 54.1395 80.1613 54.1534C80.1438 54.129 80.1403 54.1069 80.1566 54.0953C80.0427 54.1767 79.8171 53.9816 79.7067 54.0851C79.6928 54.0541 79.6889 54.02 79.695 53.9828C79.6091 54.1549 79.3474 53.8749 79.2755 54.1354L79.2348 54.0785L79.1779 54.2052C79.1616 54.1308 79.1173 54.0518 79.1382 54.0123C77.9458 54.3734 76.9152 55.2703 75.7041 55.657L75.7064 55.557L75.5229 55.7989C75.5229 55.7989 75.5147 55.7187 75.517 55.7048C75.1636 55.6748 74.9534 56.0341 74.6477 56.1052C74.6245 56.0727 74.643 55.9611 74.5756 55.9356C74.4607 56.239 74.1232 55.7673 74.2015 56.2892C74.1759 56.2706 74.134 56.1776 74.1432 56.1218C74.0863 56.1625 74.0317 56.1893 73.9794 56.2021C73.9945 56.1545 74.0154 56.1149 74.0246 56.0591L74.077 56.1323C74.3857 55.3951 75.1958 55.1354 75.7291 54.6433C75.9905 54.4932 76.0915 54.2734 76.3379 54.0849L76.4077 54.1825C76.5886 53.5245 77.5304 53.8959 77.7358 53.2203M88.1121 51.4666L84.149 52.9733C84.2896 52.8605 84.4325 52.7337 84.5673 52.6127C85.5925 52.4818 86.308 51.5398 87.3915 51.6623C87.5587 51.432 87.8226 51.44 88.1121 51.4666ZM89.6229 50.8286C89.6229 50.8286 89.5519 50.6089 89.6449 50.653C89.7113 50.8146 89.7589 50.8296 89.8031 50.8226L89.7124 50.8506C89.7124 50.8506 89.6985 50.8483 89.6706 50.8436C89.6706 50.8436 89.6644 50.8522 89.652 50.8692L89.3998 50.9636C89.3974 50.8055 89.3926 50.6613 89.4776 50.7973L89.4484 50.6706C89.5402 50.5926 89.5055 50.8019 89.6113 50.8123M75.5507 61.201C75.9377 60.9857 76.2991 60.8378 76.6837 60.5504C77.0219 60.37 77.181 60.1456 77.4982 59.9187L77.568 60.0163C77.8605 59.2907 78.9232 59.6248 79.211 58.8411L79.2634 59.0004C79.2168 58.7632 79.5656 58.8211 79.4271 58.576L79.484 58.5352L79.5654 58.5631C79.5654 58.5631 79.5828 58.5015 79.5898 58.4596L80.2149 58.0616C80.3579 58.0209 80.5113 57.9603 80.6112 57.7905L80.6762 57.744L80.6925 57.8184C80.7158 57.7649 80.7506 57.7277 80.7936 57.6846L80.9725 57.5566C80.9725 57.5566 81.0109 57.5415 81.0307 57.552C81.0283 57.5659 81.0458 57.5903 81.0388 57.6322C81.6411 57.7178 81.8359 57.062 82.2578 56.8095L82.3055 56.9966C82.3867 56.6804 82.8644 56.6092 83.07 56.3638L83.0922 56.4463L83.1723 56.2661L83.2712 56.4043C83.6058 56.2019 83.8416 55.8611 84.167 55.6284L84.2356 55.776C84.3876 55.3353 84.8933 55.3548 85.1466 55.0384L85.1512 55.0965C85.7834 54.7427 86.2644 54.2635 86.7895 53.7772L91.2969 50.8484C91.6259 50.8959 91.9642 50.9736 92.2967 51.0431C92.1736 51.1803 91.912 51.0724 91.7528 51.1248C91.7528 51.1248 91.7667 51.1271 91.7783 51.1434C91.9238 51.3467 91.739 51.3806 91.6739 51.4271L91.5704 51.4028C91.3483 51.3157 91.8253 51.8106 91.5229 51.5597C91.4045 51.9271 91.1816 52.3202 90.9551 52.6912C91.0482 52.8213 90.7553 52.9447 91.0495 53.0294C90.7193 52.9459 90.4683 53.1623 90.4161 53.2611C90.3905 53.2425 90.3672 53.21 90.3754 53.2042C89.9104 53.1557 90.5372 53.654 90.0059 53.5299C90.2827 53.7622 89.7143 53.7754 89.9528 54.1089C89.8714 54.081 89.8179 54.0578 89.7749 54.0148C89.5438 54.3277 89.1603 54.5651 88.9489 54.8023C89.0235 55.2161 88.4191 55.2305 88.5926 55.6965C88.3927 55.778 88.0382 55.884 87.9791 56.1968L87.95 56.1561C87.7607 56.3899 87.5121 56.6783 87.5541 57.0294C87.1971 56.8052 87.16 56.9424 86.9682 56.9321C86.944 57.2076 86.5907 57.4357 86.4689 57.781C86.3153 57.6695 86.3214 58.0217 86.1341 57.8114C85.7918 58.794 84.7436 59.3224 83.7369 59.4276C83.7243 59.6334 83.7663 59.9845 83.7397 60.1879C83.7223 60.1635 83.699 60.131 83.7234 60.1135C83.5945 60.2426 83.32 60.0824 83.1992 60.2057C83.1798 60.1786 83.1732 60.1464 83.1794 60.1092C83.0911 60.2953 82.7841 60.0723 82.7099 60.3466L82.6633 60.2816L82.61 60.4304C82.5716 60.3595 82.5203 60.2363 82.5529 60.2131C81.214 60.7649 79.9127 61.6957 78.3795 61.9071L78.4236 61.8141L78.147 62.0119C78.147 62.0119 78.1505 61.9479 78.1633 61.9142C77.7749 61.8354 77.4159 62.1414 77.0381 62.1288C77.0451 62.087 77.0892 61.994 77.0264 61.9405C76.9091 62.0859 76.7846 62.0151 76.6835 61.9768C76.6362 61.945 76.5913 62.014 76.5488 62.1838C76.5488 62.1838 76.5638 62.0501 76.5789 62.0024C76.2244 62.1944 75.5781 62.2018 75.4327 62.0845C75.2212 62.1497 75.048 62.1998 74.8876 62.2162C74.7609 62.2454 74.6644 62.2652 74.5703 62.2711C74.3878 62.2909 74.1111 62.3167 74.3192 62.2294C74.5446 62.0804 74.7433 61.9629 74.5514 61.8665L74.6316 61.8583L74.7699 61.8455C74.6955 61.6897 75.144 61.4058 75.5368 61.1986M92.5002 51.0697L92.5235 51.1022C92.5235 51.1022 92.4618 51.0848 92.4363 51.0663L92.5002 51.0697ZM92.4121 51.5138L92.1462 51.9499C92.0531 51.8198 91.9717 51.7059 92.1205 51.7593L92.0205 51.671C92.0657 51.528 92.153 51.736 92.2588 51.6604C92.2657 51.6185 92.0657 51.528 92.1785 51.4965C92.325 51.5639 92.3831 51.5592 92.4179 51.522M91.2369 53.4117C90.1649 54.9899 89.0603 56.3332 87.9171 57.4337C88.0297 57.2302 88.1424 57.0267 88.2329 56.8267C88.743 56.4741 89.1007 55.9601 89.4305 55.4414C89.7662 54.9309 90.1228 54.4668 90.6608 54.1189C90.6803 53.7852 90.9406 53.5991 91.2346 53.4257M85.3389 59.5359C85.3389 59.5359 85.3772 59.5208 85.4051 59.5254C85.0635 59.7697 84.7289 59.9722 84.3965 60.1607C84.6695 59.8548 84.9332 59.5187 85.3308 59.5417M79.6683 65.0671C79.0315 65.3627 78.3574 65.5375 77.7505 65.3938C78.3747 65.3039 78.993 65.2058 79.6683 65.0671ZM81.5445 53.9387L81.6003 53.9479L80.6903 54.2914C80.9517 54.0553 81.1992 53.8168 81.5445 53.9387ZM79.0458 54.9144C79.2666 54.7934 79.4746 54.706 79.7117 54.6594L79.0458 54.9144ZM67.0427 63.2291L66.8312 63.3803C66.8835 63.2815 66.9543 63.2431 67.0427 63.2291ZM70.6232 65.2786C69.8605 65.0372 69.0827 64.8436 68.3002 64.6779C67.4585 64.4808 66.3377 64.2374 65.4017 63.9601C65.7283 63.7635 66.0734 63.5412 66.4418 63.3515C66.4836 63.3584 66.515 63.3852 66.5406 63.4037L66.5523 63.506L66.6185 63.4955L66.5662 63.4223C66.5662 63.4223 66.6638 63.4385 66.6976 63.4513L66.048 63.8667L69.0954 64.7239C69.7395 64.9025 70.6011 65.11 71.6578 65.264C71.3114 65.2781 70.9732 65.2865 70.6093 65.2762M65.8453 63.188L65.8488 63.124C65.8488 63.124 65.886 63.1589 65.9034 63.1833C65.8895 63.181 65.8616 63.1763 65.8453 63.188ZM77.4547 49.9051L77.422 49.7563C76.9364 50.2635 76.1682 50.4442 75.6279 50.8921L75.6313 50.8281C74.8318 51.2401 74.2056 51.8601 73.5631 52.4058C73.3436 52.6488 73.1043 52.8815 72.8708 53.1223C71.8565 54.0076 70.9677 54.9137 70.2301 55.7732C68.8257 57.4539 67.9385 58.9122 67.5519 59.6437L65.9449 62.5881C65.874 62.5404 65.7821 62.4463 65.947 62.316C65.8296 62.2894 65.4333 62.4745 65.5625 62.6894C65.6103 62.8766 65.586 63.0661 65.6791 63.1962C65.6151 63.1928 65.5652 63.1916 65.5337 63.1649C65.0039 63.507 64.3996 63.8654 63.8302 64.1866C64.5209 64.4303 65.158 64.6508 65.7603 64.8225C67.0158 64.8589 68.1741 65.6533 68.5482 65.2996C68.8599 65.4947 69.4263 65.8396 69.99 65.7684L69.9249 65.8149C70.5167 65.9203 71.2561 66.0431 71.7012 65.8231C71.8154 66.2578 72.0746 66.2076 72.3188 66.3772C72.7465 66.2188 73.5429 66.3869 74.1671 66.2109C74.2486 66.4108 74.6587 66.142 74.6845 66.4187C75.5667 66.1566 76.5314 66.0444 77.5253 65.9728C78.4646 65.9281 79.4213 65.9077 80.3384 65.8664C80.5173 65.6524 80.6973 65.3024 80.8808 65.0605C80.9064 65.0791 80.9018 65.107 80.8774 65.1244C81.176 65.0092 81.5272 65.1391 81.8363 65.0041C81.8363 65.0041 81.8282 65.0386 81.812 65.1076C82.0548 64.897 82.492 65.1129 82.7673 64.7931L82.8139 64.8582L82.9998 64.6883C83.0161 64.7627 83.0359 64.8592 82.9871 64.8941C85.7172 63.9496 87.942 61.9034 90.0519 59.9886L90.0287 60.1281L90.326 59.6327C90.326 59.6327 90.3586 59.6955 90.3458 59.7292C90.6561 59.5442 90.9163 59.272 91.1428 58.987C91.3437 58.6835 91.5388 58.3718 91.7746 58.1171C91.8037 58.1578 91.8026 58.2938 91.9037 58.246C92.0522 57.6973 92.6974 57.8259 92.4495 57.2901C92.4913 57.2971 92.5902 57.3493 92.5867 57.4133C93.02 56.8329 93.3567 56.1864 93.7702 55.5956C94.1662 54.9804 94.625 54.4186 95.0047 53.815C95.176 52.5246 96.217 51.6079 96.4382 50.3186L96.5173 50.3604C96.653 49.9313 96.769 49.5779 96.9455 49.2058C95.6247 48.8718 94.4631 48.3994 93.2017 48.1828C92.5494 48.01 92.0844 47.9615 91.3834 47.9096L91.388 47.7957C90.1943 48.1208 88.9904 47.0393 87.7516 47.5934L87.8352 47.4353C87.6621 47.6574 87.2098 47.4031 87.1658 47.6682C87.1158 47.6671 87.0716 47.6741 87.0158 47.6648L86.9425 47.6311C86.9425 47.6311 86.8961 47.6521 86.8635 47.6753C86.3532 47.6838 85.8685 47.7109 85.3872 47.76C85.2035 47.7438 84.9955 47.7451 84.7979 47.8127C84.6956 47.8244 84.6073 47.8384 84.5131 47.8442L84.5375 47.8268C84.4794 47.8315 84.4329 47.8524 84.3666 47.8629C84.176 47.8886 83.9854 47.9143 83.7924 47.954C83.7866 47.9458 83.7785 47.9516 83.7506 47.947C83.7889 47.9319 83.7657 47.8993 83.8261 47.8807C82.9203 47.5941 82.0885 48.2875 81.2283 48.4601L81.2828 48.2613C80.932 48.5614 80.1415 48.6596 79.6314 48.9261L79.6313 48.8401L79.4106 49.0471L79.3384 48.8775C78.6236 49.0814 78.0938 49.5955 77.4407 49.9028" fill="#E77622"/>
<path d="M83.5357 29.8555C83.7428 30.0763 83.2754 29.9557 83.5279 30.2915C83.4488 30.2497 83.3895 30.2183 83.3488 30.1614C83.1664 30.3533 82.8875 30.479 82.7318 30.6395C82.832 30.9859 82.3263 30.8804 82.5451 31.2895C82.3963 31.3221 82.1092 31.3677 82.1198 31.606L82.0907 31.5653C81.9746 31.7467 81.8096 31.963 81.9272 32.2478C81.5865 32.012 81.5738 32.1317 81.418 32.1202C81.4728 32.3515 81.2369 32.5202 81.2266 32.7981C81.0568 32.6982 81.1663 32.9887 80.9546 32.7959C80.9504 33.598 80.3183 34.0378 79.5977 34.2336C79.6618 34.4091 79.8375 34.6891 79.9353 34.8774C79.9097 34.8588 79.8643 34.8298 79.8887 34.8123C79.8539 34.9356 79.5702 34.8311 79.5273 34.9602C79.5273 34.9602 79.5098 34.9358 79.4749 34.887C79.4913 35.0474 79.1564 34.9058 79.2368 35.1557L79.1902 35.0906L79.195 35.2347C79.1403 35.1755 79.0519 35.1035 79.0763 35.086C78.3467 35.7677 78.0242 36.8467 77.2877 37.5702L77.2597 37.4795L77.2459 37.7353C77.2087 37.7004 77.1971 37.6842 77.1936 37.6621C76.9053 37.7576 76.9253 38.1121 76.7255 38.2797C76.6964 38.239 76.6522 38.16 76.5964 38.1507C76.6092 38.289 76.543 38.2995 76.4546 38.3135C76.5473 37.8415 76.9296 37.4821 77.0758 37.0333C77.2326 36.8228 77.2069 36.6321 77.3102 36.3984L77.409 36.4507C77.2122 35.8661 78.1678 35.8957 77.9977 35.2797L78.0919 35.3598C77.9872 35.2134 78.2394 35.2051 78.0208 35.0541C78.0231 35.0402 78.0393 35.0285 78.0358 35.0065L78.1219 35.0064C78.1219 35.0064 78.1009 34.9599 78.0835 34.9355C78.1845 34.8018 78.2577 34.6634 78.3587 34.5296C78.4575 34.4959 78.5353 34.4156 78.5504 34.2819C78.5585 34.2761 78.5689 34.2563 78.5852 34.2447L78.6143 34.2854L78.6328 34.1737C78.6328 34.1737 78.6828 34.0889 78.7095 34.0575C78.7234 34.0598 78.7339 34.04 78.742 34.0342C78.7595 34.0586 78.7792 34.069 78.7886 34.0993C79.2745 34.1082 79.166 33.5957 79.3716 33.3502L79.4822 33.5048C79.4123 33.2351 79.7737 33.1733 79.8248 32.9524L79.8771 33.0256L79.8689 32.8594L79.9922 32.9802C80.1804 32.7964 80.2348 32.5116 80.4289 32.3359L80.5219 32.466C80.5124 32.0917 80.896 32.1124 80.9958 31.8566L81.0366 31.9135C81.4003 31.6657 81.6627 31.2935 81.9531 30.926C82.4574 30.5653 83.0001 30.1895 83.5776 29.8625M83.7415 29.7822C83.7694 29.8728 83.8055 29.9577 83.5857 29.8567C83.6322 29.8357 83.6892 29.795 83.7415 29.7822ZM83.9355 29.6925C84.0657 29.5995 84.2051 29.5366 84.3469 29.4598C84.3667 29.5562 84.2098 29.5947 84.4331 29.7178C84.1959 29.5924 84.0087 29.6402 83.9355 29.6925C83.9111 29.71 83.9088 29.7239 83.9007 29.7298L83.8832 29.7054C83.8832 29.7054 83.9158 29.6821 83.9297 29.6844M85.2998 28.9872C85.3533 29.0104 85.394 29.0674 85.4464 29.0545C85.4487 29.0406 85.3998 28.9895 85.3707 28.9488C85.3789 28.943 85.3951 28.9313 85.4172 28.9278C85.5056 28.9999 85.5393 29.0126 85.5719 28.9894L85.3581 29.2406C85.2732 29.1046 85.1975 28.9989 85.322 29.0697L85.258 28.9803C85.258 28.9803 85.2882 28.9709 85.2963 28.9651M84.6216 30.0501L82.3599 32.5776C82.4051 32.4346 82.4504 32.2916 82.4921 32.1265C83.2079 31.7006 83.2631 30.6776 84.1627 30.4399C84.1707 30.176 84.3822 30.1107 84.6216 30.0501ZM80.4222 34.7504C80.4965 34.476 80.5811 34.1818 80.9032 34.1851C80.9113 34.1793 80.9276 34.1676 80.9415 34.17L80.4222 34.7504ZM79.4883 35.7995C79.58 35.6355 79.6973 35.4902 79.86 35.3738L79.4883 35.7995ZM87.9822 27.9416C87.9172 28.0742 87.6928 28.0871 87.5685 28.1883C87.5685 28.1883 87.5766 28.1825 87.5987 28.179C87.8068 28.2637 87.6686 28.3626 87.6291 28.4277L87.5326 28.4476C87.3001 28.4663 87.9443 28.6449 87.5676 28.5824C87.6422 28.9102 87.6157 29.2857 87.5857 29.6391C87.7264 29.6983 87.5277 29.9018 87.823 29.8505C87.4975 29.9111 87.3919 30.1588 87.3815 30.2646C87.3559 30.246 87.3338 30.2495 87.328 30.2414C86.8968 30.3777 87.6839 30.5155 87.1492 30.6274C87.4875 30.7051 86.9983 30.9321 87.3948 31.0911C87.3065 31.1051 87.2425 31.1017 87.1809 31.0843C87.1137 31.4028 86.9046 31.7122 86.8408 31.9668C87.1003 32.2608 86.5831 32.4831 86.9564 32.7816C86.8333 32.9189 86.5824 33.1353 86.6906 33.3898L86.6615 33.3491C86.5954 33.6177 86.5305 33.9223 86.7365 34.193C86.3179 34.1235 86.3529 34.2584 86.1913 34.3247C86.3124 34.5455 86.1336 34.8456 86.2105 35.1594C86.0152 35.127 86.2013 35.3872 85.9432 35.3014C86.1414 36.1801 85.5513 36.9709 84.7972 37.412C84.8891 37.5921 85.0915 37.8408 85.1893 38.029C85.1754 38.0267 85.1358 38.0058 85.1405 37.9779C85.1068 38.1372 84.8057 38.0944 84.7605 38.2374C84.7605 38.2374 84.7403 38.2149 84.7 38.17C84.7257 38.3606 84.3536 38.2702 84.4398 38.5282L84.3747 38.4887L84.3934 38.6352C84.3225 38.5876 84.2085 38.497 84.2631 38.4702C83.4802 39.3867 82.9497 40.639 81.8877 41.4232L81.876 41.3209L81.7716 41.6046C81.7716 41.6046 81.739 41.5419 81.7436 41.514C81.3589 41.6293 81.4207 41.9048 81.2208 41.9863C81.2219 41.9363 81.2265 41.8224 81.2137 41.7701C81.107 42.1537 81.1716 41.419 81.0047 42.1654C80.9954 42.1352 81.0371 41.9701 81.0627 41.9027C80.7816 42.3004 80.3098 42.5518 80.2074 42.4775C79.9124 42.7869 79.68 42.9777 79.5092 43.0999C79.3628 43.2046 79.1838 43.3326 79.2895 43.1709C79.408 42.9755 79.5078 42.8057 79.2347 42.9396L79.4288 42.7639C79.23 42.7955 79.4506 42.4164 79.6724 42.0733C79.9163 41.7267 80.1649 41.4383 80.2752 41.1627C80.4378 40.9603 80.4493 40.7185 80.6037 40.4359L80.7188 40.4765C80.5905 39.7815 81.625 39.6808 81.4793 38.9614L81.5851 39.0578C81.4571 38.8788 81.7466 38.8194 81.5082 38.6579L81.5232 38.6103L81.6116 38.5962C81.6116 38.5962 81.5906 38.5498 81.5894 38.5137L81.8937 37.9765C82.0017 37.8869 82.09 37.7869 82.1038 37.6171L82.1212 37.5555L82.162 37.6124C82.162 37.6124 82.1805 37.5008 82.1851 37.4729L82.2769 37.309C82.2769 37.309 82.2954 37.2834 82.3117 37.2717C82.321 37.302 82.335 37.3043 82.3501 37.3426C82.8894 37.2028 82.7228 36.6089 82.9411 36.2437L83.0819 36.3889C82.9864 36.1007 83.3454 35.8808 83.3836 35.6076L83.4546 35.6552L83.4184 35.4843L83.5766 35.5679C83.7473 35.2737 83.7796 34.9063 83.9201 34.6214L84.0538 34.7225C83.9571 34.3122 84.3848 34.1538 84.4427 33.8051L84.4717 33.8457C84.8051 33.3491 84.9779 32.7829 85.1566 32.2248L87.501 28.0768C87.6684 28.0185 87.8334 27.9742 88.0008 27.916M88.366 28.2204C88.3509 28.354 88.3499 28.4901 88.3407 28.6319C88.2 28.5727 88.0593 28.5135 88.2115 28.5029L88.0941 28.4763C88.0568 28.3554 88.2383 28.4715 88.2963 28.3808C88.273 28.3483 88.0568 28.3554 88.1324 28.2891C88.3044 28.289 88.3532 28.2541 88.3578 28.2262M87.2667 34.3671C87.2654 34.159 87.2536 33.9707 87.2442 33.7684C87.7853 32.8404 87.3708 31.7107 88.0131 30.821C87.8769 30.5619 88.0244 30.3212 88.2079 30.0793C88.0101 31.6592 87.6937 33.0904 87.2667 34.3671ZM86.1628 36.9147L86.2197 36.874C86.0606 37.1845 85.8923 37.4648 85.7076 37.7567C85.7736 37.4021 85.828 37.0312 86.1628 36.9147ZM72.1291 45.6736L72.0117 45.6469C71.9708 45.418 72.1581 45.6282 72.2022 45.4492C72.1859 45.3748 71.9708 45.418 72.0417 45.2935C72.2079 45.2853 72.2613 45.2225 72.2671 45.1446L72.2455 45.9223C72.0978 45.8189 71.9675 45.74 72.1209 45.6794M76.4548 38.4856C76.4548 38.4856 76.4629 38.4798 76.4571 38.4716L76.4862 38.5123C76.4862 38.5123 76.4606 38.4937 76.4548 38.4856ZM82.3969 45.1777C81.9334 45.5953 81.4733 46.035 80.8967 46.054C80.8886 46.0598 80.8584 46.0691 80.8223 46.0703C81.3325 45.8038 81.8554 45.5035 82.3911 45.1696M84.0817 43.9235C84.3687 43.7059 84.6708 43.4407 84.9426 43.1848C84.6964 43.4593 84.3943 43.7245 84.0817 43.9235ZM79.5897 28.928L79.5618 28.8374L79.4561 29.0851L79.3328 28.9642C78.853 29.3935 78.4546 29.8506 78.0619 30.3158L77.963 30.1776C77.7809 30.7996 77.1185 31.0767 76.8143 31.614L76.7979 31.5396C76.101 32.37 75.5982 33.2829 75.1687 34.2294C72.6651 38.5159 72.3237 42.8173 72.2944 44.289C72.1747 44.2763 72.0782 44.2961 71.9737 44.4078L72.1725 44.4623C71.9726 44.5438 72.0691 44.5239 71.9226 44.5426C71.8879 44.8379 71.6171 44.8718 71.4882 45.087C71.4882 45.087 71.4963 45.0811 71.5021 45.0893C71.7208 45.2403 71.5942 45.4414 71.5478 45.5484L71.449 45.5822C71.2235 45.6451 71.8712 45.9318 71.4852 45.8391C71.5693 46.4551 71.5616 47.1491 71.5422 47.8269C71.6504 47.9093 71.5785 48.1698 71.6634 48.2197L71.4995 48.214L71.6483 48.2674C71.6483 48.2674 71.6669 48.2418 71.6832 48.2302L71.7483 48.2697L71.7239 48.2871L71.6541 48.2755C71.5357 48.4709 71.4277 48.6465 71.3115 48.8279C71.3628 49.0371 71.1364 49.4081 70.8809 49.8244C71.3447 49.7509 71.8887 49.6692 72.5255 49.2875C72.8951 49.3059 73.8274 49.3029 74.6619 48.9397L74.5805 48.9979C75.1373 48.8825 75.2523 48.837 75.5406 48.7415C75.787 48.6391 76.0159 48.5122 76.1657 48.3436C76.3915 48.7108 76.6123 48.5897 76.8529 48.6512C77.1376 48.3616 77.8327 48.2332 78.2765 47.8912C78.4231 48.0446 78.6635 47.6759 78.7857 47.9327C80.001 46.916 81.6374 46.2988 83.1924 45.7398C83.2701 45.4875 83.2769 45.1016 83.3348 44.8388C83.365 44.8295 83.3837 44.8899 83.3512 44.9132C83.5579 44.7038 83.9463 44.7826 84.1356 44.5489C84.155 44.576 84.1628 44.6155 84.1589 44.6674C84.2889 44.4023 84.7214 44.4741 84.8258 44.1043L84.8909 44.1438L84.9838 43.9299C85.0245 43.9868 85.085 44.0542 85.0676 44.1158C87.008 42.5313 88.2108 40.2079 89.3545 38.0252L89.3917 38.1461L89.4554 37.6334C89.4926 37.6682 89.5019 37.6985 89.5135 37.7147C89.9247 37.2239 89.9743 36.5369 90.175 35.9753C90.2227 35.9903 90.2681 36.1054 90.3413 36.053C90.2468 35.5428 90.8827 35.4691 90.4709 35.0997C90.4953 35.0823 90.6046 35.1147 90.6372 35.1775C90.7833 34.5566 90.8712 33.9405 91.0034 33.3173C91.1053 32.7035 91.3409 32.1046 91.437 31.4826C91.0515 30.3936 91.7227 29.2865 91.3233 28.1952L91.4209 28.2114C91.3078 27.6407 91.2947 27.0723 91.3338 26.491L91.3856 25.618L91.4105 24.6043C91.1117 24.5475 90.7909 24.4942 90.4897 24.4514C90.227 24.3935 90.0573 24.3796 89.812 24.3461C89.4598 24.4381 89.2494 24.5394 88.8868 24.6512L88.8495 24.5303C87.9991 25.2493 86.649 24.6166 85.8405 25.5145L85.8625 25.339C85.7987 25.5936 85.3465 25.5114 85.4129 25.7589C85.3664 25.7799 85.3222 25.7869 85.2757 25.8078L85.2281 25.7928C85.2281 25.7928 85.1932 25.83 85.1886 25.8579C84.7888 26.0209 84.4111 26.1804 84.0392 26.348C83.8463 26.3877 83.6464 26.4692 83.4651 26.6111C83.4244 26.6402 83.3617 26.6728 83.3094 26.6856L83.3163 26.6437C83.2757 26.6728 83.2431 26.6961 83.2164 26.7275C83.0526 26.8078 82.8945 26.8963 82.7388 26.9708C82.7411 26.9568 82.7457 26.9289 82.7725 26.8975C81.911 26.862 81.4442 27.6877 80.8168 28.0996L80.7853 27.9008C80.6042 28.3008 79.9079 28.4791 79.6083 28.9025" fill="#E77622"/>
<path d="M83.1727 45.8154C83.1727 45.8154 83.1762 45.8375 83.168 45.8433L83.1727 45.8154Z" fill="#E77622"/>
<path d="M71.4131 45.2392C71.4131 45.2392 71.4363 45.1857 71.4467 45.166C71.4107 45.1672 71.4235 45.2195 71.4131 45.2392Z" fill="#E77622"/>
<path d="M52.1153 20.7688L52.1443 20.6374C52.3734 20.7686 52.17 20.8281 52.3038 21.0151C52.3654 21.0325 52.3815 20.7628 52.4909 20.9673C52.4352 21.1301 52.4713 21.215 52.5457 21.2847L51.9328 20.7887C51.992 20.648 52.0605 20.5375 52.1153 20.7688ZM49.18 26.2738C48.6602 27.7644 48.3275 29.2073 48.1528 30.5617C48.1224 30.2269 48.1117 29.9026 48.1057 29.5504C48.4781 28.3865 48.6261 27.1495 48.9904 25.9915C49.2038 25.3101 49.4882 24.6764 49.9436 24.0925C49.9921 23.6275 50.3011 23.2344 50.6356 22.8599C50.0412 24.0227 49.5571 25.1681 49.1963 26.2622M52.7227 25.3997L52.8332 25.4682C52.824 25.6101 52.6902 25.423 52.6123 25.5033C52.61 25.5172 52.6833 25.5509 52.7205 25.5857L52.6101 25.6032C52.6101 25.6032 52.5403 25.5916 52.5159 25.6091C52.5507 25.4859 52.6134 25.3672 52.6703 25.2405C52.7761 25.3369 52.8797 25.4473 52.7285 25.4079M52.465 26.002C52.6324 26.0298 52.5987 26.0171 52.6603 26.0345C52.7604 26.1228 52.8464 26.2087 52.9383 26.3028C53.0859 26.2342 53.1279 26.4992 53.2638 26.2422C53.1012 26.5306 53.2397 26.7758 53.3223 26.8397C53.2979 26.8571 53.2654 26.8804 53.2642 26.8443C53.1005 27.2687 53.7047 26.7383 53.4655 27.229C53.7328 27.001 53.5924 27.5439 53.9713 27.3345C53.9295 27.4135 53.8865 27.4566 53.8296 27.4973C54.0343 27.732 54.1682 28.0911 54.3416 28.2991C54.7403 28.2721 54.5697 28.8244 55.0405 28.709C55.0743 28.8938 55.0931 29.2123 55.3675 29.2865L55.2931 29.3029C55.485 29.4852 55.6689 29.7595 55.9932 29.7488C55.6981 30.0582 55.8214 30.093 55.7796 30.2581C56.0226 30.3056 56.1937 30.6136 56.4623 30.7657C56.3171 30.9064 56.6472 30.9039 56.4055 31.0645C57.2532 31.4417 57.5038 32.3936 57.4101 33.2597C57.5915 33.2899 57.9158 33.2792 58.1391 33.3162C58.1146 33.3337 58.0844 33.343 58.0728 33.3268C58.174 33.4511 57.9591 33.6663 58.0684 33.7848C58.0684 33.7848 58.0371 33.7867 57.9743 33.7906C58.1382 33.8824 57.8768 34.1185 58.1129 34.2079L58.0478 34.2544L58.1746 34.3113C58.0944 34.3195 58.0153 34.3637 57.9758 34.3428C58.2695 35.5098 58.927 36.6869 58.9139 37.975L58.8209 37.9308L58.9954 38.1749C58.9954 38.1749 58.9256 38.1633 58.8919 38.1505C58.7608 38.4656 58.9993 38.7991 58.9541 39.1142C58.8983 39.1049 58.8134 39.055 58.7705 39.098C58.8961 39.2049 58.8136 39.313 58.7543 39.3677C58.7032 39.4166 58.6916 39.4003 58.9474 39.5001C58.9172 39.5094 58.816 39.4711 58.7684 39.456C58.8126 39.5351 58.8324 39.6315 58.8383 39.7257C58.8838 40.0128 58.8026 40.329 58.7248 40.4093C58.86 41.0625 58.8114 41.3555 58.7569 41.5543C58.7325 41.6578 58.6966 41.745 58.6827 41.9147L58.6632 42.2484L58.6552 42.5123L58.646 42.6541L58.6097 42.3112C58.5646 42.6263 58.4062 42.1986 58.2897 41.7778C58.1697 41.335 58.0892 40.9131 57.9647 40.6702C57.9052 40.3808 57.768 40.3437 57.6504 40.0589L57.7387 39.9589C57.1887 39.7744 57.7287 38.8104 57.0961 38.476L57.2565 38.4596C57.0042 38.4679 57.1854 38.1539 56.9007 38.2715L56.8716 38.2308L56.9192 38.1599C56.8936 38.1413 56.8657 38.1367 56.8401 38.1181L56.6212 37.537C56.6362 37.4033 56.6013 37.2685 56.4919 37.15L56.4512 37.093L56.5233 37.0907C56.4861 37.0558 56.4511 37.007 56.4174 36.9942L56.3534 36.8188C56.3534 36.8188 56.3301 36.7862 56.3545 36.7688C56.3685 36.7711 56.3929 36.7536 56.4243 36.7803C56.4835 36.6397 56.4904 36.5118 56.4531 36.3909C56.3692 36.1189 56.068 35.9041 55.9702 35.6298L56.1608 35.6041C55.8852 35.4938 55.9466 35.0811 55.7593 34.8708L55.8476 34.8568L55.6895 34.7732L55.851 34.7069C55.7404 34.3803 55.488 34.1305 55.3506 33.8353L55.5215 33.7992C55.1377 33.6064 55.2874 33.1797 55.0594 32.9125L55.1233 32.9159C54.9544 32.336 54.6333 31.8526 54.3167 31.3413L52.3639 26.0498C52.4511 26.0858 52.5383 26.1217 52.6488 26.1042L52.479 26.0044L52.465 26.002ZM53.1523 41.1615L53.1349 41.1371C53.1349 41.1371 53.1605 41.1557 53.1907 41.1463C53.1826 41.1522 53.1605 41.1557 53.1523 41.1615ZM52.9669 36.5361L53.0405 37.0859C52.9764 36.9104 52.9426 36.7256 52.9669 36.5361ZM52.7369 34.9425L52.8478 35.6992C52.6791 35.4633 52.5243 35.2298 52.716 34.982C52.7241 34.9762 52.7346 34.9564 52.7427 34.9506M52.4132 39.6984C52.3526 39.459 52.177 39.351 52.0862 39.1208L52.2013 39.0754C51.6304 38.8445 52.2646 38.1326 51.6762 37.8772L51.8367 37.8609C51.5984 37.8715 51.7877 37.6377 51.5157 37.7216C51.518 37.7076 51.5064 37.6914 51.4948 37.6751L51.5598 37.6286C51.5598 37.6286 51.5064 37.6053 51.4808 37.5868C51.44 37.4438 51.3957 37.2787 51.3549 37.1358C51.3816 37.0184 51.3862 36.9044 51.2861 36.8162C51.2803 36.808 51.2768 36.7859 51.271 36.7778L51.3291 36.7731C51.3291 36.7731 51.2745 36.7139 51.2512 36.6813C51.236 36.643 51.229 36.5988 51.222 36.5546C51.2244 36.5407 51.1988 36.5221 51.2232 36.5046C51.229 36.5128 51.2732 36.5058 51.2929 36.5162C51.6054 36.1452 51.1449 35.8967 51.0959 35.5875L51.2958 35.5921C51.0482 35.4864 51.2154 35.1701 51.1036 34.9796L51.1897 34.9795L51.0675 34.8947L51.2442 34.8667C51.222 34.6121 51.0451 34.3821 51.0229 34.1275L51.181 34.1251C50.8798 33.9102 51.1563 33.6264 51.0317 33.3835L51.0875 33.3928C51.1337 32.9417 51.0137 32.4989 50.9239 32.0467C50.9619 31.4294 51.0324 30.7889 51.1494 30.1273C51.4598 30.1144 51.0693 30.3936 51.4809 30.4189C51.3984 30.4411 51.3216 30.4713 51.2635 30.476C51.2939 30.7248 51.2069 31.0329 51.2222 31.2433C51.5652 31.3791 51.1434 31.7176 51.5934 31.8138C51.526 31.9603 51.3727 32.1929 51.567 32.3614L51.5112 32.3521C51.5706 32.5555 51.6289 32.8089 51.9126 32.9133C51.5139 33.0263 51.6139 33.1146 51.4896 33.2158C51.6931 33.3285 51.6805 33.6203 51.8887 33.791C51.7132 33.8551 51.9969 33.9595 51.7238 34.0073C52.3402 34.5254 52.2512 35.2776 51.9436 35.9648C52.1063 36.0205 52.4412 36.0761 52.6342 36.1225C52.6098 36.1399 52.5877 36.1434 52.5702 36.119C52.6377 36.2306 52.3844 36.3749 52.4461 36.4783C52.4461 36.4783 52.4201 36.4764 52.3682 36.4725C52.5019 36.5736 52.1765 36.7203 52.4103 36.8236L52.3277 36.8457L52.4382 36.9142C52.358 36.9224 52.2557 36.9341 52.2325 36.9016C52.2959 37.9013 52.9044 38.8553 52.9795 39.8712L52.876 39.8469L53.0621 40.0211C53.0156 40.0421 52.9819 40.0293 52.968 40.027C52.8577 40.3026 53.1508 40.5233 53.1312 40.7709C53.0928 40.786 53.0056 40.75 52.9487 40.7908C53.0812 40.8558 53.0394 40.9349 53 41C52.7021 40.6352 52.6623 40.0981 52.4272 39.7007M49.1606 39.6028C49.3003 39.97 49.4447 40.3094 49.5948 40.6569C49.4144 40.3187 49.2701 39.9794 49.1606 39.6028ZM48.1863 35.7998L48.2026 35.7021C48.2843 36.3321 48.4126 36.9412 48.5513 37.5305C48.2847 36.9343 48.0437 36.3567 48.1887 35.7858M51.9906 29.4642L52.1155 30.3092L52.467 32.8118C52.3821 32.6759 52.3006 32.562 52.2238 32.4202C52.3442 31.6088 51.6416 30.9187 51.984 30.1082C51.9863 30.0943 51.9991 30.0606 52.0014 30.0466C51.8211 29.8805 51.8919 29.67 51.9987 29.4584M51.1622 30.0936C51.1622 30.0936 51.1946 29.9843 51.2097 29.9367C51.2969 29.9726 51.3644 29.9982 51.1622 30.0936ZM51.2375 29.7693C51.2653 29.6018 51.307 29.4367 51.3488 29.2716C51.422 29.3053 51.3861 29.3925 51.486 29.3948C51.5163 29.3855 51.5604 29.3785 51.6069 29.3575C51.5686 29.3726 51.536 29.3959 51.5035 29.4192C51.2908 29.5344 51.2607 29.7158 51.2794 29.7762C51.255 29.7937 51.2491 29.7855 51.2375 29.7693ZM51.7155 28.2717L51.6016 28.2671L51.6108 28.2113C51.6108 28.2113 51.7329 28.2101 51.7642 28.1508C51.7584 28.1426 51.6782 28.1508 51.6364 28.1439C51.6387 28.1299 51.6433 28.102 51.6515 28.0962C51.7561 28.0705 51.8049 28.0356 51.8072 28.0217L51.862 28.339C51.7062 28.3275 51.5749 28.2985 51.7318 28.26M49.7685 22.9883C49.7685 22.9883 49.7196 22.9372 49.7464 22.9058C49.2106 23.0677 49.8955 23.4753 49.2771 23.5733C49.5667 23.7719 48.9264 24.1315 49.2324 24.4906C49.1382 24.4964 49.0685 24.4848 49.0196 24.4337C48.8989 24.7291 48.748 25.0337 48.5935 25.3163C48.431 25.6047 48.2882 25.9036 48.2081 26.1698C48.3701 26.7056 47.7206 27.2071 48.0452 27.7125C47.8826 28.0009 47.5912 28.5045 47.6624 28.9822L47.6217 28.9253C47.5081 29.4368 47.469 30.1041 47.6785 30.4829C47.2542 30.5774 47.2927 30.8203 47.1359 31.0308C47.3036 31.4027 47.2017 32.1026 47.3415 32.6419C47.1475 32.7315 47.4395 33.0882 47.1489 33.1116C47.6532 34.6074 47.7031 36.379 47.7274 38.046C47.9379 38.2028 48.2786 38.3525 48.5217 38.4861C48.5031 38.5116 48.4752 38.507 48.4577 38.4826C48.5741 38.7313 48.4163 39.0778 48.5466 39.3288C48.5466 39.3288 48.5121 39.3207 48.4431 39.3045C48.6502 39.5252 48.4052 39.9218 48.7343 40.1413L48.6692 40.1878L48.8379 40.3377C48.7554 40.3598 48.6705 40.3959 48.6217 40.3448C49.4683 42.7145 51.2307 44.6629 52.7896 46.5847L52.6699 46.5719L53.106 46.8379C53.106 46.8379 53.0316 46.8542 53.0095 46.8577C53.3086 47.4306 53.9563 47.7173 54.3704 48.1588C54.3297 48.1879 54.1995 48.195 54.2414 48.2879C54.7449 48.4073 54.5651 49.0154 55.0648 48.7687C55.0741 48.7989 54.9998 48.9012 54.9417 48.9059C55.8941 49.5156 56.763 50.2835 57.5691 51.0839L58.5217 52.0377L58.4267 50.6672C58.6485 50.2381 58.897 49.8636 59.1653 49.4136L59.5914 48.703C59.7203 48.4879 59.8271 48.2763 59.9281 48.0565C60.2498 47.5436 60.3391 47.1355 60.5735 46.5867L60.691 46.6134C60.7008 45.5613 61.8325 44.7887 61.6865 43.6391C61.6888 43.6252 61.6772 43.6089 61.6876 43.5891L61.8097 43.6739C61.6643 43.4706 61.9675 43.1553 61.7094 43.0695L61.7279 42.9579L61.8011 42.9055C61.7802 42.859 61.779 42.823 61.7638 42.7846C61.8566 42.3986 61.9435 42.0045 62.0211 41.5802C62.0896 41.3837 62.1383 41.1767 62.1056 40.9419L62.1334 40.7745L62.1741 40.8314C62.1601 40.7431 62.1577 40.671 62.1496 40.5908C62.1727 40.4513 62.1924 40.2897 62.1958 40.1397C62.2132 40.1641 62.2434 40.1548 62.2563 40.2071C62.7464 39.5 62.2994 38.6517 62.3106 37.8938L62.4966 37.982C62.293 37.6113 62.4146 36.9219 62.2574 36.4442L62.355 36.4604L62.1979 36.2408L62.3828 36.207C62.3672 35.5664 62.0321 34.9947 61.8957 34.3915L62.0538 34.3891C61.6873 33.8766 61.7368 33.1896 61.4273 32.6364L61.497 32.648C61.3164 31.8797 60.923 31.2267 60.5576 30.5782C60.4389 30.3435 60.2853 30.146 60.1422 29.9287C58.7583 27.2547 56.5525 24.4801 53.2272 21.7562C53.2911 21.6736 53.3411 21.5887 53.3165 21.4341L53.1539 21.5505C53.2223 21.354 53.1724 21.4389 53.2432 21.3144C53.0339 21.1077 53.2046 20.8995 52.937 20.5253C52.937 20.5253 52.9362 20.53 52.9347 20.5393C52.6453 20.5987 52.4486 20.2722 52.2985 20.0968L52.2345 19.9213C52.1133 19.5284 51.8057 20.1296 51.8949 19.7215C51.8042 19.6635 51.7158 19.5915 51.5995 19.5148C51.3871 19.9741 51.1549 20.423 50.9366 20.8742C50.853 21.0323 50.7694 21.1905 50.6835 21.3626C50.2862 21.8557 49.794 22.8348 49.7348 22.9755" fill="#E77622"/>
<path d="M47.6394 38.0601L47.6568 38.0845L47.6649 38.0787C47.6649 38.0787 47.6533 38.0625 47.6394 38.0601Z" fill="#E77622"/>
<path d="M52.8207 20.4483C52.8498 20.489 52.8789 20.5296 52.908 20.5703C52.9149 20.5285 52.844 20.4808 52.8207 20.4483Z" fill="#E77622"/>
<path d="M44.9111 48.0144C44.9111 48.0144 44.8971 48.0121 44.8913 48.0039L44.9029 48.0202L44.9111 48.0144Z" fill="#E77622"/>
<path d="M39.6876 39.2844L39.6539 39.2716C39.6539 39.2716 39.6736 39.2821 39.6876 39.2844Z" fill="#E77622"/>
<path d="M38.0891 51.1108C38.0891 51.1108 38.0775 51.0945 38.0694 51.1004L38.081 51.1166L38.0891 51.1108Z" fill="#E77622"/>
<path d="M48.5813 59.7122C48.5724 60.2842 48.2867 60.7958 47.9616 61.2866C48.9225 58.7797 49.6831 55.5801 49.4622 51.9021C49.5275 52.1997 49.6009 52.4914 49.6662 52.789C49.4793 55.1233 49.7588 57.6283 48.5813 59.7122ZM44.7853 60.7306C44.7213 60.5551 44.6653 60.2878 44.6152 60.0286C44.5114 59.4881 44.4541 59.0127 44.3283 58.6477C44.2758 58.3165 44.1083 58.1166 43.9976 57.704L44.1045 57.6644C43.5008 57.1126 44.1128 56.1462 43.4534 55.5852L43.6173 55.5909C43.3661 55.5492 43.5601 55.2015 43.2602 55.2807L43.2416 55.2203L43.2834 55.1412C43.2834 55.1412 43.2322 55.1041 43.2008 55.0773L42.9922 54.3044C43.006 54.1347 42.9839 53.9661 42.8535 53.8012L42.8314 53.7186L42.8953 53.7221C42.8604 53.6733 42.8255 53.6245 42.7906 53.5757L42.7335 53.3583C42.7335 53.3583 42.7126 53.3118 42.7312 53.2863C42.7428 53.3025 42.7753 53.2793 42.8126 53.3141C43.0679 52.7257 42.4934 52.3006 42.371 51.7857L42.5628 51.7961C42.2872 51.5998 42.3624 51.1034 42.1751 50.807L42.2611 50.807L42.096 50.6792L42.2691 50.6291C42.1666 50.2107 41.9187 49.847 41.786 49.4379L41.9464 49.4215C41.5672 49.1149 41.7308 48.6044 41.4992 48.2291L41.5608 48.2465C41.3999 47.4887 41.0891 46.8135 40.7806 46.1243L38.9046 39.1181C38.9895 39.168 39.0767 39.204 39.179 39.1923L39.0255 39.0808C39.2162 39.1411 39.1231 39.097 39.2476 39.1679C39.3382 39.0539 39.5522 39.2328 39.6569 39.2931C39.6569 39.2931 39.651 39.285 39.6452 39.2769C39.5125 39.0398 39.6393 39.0967 39.6649 39.1153L39.7347 39.2129C39.8325 39.4872 39.5623 38.6108 39.723 39.1106C39.7392 39.0129 39.7775 38.8258 39.8216 38.8188C39.8728 38.8559 39.9252 38.9291 39.988 38.9826C40.0553 38.836 40.0752 39.1046 40.1762 38.7988C40.0718 39.1685 40.0125 39.2232 40.173 39.3788C40.1486 39.3963 40.1242 39.4137 40.1149 39.3835C39.9606 39.8382 40.5997 39.3565 40.3663 39.8553C40.6731 39.6482 40.5456 40.2435 40.9512 40.0886C40.9036 40.1596 40.8525 40.2084 40.8037 40.2433C41.048 40.5849 41.218 41.0289 41.4216 41.3136C41.8564 41.3714 41.7429 41.969 42.2334 41.9501C42.2742 42.1791 42.3094 42.572 42.614 42.7229L42.5559 42.7276C42.7537 43.0041 43.0143 43.3341 43.3526 43.4118C43.0378 43.7107 43.182 43.792 43.1356 43.985C43.4054 44.0872 43.5719 44.509 43.8847 44.7402C43.7418 44.867 44.086 44.9528 43.8547 45.0936C44.7305 45.7335 45.0451 46.947 44.9365 48.0328C45.1249 48.1071 45.49 48.1533 45.6981 48.2381C45.6737 48.2555 45.6353 48.2707 45.626 48.2404C45.7203 48.4066 45.5007 48.6497 45.5869 48.8217C45.5869 48.8217 45.5563 48.819 45.495 48.8136C45.6579 48.9553 45.3639 49.2148 45.6244 49.3727L45.5558 49.3971L45.6896 49.4982C45.6013 49.5122 45.4606 49.539 45.4803 49.4635C45.7173 51.0152 46.3449 52.6318 46.1809 54.3105L46.0983 54.2467L46.2229 54.5756C46.2229 54.5756 46.1555 54.55 46.1357 54.5396C45.9348 54.9291 46.1885 55.387 46.0737 55.7765C46.0318 55.7695 45.9516 55.6917 45.8923 55.7464C46.0948 56.081 45.5008 56.1616 45.9857 56.3927C45.9613 56.4101 45.8497 56.3916 45.8067 56.3486C45.8525 57.1518 45.5835 58.168 45.4 58.4099C45.52 58.8528 45.4028 59.1702 45.3192 59.4144C45.2311 59.6864 45.1416 59.8364 45.0143 60.6898L45.0188 60.4038C44.9863 60.5991 44.9388 60.8421 44.8947 60.9351C44.8715 60.9026 44.8249 60.8375 44.797 60.7469M39.0021 49.843L39.0481 50.9043C38.906 50.551 38.7559 50.2036 38.9789 49.8965C38.9951 49.8849 38.9916 49.8628 39.0021 49.843ZM38.6334 42.2628L38.8584 46.909C38.7885 46.7254 38.7187 46.5418 38.6349 46.3558C38.8341 45.2421 38.1441 44.1742 38.5909 43.08C38.4106 42.8279 38.5069 42.55 38.6253 42.2686M38.7388 58.2072C38.6236 57.9946 38.534 57.8005 38.4598 58.1609L38.4364 57.8703C38.3412 58.0982 38.127 57.6612 37.9943 57.2521C37.8603 56.807 37.7589 56.4246 37.6216 56.1294C37.5563 55.8319 37.3946 55.7262 37.2817 55.4136L37.3886 55.374C36.8001 54.9465 37.4227 54.1324 36.833 53.669L36.9969 53.6747C36.7516 53.6411 36.9642 53.3538 36.6608 53.411C36.6492 53.3947 36.6515 53.3808 36.648 53.3587L36.7014 53.2959C36.7014 53.2959 36.6502 53.2587 36.6246 53.2401C36.5815 53.0251 36.5465 52.8043 36.5092 52.5974C36.5404 52.452 36.5415 52.316 36.4368 52.1696C36.4333 52.1475 36.4298 52.1254 36.4263 52.1034L36.4821 52.1126C36.453 52.072 36.4239 52.0313 36.403 51.9848C36.3983 51.9267 36.3797 51.8662 36.375 51.8081C36.3854 51.7884 36.368 51.764 36.3784 51.7442C36.39 51.7605 36.4203 51.7511 36.4517 51.7778C36.8141 51.3219 36.3291 50.9189 36.309 50.4783L36.4962 50.5165C36.2706 50.3214 36.4656 49.9237 36.3597 49.6552L36.4434 49.6691L36.3166 49.5262L36.4967 49.5203C36.4907 49.1681 36.3684 48.8252 36.3624 48.473L36.5159 48.4985C36.2576 48.1545 36.5375 47.8068 36.4675 47.4511L36.521 47.4743C36.6229 46.8605 36.5946 46.2537 36.5908 45.6294C36.8584 44.2331 37.2713 42.7821 37.8877 41.2716C37.9168 41.4844 37.924 41.7006 37.9392 41.911C38.0822 41.9562 37.9406 42.2051 38.2148 42.1073C37.9022 42.2202 37.8315 42.5167 37.849 42.6271C37.8211 42.6225 37.785 42.6237 37.7955 42.6039C37.3923 42.8308 38.1944 42.835 37.6912 43.0597C38.0469 43.0757 37.5949 43.4236 38.0169 43.5151C37.9402 43.5454 37.8659 43.5617 37.8042 43.5443C37.8103 43.8966 37.7012 44.2942 37.7003 44.6023C38.0189 44.8415 37.5879 45.2359 38.0298 45.4239C37.9415 45.61 37.7825 45.9205 37.9651 46.1586L37.9117 46.1354C37.9572 46.4225 37.9911 46.7794 38.2691 46.9617C37.8646 47.0666 37.9518 47.1886 37.8229 47.3177C38.0288 47.5024 37.986 47.8896 38.1757 48.1719C37.9885 48.2197 38.2723 48.4102 37.9956 48.4359C38.5658 49.233 38.4327 50.2503 38.0683 51.1503C38.2299 51.2559 38.5555 51.3673 38.7474 51.4637C38.723 51.4811 38.6811 51.4742 38.6776 51.4521C38.7382 51.6055 38.4744 51.7696 38.5268 51.9288C38.5268 51.9288 38.4969 51.9215 38.4373 51.9068C38.5641 52.0497 38.234 52.2243 38.4562 52.3973L38.3818 52.4137L38.4934 52.5182C38.3993 52.5241 38.2633 52.523 38.2946 52.4637C38.2734 53.7576 38.829 55.5486 38.7828 55.9997L38.6897 55.8695C38.7514 55.9729 38.8107 56.0903 38.8678 56.2216C38.8154 56.1484 38.7922 56.1159 38.7631 56.0752C38.6014 55.9695 38.8948 56.6203 38.8635 56.7657C38.8099 56.6564 38.7343 56.4647 38.6539 56.3008C38.9439 57.1016 38.2919 55.5024 38.8881 57.0923C38.8578 57.0156 38.7332 56.6867 38.6785 56.5414C38.7834 56.9459 38.8417 57.2853 38.8605 57.5178C38.8698 57.634 38.8722 57.7061 38.863 57.7619C38.856 57.8038 38.8526 57.8677 38.7641 57.6236C38.9577 58.6163 38.8122 58.4129 38.7144 58.2247M38.3964 40.625C38.3964 40.625 38.4755 40.6668 38.5336 40.6621L38.5395 40.7563C38.3965 40.711 38.2616 40.6599 38.4045 40.6192M38.4696 40.4866C38.4696 40.4866 38.2336 40.4833 38.3114 40.403C38.3916 40.3948 38.4439 40.382 38.4683 40.3645C38.5149 40.4296 38.5614 40.4947 38.5033 40.5854L38.3952 40.5889C38.3952 40.5889 38.4069 40.6052 38.4127 40.6133L38.2929 40.6006C38.2498 40.4716 38.4336 40.5738 38.48 40.4668M39.1461 38.6134C39.2297 38.4553 39.3214 38.2913 39.4132 38.1273C39.4435 38.3761 39.4646 38.5946 39.3924 38.4249L39.4448 38.5842C39.4054 38.7353 39.3622 38.4343 39.2832 38.4785C39.2739 38.5343 39.4077 38.7214 39.3298 38.7156C39.2251 38.5692 39.1751 38.5681 39.1484 38.5995M43.8268 43.1464C43.6546 42.9745 43.4743 42.8084 43.2999 42.6504C42.8166 41.3731 41.5096 40.6974 41.1193 39.3782C40.7961 39.2529 40.661 38.9438 40.5445 38.609L40.5329 38.5928C41.8742 40.1415 42.9761 41.6648 43.8268 43.1464ZM45.7662 47.5254C45.5044 47.1594 45.2426 46.7934 45.354 46.3818C45.3505 46.3597 45.347 46.3376 45.3574 46.3179C45.5123 46.7235 45.6393 47.1245 45.7662 47.5254ZM48.0491 45.3885C48.0491 45.3885 48.0608 45.4048 48.0585 45.4187C47.8337 44.8295 47.5834 44.2217 47.2971 43.615C47.6962 44.1902 48.0952 44.7654 48.0491 45.3885ZM46.5361 64.6052L46.628 64.6993C46.5201 64.9609 46.485 64.6541 46.3352 64.8227C46.3073 64.9041 46.5201 64.9609 46.3714 65.0796C46.233 65.0065 46.154 65.0507 46.0924 65.1193C46.248 64.8728 46.4024 64.5902 46.5673 64.2878C46.6314 64.4633 46.6919 64.6167 46.528 64.611M50.1988 56.8341C50.0183 56.2378 50.5037 55.4726 50.1256 54.9439C50.2625 54.5509 50.4853 53.8998 50.2861 53.3291L50.3327 53.3942C50.2892 52.7491 50.3155 51.9434 49.9665 51.5414C50.3534 51.3261 50.2475 51.0577 50.3461 50.7658C50.0971 50.3661 50.0989 49.4919 49.7521 48.9039C49.9171 48.7736 49.5553 48.4053 49.8156 48.3052C49.5829 47.8938 49.4071 47.4417 49.2254 46.9815C49.0136 46.5306 48.8342 46.0564 48.6851 45.5729C48.4195 44.5827 48.0713 43.6146 47.837 42.651C47.5905 42.4954 47.1847 42.3922 46.9196 42.2622C46.9323 42.2284 46.9707 42.2133 46.9916 42.2598C46.7962 41.9693 46.8471 41.5763 46.6214 41.2952C46.6539 41.2719 46.6539 41.2719 46.7353 41.2997C46.4561 41.0814 46.5709 40.6059 46.1837 40.391L46.229 40.3341L46.0104 40.1831C46.0836 40.1307 46.2149 40.0737 46.258 40.2027L45.6738 39.2312C45.4527 38.9221 45.1991 38.6363 44.9537 38.3447C44.4546 37.7673 43.9555 37.1898 43.4565 36.6124L41.7919 35.0243L40.0843 33.3073L40.2494 33.349L39.5772 32.9077C39.5772 32.9077 39.6225 32.8507 39.6504 32.8554C39.4794 32.6334 39.2782 32.4208 39.0863 32.2384C38.5996 32.9676 38.1132 33.9549 37.8577 34.2852C37.8262 34.2585 37.8076 34.112 37.7123 34.1679C37.703 34.2237 37.6937 34.2795 37.6787 34.3271L37.6496 34.3725C37.4569 34.7562 37.0233 34.8204 37.2817 35.2504C37.2515 35.2597 37.1445 35.2133 37.134 35.147C36.824 35.8482 36.4211 36.5053 36.0914 37.196C35.7535 37.8925 35.3959 38.5786 35.0209 39.2403C35.002 40.6062 34.0495 41.767 34.098 43.1584L34.0108 43.1224C33.8503 44.8232 33.2794 46.5348 33.2271 48.318C33.1845 49.0493 33.2953 49.5479 33.3109 50.2744L33.1923 50.2978C33.4728 50.8963 33.4221 51.5473 33.3911 52.2087C33.4183 52.8655 33.4187 53.5537 33.7957 54.1324L33.6248 54.0825C33.89 54.2125 33.7636 54.7578 34.0449 54.7042C34.0519 54.7483 34.0728 54.7948 34.0798 54.839L34.0497 54.9343C34.0497 54.9343 34.0962 54.9994 34.1195 55.0319C34.2523 55.5271 34.3933 56.0164 34.5528 56.4801C34.5914 56.723 34.6717 56.9729 34.816 57.2263C34.8405 57.2948 34.8673 57.3494 34.8917 57.418L34.8301 57.4006C34.8824 57.4738 34.9348 57.547 34.979 57.626C35.0454 57.7876 35.1094 57.9631 35.1758 58.1246L35.1874 58.1409C35.1642 58.1084 35.1375 58.1398 35.0886 58.0886C35.0462 59.0779 35.886 59.8051 36.3236 60.6232L36.1097 60.6164C36.5109 60.9195 36.7544 61.7412 37.1604 62.1885L37.0639 62.2084L37.3256 62.4023L37.1792 62.507C37.5923 63.1706 38.1529 63.6794 38.6625 64.237L38.5149 64.3057C39.1847 64.675 39.4584 65.4874 40.0376 65.9706L39.9655 65.973C40.1761 66.2158 40.4029 66.447 40.6297 66.6782L41.4126 67.4461C41.9255 67.9398 42.3768 68.3301 42.7537 68.6507C42.7455 68.5705 42.7292 68.4961 42.7268 68.424L42.4936 63.6975L43.7964 68.5443L45.5047 65.9822C45.5931 66.0543 45.6885 66.0844 45.8477 66.032L45.7313 65.8693C45.9267 65.9018 45.8395 65.8658 45.9743 65.9168C46.1973 65.6098 46.459 65.7177 46.703 65.5432C46.703 65.5432 46.703 65.5432 46.6913 65.527C46.5935 65.2527 46.8352 65.0921 46.9316 64.9862L47.0537 64.985C47.2932 65.0104 46.8929 64.3992 47.1604 64.6873C47.4448 63.9676 47.8547 63.1827 48.1808 62.3838C48.0947 62.2118 48.4524 61.7838 48.1189 61.8503C48.5106 61.7791 48.7938 61.1954 48.8611 60.9629C48.8786 60.9873 48.9123 61 48.8914 61.0396C49.4364 60.7358 48.7096 60.4073 49.3337 60.1453C49.0174 59.9781 49.6564 59.4104 49.3203 59.0608C49.4109 59.0328 49.483 59.0304 49.5423 59.0618C49.7813 58.313 50.0423 57.4747 50.1791 56.8236" fill="#E77622"/>
<path d="M47.848 42.6319C47.848 42.6319 47.8677 42.6423 47.8817 42.6446L47.8642 42.6202L47.848 42.6319Z" fill="#E77622"/>
<path d="M46.8228 65.4702C46.8228 65.4702 46.7658 65.5109 46.7333 65.5342C46.767 65.547 46.7902 65.4935 46.8228 65.4702Z" fill="#E77622"/>
</svg>
