<svg width="119" height="78" viewBox="0 0 119 78" fill="none" xmlns="http://www.w3.org/2000/svg">
<path d="M115.425 14.3525C115.425 14.2481 115.451 14.1437 115.451 14.0523C115.516 14.0523 115.555 14.0784 115.633 14.0654L115.425 14.3525ZM115.242 18.0719C115.151 18.3329 115.072 18.5939 114.981 18.868C115.111 17.5759 115.229 16.2839 115.359 14.9919C115.829 16.1012 115.568 17.067 115.242 18.0849M114.589 21.7521C114.615 21.6477 114.655 21.5433 114.681 21.4389C114.681 21.5825 114.681 21.713 114.681 21.8696L114.576 21.7521H114.589ZM90.746 34.9723C90.9549 34.6591 91.1637 34.3589 91.3986 34.0718C91.242 34.3459 91.0201 34.646 90.746 34.9723ZM114.407 22.3394C114.328 22.8484 114.146 23.3182 113.872 23.6183C114.067 23.2007 114.25 22.7701 114.407 22.3394ZM117.839 1.94142C117.669 1.4716 117.356 0.949577 116.743 0.649415C116.677 0.623314 116.599 0.584162 116.534 0.558061C116.612 0.453657 116.573 0.349252 116.834 0.453657C116.168 0.0490903 115.385 -0.0683644 114.694 0.0360398C114.002 0.127394 113.31 0.362303 112.632 0.714667C111.953 1.06703 111.301 1.5238 110.713 2.12412C110.413 2.41124 110.152 2.75055 109.917 3.07681C109.695 3.39003 109.565 3.63799 109.408 3.9251L109.304 3.84679C108.155 6.73096 107.111 9.52377 106.381 12.4601C106.015 13.9087 105.741 15.3704 105.584 16.806C105.506 17.4976 105.454 18.2937 105.428 18.8941C105.376 19.5205 105.271 20.1339 105.049 20.7342C103.131 23.005 101.226 25.1453 99.1375 27.7162C97.0494 30.3002 94.7265 33.0408 91.8553 36.4601L92.7558 35.0376C92.286 35.6118 91.8292 36.3687 91.255 36.2904C90.9418 36.2643 90.6677 36.0424 90.6938 35.7553C90.7069 35.4813 90.8505 35.2072 90.994 34.9201C91.2811 34.3459 91.6987 33.7456 92.1425 33.1452C92.9385 32.1403 93.7346 31.1354 94.5176 30.1175C94.6873 29.9087 94.87 29.6868 95.0266 29.478C96.8667 27.1159 98.1065 25.5107 98.6808 24.1665C99.0201 23.5792 99.255 23.0963 99.3855 22.6004C99.4508 22.3524 99.4899 22.1045 99.4899 21.8565C99.4899 21.5825 99.4899 21.4259 99.3463 20.8908C98.8113 18.9724 96.6579 18.0588 95.0788 18.6069C93.9043 18.9854 93.0168 19.7162 92.2077 20.4993C92.1686 20.5254 92.1294 20.5515 92.0903 20.5906C90.8896 21.5825 89.8456 22.7179 88.8929 23.9185C88.7232 24.1012 88.5536 24.2839 88.3709 24.4536C86.7787 25.4715 86.0479 27.403 85.1213 29.1779C83.8423 30.8483 82.3937 32.3752 80.7624 33.6934C79.2094 34.385 77.7738 34.9071 76.26 35.6901C74.707 36.5384 73.2975 37.6346 72.0707 38.9266C70.4264 40.6623 69.03 42.7635 68.2339 45.0212C67.5422 46.2871 67.0202 47.6444 66.7722 49.1582C66.2894 52.1598 65.8848 55.2398 66.3677 58.2153C66.9549 61.8694 66.3024 65.3409 65.676 68.8515C65.5194 69.7389 65.3758 70.6133 65.2192 71.5007C64.893 72.2968 64.5275 73.119 64.2665 74.0456C64.1621 74.5154 64.136 75.0244 64.3709 75.455C64.6189 75.8857 65.0887 76.0815 65.5585 76.1337L65.6368 75.8335C66.0023 76.3947 66.8897 76.0293 67.6075 75.7683C67.8424 75.6769 68.0642 75.5986 68.26 75.5464C68.4296 75.5464 68.5993 75.5464 68.769 75.5464C68.9125 75.5986 69.0169 75.7291 69.0561 75.9771L68.9125 76.0423C69.1344 76.4208 69.6564 75.951 70.1262 75.5333C70.9353 75.5333 71.7575 75.5333 72.5667 75.5333C72.7233 75.5986 72.9451 75.5594 73.167 75.5333C73.3627 75.5333 73.5455 75.5333 73.7412 75.5333C73.9631 75.5986 74.1066 75.7813 74.0805 76.2642C73.6368 76.2642 74.7331 76.9167 73.7151 77.256C73.9892 77.4257 75.3986 77.3474 75.2681 76.6426C75.3334 76.2511 75.4769 75.8857 75.5161 75.5333C78.4655 75.5333 81.428 75.5072 84.3774 75.5464C85.5258 75.5464 85.9696 75.1679 85.8129 73.9673C85.5911 72.2707 85.6302 70.5611 85.8652 68.8515C86.7134 62.4959 89.702 57.3148 94.0348 52.8646C93.1865 53.9086 92.3774 54.9918 91.6335 56.1403C91.6335 56.0489 91.5552 55.9445 91.5552 55.8401C91.5291 56.1403 91.5943 56.5187 91.4116 56.7145C91.2942 56.7145 91.2811 56.5187 91.2942 56.4274C90.0022 56.845 89.9369 59.2854 89.1278 59.5595C89.0625 59.8597 89.2713 60.1337 89.5585 60.1076C87.8488 63.553 86.87 67.7552 87.4051 71.5138C87.3007 71.6965 87.0919 71.7226 86.8309 71.6704L87.0527 72.2707C87.118 72.5056 87.1963 72.8188 87.2877 73.1712C87.4704 73.8629 87.5878 74.5937 87.5095 75.2071C87.4573 75.8205 87.1572 76.473 86.6221 76.8645C86.1523 77.2299 85.3953 77.4779 84.9647 77.4126C82.9679 77.4387 80.906 77.2952 78.9484 77.2169C78.857 77.5431 79.4182 77.5562 79.0919 77.8824C80.5144 78.2609 81.2322 77.0863 82.5764 77.6345L82.5373 77.9346C83.4769 78.1173 82.4068 77.1777 83.4508 77.5562C83.9076 77.8041 83.5291 77.9346 83.6988 77.9607C84.1425 77.9216 84.5993 77.9085 85.0691 77.8955C85.317 77.8824 85.4997 77.9216 85.7869 77.8563C86.1001 77.765 86.3872 77.6475 86.6482 77.4779C87.1833 77.1777 87.6531 76.6165 87.8097 76.0293C87.9924 75.442 87.9532 74.8156 87.7444 74.1369C88.1229 73.9803 87.9924 73.0798 87.9663 72.4143C87.9402 71.9053 87.9532 71.5529 88.2795 71.2789C88.0185 70.9135 88.1098 70.548 87.6661 70.3653C88.0576 67.8205 88.5797 65.2495 89.5193 62.783C90.4459 60.3164 91.777 57.9282 93.565 55.8662C93.8912 54.4567 94.9353 53.4388 96.1359 52.5383C97.3627 51.5856 98.7199 50.659 99.7118 49.3931C99.764 49.4062 99.7901 49.4453 99.8031 49.4975C100.325 48.5318 101.317 47.3703 102.322 46.6134L102.687 45.491C104.227 44.3556 105.728 43.2724 107.098 41.7977C107.777 41.0538 108.43 40.2186 108.938 39.2398C109.186 38.77 109.408 38.1958 109.565 37.7129L109.996 36.3948C111.183 32.8973 112.684 29.4519 114.511 26.1371C114.994 25.1714 115.503 24.3231 116.012 23.2007C116.247 22.6526 116.469 22.0392 116.612 21.3737L116.704 20.8777L116.756 20.4993L116.873 19.7423C117.173 17.7195 117.474 15.7489 117.695 13.7652C117.917 11.7815 118.087 9.79783 118.139 7.78805V6.27419C118.178 5.47811 118.204 4.68203 118.23 3.88595C118.244 3.10291 118.074 2.45039 117.904 1.98057" fill="#E77622"/>
<path d="M20.7427 18.9593C20.6514 18.9854 20.5731 18.9985 20.4817 19.0376C20.4556 18.9854 20.4556 18.9332 20.4165 18.868C20.5339 18.881 20.6383 18.9332 20.7427 18.9593ZM22.8961 18.7113C23.4703 18.9071 23.9401 19.2725 24.3577 19.7032C24.5665 19.912 24.7623 20.1339 24.9581 20.3557C24.423 19.9381 23.8488 19.5596 23.2223 19.2725C22.622 18.9985 22.0086 18.8288 21.4214 18.8549C21.8912 18.5808 22.4524 18.5678 22.9091 18.7244M27.0331 22.3394C26.9678 22.2741 26.9156 22.1958 26.8504 22.1175C26.8243 22.0914 26.7982 22.0653 26.7721 22.0392C26.9156 22.1306 27.0331 22.235 27.1897 22.3133L27.0331 22.3394ZM28.3903 23.9577C28.051 23.527 27.6856 23.1094 27.3202 22.6918C27.8292 23.0572 28.2598 23.5009 28.3903 23.9577ZM53.878 70.6394C53.7084 69.1255 53.4604 67.5725 53.1863 66.0195L52.7557 63.7748C52.6382 63.2006 52.5599 62.6264 52.5599 62.0391C52.5208 61.0081 52.8209 59.3115 52.8209 57.8499C52.8992 56.3491 52.8601 54.8222 52.7818 53.3083C52.0248 51.938 51.8813 50.4372 51.6464 48.8059C51.4245 47.1876 51.033 45.4388 50.0542 44.0033C50.0803 43.9641 50.1325 43.938 50.1717 43.938C49.7541 43.5204 49.2973 42.9984 48.8797 42.4242C48.4099 41.8891 48.0183 41.2757 47.6529 40.7145L46.5045 40.2317C45.4082 38.6265 44.0249 37.1387 42.4327 35.9902C41.6627 35.3769 40.7753 34.8679 39.9792 34.3589C39.2223 33.9022 38.4784 33.4193 37.7737 32.8842C36.3642 31.8141 35.0722 30.5612 33.9368 29.1648C33.3756 28.4601 32.8406 27.7293 32.3577 26.9723L30.8308 24.5058C29.5518 22.6265 28.312 20.9038 26.6285 19.2725C25.7541 18.4634 24.7884 17.7326 23.5225 17.1975C22.87 16.9365 22.0739 16.7277 21.1995 16.7668C20.3251 16.7929 19.4377 17.0931 18.7199 17.5629C17.9891 18.0327 17.3757 18.6852 16.9842 19.4552C16.5927 20.2252 16.4361 21.1257 16.4752 21.9609C16.5144 22.7309 16.671 23.3312 16.8406 23.9185C17.0233 24.5058 17.2582 25.067 17.5323 25.602C18.0804 26.6591 18.7721 27.5988 19.516 28.4079C20.2599 29.1779 21.0168 29.8826 21.839 30.6134C21.7346 30.6787 21.7085 30.7831 21.5388 30.6395C22.2174 31.3573 22.7786 32.1273 23.3006 32.8973C21.4344 30.77 19.6073 28.6297 17.454 26.9593C16.3969 25.6803 15.3007 24.3622 14.1783 23.018C13.6041 22.3524 13.0299 21.6869 12.4557 21.0082C11.9075 20.421 11.6204 19.664 11.4769 18.8158C10.9157 15.2921 10.1718 11.651 8.71015 8.41448L8.95811 8.33618C8.31863 7.05723 7.69221 5.80438 6.98748 4.57763C6.30885 3.39003 5.26481 2.01972 3.85535 1.26279C3.16368 0.884327 2.39369 0.584165 1.61066 0.662468C1.21915 0.714671 0.840681 0.897378 0.592721 1.19754C0.344761 1.4977 0.201206 1.83702 0.109852 2.20243C-0.0989566 2.95936 0.0445992 3.66409 0.0968013 4.39492C0.162054 5.12575 0.253408 5.85658 0.370862 6.61351C0.344761 9.48463 0.984237 12.7603 1.61066 15.7619C1.85862 16.9104 2.06743 18.0327 2.31539 19.142C2.53725 20.7342 2.91572 22.2741 3.50299 23.775C3.56824 23.9968 3.62044 24.2187 3.6857 24.4275C3.88145 26.2937 5.0821 27.912 6.20445 29.5955C7.06578 31.5139 7.83576 33.4584 8.51439 35.4552C8.56659 36.2382 8.60575 36.9821 8.7232 37.7782C8.89286 38.7048 9.25827 39.5791 9.72809 40.3752C10.7199 41.9674 11.9467 43.1419 13.2126 44.3295C14.9875 45.9217 16.932 47.292 18.9157 48.6232C19.9728 49.615 21.0298 50.6068 22.0739 51.6117C27.8422 57.1321 31.4964 63.553 31.5616 71.4616C31.392 72.2316 31.1701 72.9885 30.9743 73.7324C30.9091 74.0847 30.7003 74.5937 30.9743 75.2593C31.1049 75.5986 31.4572 75.8988 31.7704 76.0162C32.0836 76.1337 32.3447 76.1467 32.5926 76.1467L32.4882 75.8074C33.2973 76.4599 34.1587 75.703 34.8765 75.4811C35.0722 75.4811 35.268 75.4811 35.4768 75.4811C35.6203 75.5464 35.7639 75.6769 35.8813 75.9118L35.7639 75.9771C36.0771 76.3555 36.4425 75.8988 36.7688 75.4811C37.6171 75.4811 38.4654 75.4811 39.3136 75.4811C39.4311 75.5072 39.5616 75.4942 39.6921 75.4811C39.9401 75.4811 40.175 75.4811 40.4229 75.4811C40.6187 75.5594 40.7622 75.7552 40.7753 76.212C40.3577 76.212 41.4148 76.8645 40.5012 77.2169C40.7622 77.3865 42.0281 77.3082 41.9107 76.5904C41.9629 76.1989 42.1195 75.8335 42.1586 75.4811C45.0037 75.4811 47.8487 75.4811 50.6937 75.4811C52.5599 75.4811 52.7557 75.2854 52.4425 73.4975C51.9204 70.4567 51.4115 67.4029 50.8242 64.3751C50.5762 63.1092 50.5501 61.8955 50.7459 60.6166C51.281 57.106 51.3071 53.8303 50.772 50.8026C51.1374 52.1077 51.3984 53.4649 51.5159 54.8744C51.4637 54.7961 51.3332 54.77 51.2679 54.6917C51.4376 54.9266 51.7247 55.2137 51.6855 55.4877C51.5811 55.553 51.4767 55.4094 51.4245 55.3181C50.6806 56.3752 51.7899 58.5285 51.0983 59.168C51.1374 59.4812 51.4376 59.6509 51.6986 59.5073C51.6333 60.5644 51.4898 61.491 51.5681 62.4176C51.6203 63.3572 51.8682 64.2055 52.1293 65.3539C52.6382 67.5073 53.2124 69.6998 53.8911 71.9575C53.8258 72.1402 53.617 72.1402 53.3299 72.0228C53.5648 72.5056 53.7867 73.0015 53.9694 73.5105C54.1782 73.9281 54.2956 74.6981 54.2304 75.2984C54.1912 75.8857 53.8519 76.5513 53.3168 76.8645C52.834 77.1908 52.1815 77.3865 51.5289 77.4387C49.5452 77.4518 47.5094 77.2952 45.5518 77.2038C45.4604 77.5301 46.0216 77.5431 45.6823 77.8824C47.0787 78.274 47.8226 77.0864 49.1407 77.6606L49.1015 77.9738C50.0281 78.1696 48.9971 77.1908 50.0151 77.5823C50.4588 77.8433 50.0803 77.9738 50.25 77.9999C50.6937 77.9607 51.1505 77.9607 51.6072 77.9477C51.7899 77.9607 52.1945 77.8955 52.4947 77.8172C52.8079 77.7258 53.108 77.6214 53.356 77.4779C53.8519 77.2169 54.3348 76.7079 54.5175 76.1206C54.6872 75.5594 54.6611 74.9461 54.4392 74.2935C55.1178 73.9934 54.1521 72.4012 54.7133 71.8531C54.3609 71.3311 54.3478 70.8874 53.865 70.6525" fill="#E77622"/>
</svg>
