<svg width="35" height="36" viewBox="0 0 35 36" fill="none" xmlns="http://www.w3.org/2000/svg">
<path d="M17.5 0.00195312C12.7509 0.00195312 12.1538 0.0238281 10.2878 0.106953C8.42188 0.194453 7.15094 0.487578 6.0375 0.920703C4.86958 1.35999 3.8117 2.04907 2.93781 2.93977C2.04767 3.8141 1.35867 4.87185 0.91875 6.03945C0.485625 7.1507 0.190313 8.42383 0.105 10.2832C0.021875 12.1535 0 12.7485 0 17.5041C0 22.2554 0.021875 22.8504 0.105 24.7163C0.1925 26.5801 0.485625 27.851 0.91875 28.9645C1.36719 30.1151 1.96438 31.0907 2.93781 32.0641C3.90906 33.0376 4.88469 33.637 6.03531 34.0832C7.15094 34.5163 8.41969 34.8116 10.2834 34.897C12.1516 34.9801 12.7466 35.002 17.5 35.002C22.2534 35.002 22.8463 34.9801 24.7144 34.897C26.5759 34.8095 27.8512 34.5163 28.9647 34.0832C30.1319 33.6437 31.189 32.9546 32.0622 32.0641C33.0356 31.0907 33.6328 30.1151 34.0812 28.9645C34.5122 27.851 34.8075 26.5801 34.895 24.7163C34.9781 22.8504 35 22.2554 35 17.502C35 12.7485 34.9781 12.1535 34.895 10.2854C34.8075 8.42383 34.5122 7.1507 34.0812 6.03945C33.6414 4.87182 32.9524 3.81406 32.0622 2.93977C31.1886 2.04874 30.1306 1.35961 28.9625 0.920703C27.8469 0.487578 26.5737 0.192266 24.7122 0.106953C22.8441 0.0238281 22.2513 0.00195312 17.4956 0.00195312H17.5022H17.5ZM15.9316 3.15633H17.5022C22.1747 3.15633 22.7281 3.17164 24.5722 3.25695C26.2784 3.33352 27.2059 3.62008 27.8228 3.85852C28.6388 4.1757 29.2228 4.55633 29.8353 5.16883C30.4478 5.78133 30.8263 6.3632 31.1434 7.18133C31.3841 7.79602 31.6684 8.72352 31.745 10.4298C31.8303 12.2738 31.8478 12.8273 31.8478 17.4976C31.8478 22.1679 31.8303 22.7235 31.745 24.5676C31.6684 26.2738 31.3819 27.1991 31.1434 27.816C30.8629 28.5759 30.4151 29.2629 29.8331 29.8263C29.2206 30.4388 28.6388 30.8173 27.8206 31.1345C27.2081 31.3751 26.2806 31.6595 24.5722 31.7382C22.7281 31.8213 22.1747 31.841 17.5022 31.841C12.8297 31.841 12.2741 31.8213 10.43 31.7382C8.72375 31.6595 7.79844 31.3751 7.18156 31.1345C6.4214 30.8543 5.73371 30.4073 5.16906 29.8263C4.58664 29.262 4.13814 28.5743 3.85656 27.8138C3.61812 27.1991 3.33156 26.2716 3.255 24.5654C3.17188 22.7213 3.15438 22.1679 3.15438 17.4932C3.15438 12.8207 3.17188 12.2695 3.255 10.4254C3.33375 8.71914 3.61813 7.79164 3.85875 7.17477C4.17594 6.35883 4.55656 5.77477 5.16906 5.16227C5.78156 4.54977 6.36344 4.17133 7.18156 3.85414C7.79844 3.61352 8.72375 3.32914 10.43 3.25039C12.0444 3.17602 12.67 3.15414 15.9316 3.15195V3.15633ZM26.8428 6.06133C26.567 6.06133 26.294 6.11565 26.0392 6.22118C25.7844 6.32672 25.5529 6.4814 25.3579 6.6764C25.1629 6.87141 25.0082 7.10291 24.9027 7.35769C24.7971 7.61248 24.7428 7.88555 24.7428 8.16133C24.7428 8.4371 24.7971 8.71018 24.9027 8.96496C25.0082 9.21975 25.1629 9.45125 25.3579 9.64625C25.5529 9.84126 25.7844 9.99594 26.0392 10.1015C26.294 10.207 26.567 10.2613 26.8428 10.2613C27.3998 10.2613 27.9339 10.0401 28.3277 9.64625C28.7216 9.25243 28.9428 8.71828 28.9428 8.16133C28.9428 7.60437 28.7216 7.07023 28.3277 6.6764C27.9339 6.28258 27.3998 6.06133 26.8428 6.06133ZM17.5022 8.5157C16.3102 8.49711 15.1263 8.71583 14.0196 9.15914C12.9129 9.60245 11.9055 10.2615 11.056 11.0979C10.2064 11.9343 9.53173 12.9313 9.07121 14.031C8.6107 15.1306 8.37353 16.3109 8.37353 17.503C8.37353 18.6952 8.6107 19.8755 9.07121 20.9751C9.53173 22.0748 10.2064 23.0718 11.056 23.9082C11.9055 24.7446 12.9129 25.4036 14.0196 25.847C15.1263 26.2903 16.3102 26.509 17.5022 26.4904C19.8615 26.4536 22.1117 25.4905 23.7671 23.8091C25.4226 22.1276 26.3504 19.8626 26.3504 17.503C26.3504 15.1435 25.4226 12.8785 23.7671 11.197C22.1117 9.51558 19.8615 8.55251 17.5022 8.5157ZM17.5022 11.6679C19.0495 11.6679 20.5334 12.2825 21.6275 13.3766C22.7216 14.4707 23.3363 15.9547 23.3363 17.502C23.3363 19.0492 22.7216 20.5332 21.6275 21.6273C20.5334 22.7214 19.0495 23.336 17.5022 23.336C15.9549 23.336 14.471 22.7214 13.3769 21.6273C12.2828 20.5332 11.6681 19.0492 11.6681 17.502C11.6681 15.9547 12.2828 14.4707 13.3769 13.3766C14.471 12.2825 15.9549 11.6679 17.5022 11.6679Z" fill="#4C5930"/>
</svg>
