<svg width="183" height="57" viewBox="0 0 183 57" fill="none" xmlns="http://www.w3.org/2000/svg">
<path d="M8.8109 18.4612V13.6368H0V42.7117H8.8109V29.2035C8.8109 24.1861 11.2196 22.7066 15.4032 22.7066H17.7486V13.3152C13.9453 13.3152 10.7759 15.3736 8.8109 18.4612Z" fill="#4C5930"/>
<path d="M29.0317 25.3441C29.5388 22.1278 31.7573 20.3267 34.6098 20.3267C37.5256 20.3267 39.9977 22.1278 39.9977 25.3441H29.0317ZM34.7366 13.1866C26.1792 13.1866 20.2208 18.9116 20.2208 28.1744C20.2208 37.3728 26.306 43.1621 34.7366 43.1621C41.8994 43.1621 46.9704 38.788 48.3649 33.1274H38.9835C38.2863 34.6712 36.8917 35.9577 34.4196 35.9577C31.5672 35.9577 29.2852 34.1566 28.9683 30.3614H48.872C48.9988 29.4609 48.9988 28.5603 48.9988 27.7241C48.9988 18.8472 43.1037 13.1866 34.7366 13.1866Z" fill="#4C5930"/>
<path d="M67.1282 35.3789C63.832 35.3789 60.8528 32.7416 60.8528 28.1102C60.8528 23.4788 63.832 20.9701 67.1282 20.9701C70.4877 20.9701 73.4036 23.5431 73.4036 28.1745C73.4036 32.8059 70.4243 35.3789 67.1282 35.3789ZM73.4036 13.0581V17.6252C71.6287 14.9879 68.3959 13.1868 64.5927 13.1868C57.5566 13.1868 51.9785 18.9117 51.9785 28.1102C51.9151 37.3086 57.4932 43.0979 64.5293 43.0979C68.7129 43.0979 71.7555 41.1681 73.3402 38.5308V42.7119H82.1511V4.11694C77.3336 4.11694 73.4036 8.10509 73.4036 13.0581Z" fill="#4C5930"/>
<path d="M101.991 35.3788C98.6946 35.3788 95.7153 32.7414 95.7153 28.11C95.7153 23.4786 98.6946 20.97 101.991 20.97C105.35 20.97 108.266 23.543 108.266 28.1744C108.266 32.8058 105.35 35.3788 101.991 35.3788ZM108.266 17.7537C106.745 15.1807 103.702 13.1866 99.4552 13.1866C92.4192 13.1866 86.8411 18.9116 86.8411 28.11C86.8411 37.3085 92.4192 43.0978 99.4552 43.0978C103.702 43.0978 106.745 41.1037 108.33 38.5307V42.6475H117.14V13.6369H108.33V17.7537H108.266Z" fill="#4C5930"/>
<path d="M132.227 13.6367H123.416V42.7116H132.227V13.6367Z" fill="#4C5930"/>
<path d="M138.565 9.13417V42.8405H147.376V0.257324C142.495 0.257324 138.565 4.24547 138.565 9.13417Z" fill="#4C5930"/>
<path d="M173.492 13.637L166.963 31.8409L160.307 13.637H150.482L162.145 41.747L155.553 56.5417H165.061L183 13.637H173.492Z" fill="#4C5930"/>
<path d="M123.796 8.7482H132.417V0C127.663 0 123.796 3.92382 123.796 8.7482Z" fill="#4C5930"/>
</svg>
