<svg width="303" height="293" viewBox="0 0 303 293" fill="none" xmlns="http://www.w3.org/2000/svg">
<path d="M218.935 174.338C218.82 172.661 218.646 168.631 218.511 166.992C218.048 164.679 217.817 162.037 217.277 159.743C213.845 145.533 205.689 132.46 194.159 123.456C154.768 91.7002 93.5705 112.832 85.3183 163.734C82.5226 181.357 87.285 199.982 98.3329 213.999C99.914 216.313 102.883 219.186 104.753 221.307C111.521 228.826 116.476 238.004 118.578 247.953C119.928 253.776 119.793 261.932 119.831 267.909L117.942 266.019C129.125 265.981 140.308 265.807 151.491 265.884L185.039 265.961L183.092 267.909C182.976 259.387 183.208 250.286 186.235 242.111C189.031 233.781 193.928 226.3 199.924 220.053C211.898 208.061 219.012 191.344 218.935 174.319V174.338ZM219.321 174.338C219.398 191.518 212.977 208.658 201.447 221.461C193.234 230.928 187.912 242.824 187.064 255.28C186.813 259.329 187.045 263.648 186.987 267.909V269.837H185.039C164.428 269.74 136.355 270.107 116.033 269.779C116.033 263.32 116.496 254.952 115.127 248.647C113.064 237.599 107.029 227.612 99.3356 219.494C85.2605 202.951 79.9775 179.66 85.0869 158.663C95.4986 115.281 143.431 91.5266 183.381 113.025C205.516 124.786 219.398 149.447 219.34 174.319L219.321 174.338Z" fill="#4C5930"/>
<path d="M181.106 291.297C161.035 291.624 141.079 293.938 120.969 292.126C108.957 290.834 105.351 274.58 115.724 268.41C117.556 267.292 119.696 266.675 121.875 266.578C129.876 266.212 137.897 265.942 145.899 265.826C157.911 265.634 170.039 265.364 182.07 265.826C198.208 267.755 197.206 290.872 181.106 291.297ZM181.106 290.911C194.988 290.487 195.663 270.531 181.8 269.528C170.174 269.779 157.448 269.702 145.899 269.451C137.897 269.336 129.876 269.066 121.875 268.699C113.873 268.14 107.973 277.414 112.003 284.471C113.758 287.787 117.402 289.985 121.123 290.005L133.058 289.503C149.08 288.751 165.103 290.911 181.106 290.911Z" fill="#4C5930"/>
<path d="M150.681 0C151.76 8.38721 151.452 16.7359 150.893 25.1231C150.989 38.9475 152.724 53.5432 150.488 66.982C148.772 53.0419 150.006 39.0825 150.276 25.1231C149.89 16.8901 149.061 7.86663 150.681 0Z" fill="#4C5930"/>
<path d="M303 145.841C295.712 146.921 288.443 146.612 281.174 146.053C269.162 146.15 256.398 147.885 244.791 145.648C256.919 143.932 269.027 145.166 281.174 145.436C288.308 145.051 296.232 144.241 303 145.841Z" fill="#4C5930"/>
<path d="M58.2092 145.841C50.921 146.921 43.6521 146.612 36.3831 146.053C24.3711 146.15 11.6071 147.885 0 145.648C12.1277 143.932 24.2361 145.166 36.3831 145.436C43.5171 145.051 51.4416 144.241 58.2092 145.841Z" fill="#4C5930"/>
<path d="M260.37 56.0883C255.993 62.0075 250.633 66.9242 245.08 71.6866C236.654 80.2473 228.846 90.5048 219.051 97.1374C226.416 87.362 235.845 79.6496 244.637 71.2624C249.418 65.9408 254.431 59.7517 260.37 56.1076V56.0883Z" fill="#4C5930"/>
<path d="M77.0082 97.2724C71.0889 92.8956 66.1723 87.5355 61.4099 81.9826C52.8492 73.5569 42.5917 65.7481 35.959 55.9534C45.7345 63.3187 53.4469 72.7471 61.8341 81.5392C67.1556 86.3208 73.3448 91.3339 76.9889 97.2724H77.0082Z" fill="#4C5930"/>
<path d="M184.422 195.971C184.634 219.089 162.249 237.078 139.941 228.113C123.09 221.596 113.121 200.618 120.776 183.902C127.871 166.896 139.459 152.281 151.471 138.495L153.014 140.192C163.772 152.339 173.413 165.604 180.103 180.431C182.205 185.386 184.326 190.496 184.422 195.971ZM184.037 195.971C183.304 185.213 176.17 176.189 170.097 167.725C163.676 159.261 156.966 150.912 149.948 142.949H152.994C143.855 153.264 135.102 164.119 127.717 175.746C124.092 181.549 120.583 187.7 119.523 194.39C118.154 208.061 127.871 221.654 140.905 225.413C160.668 232.027 184.172 217.643 184.037 195.971Z" fill="#4C5930"/>
<path d="M151.587 168.689C152.667 180.682 152.377 192.655 151.799 204.648C151.895 224.507 153.65 245.119 151.394 264.592C149.697 244.617 150.893 224.642 151.182 204.648C150.796 192.79 149.967 180.161 151.587 168.689Z" fill="#4C5930"/>
<path d="M168.361 189.917C165.026 194.159 160.128 196.319 155.886 199.384C154.383 200.618 152.994 202.064 151.49 203.298C148.405 200.657 145.359 197.938 142.795 194.757C141.985 193.774 141.175 192.771 140.462 191.691L140.597 191.556C141.696 192.231 142.718 193.002 143.739 193.793C146.805 196.107 149.485 198.825 152.05 201.659L150.989 201.582C154.016 199.808 157.082 198.131 159.492 195.528C162.037 193.079 165.006 191.248 168.226 189.763L168.342 189.917H168.361Z" fill="#4C5930"/>
</svg>
