<svg width="274" height="271" viewBox="0 0 274 271" fill="none" xmlns="http://www.w3.org/2000/svg">
<g clip-path="url(#clip0_1_140)">
<path d="M87.9742 0.269247C153.497 -4.72069 202.183 60.4895 179.319 122.074C162.41 168.778 108.955 195.002 61.9012 178.435C27.167 166.84 1.50639 132.861 0.161495 96.1908C-2.13379 59.6459 19.8149 23.2445 53.2042 8.36443C64.1426 3.33859 76.0674 0.664134 87.9742 0.269247L87.9921 0.628235C-9.07346 9.72858 -28.1889 140.167 62.8515 175.743C96.1153 188.325 136.355 178.866 159.756 151.78C189.272 119.435 189.092 67.741 161.728 34.3013C151.364 21.9342 138.04 11.9902 122.78 6.44384C111.734 2.33343 99.881 0.341044 87.9921 0.628235L87.9742 0.269247Z" fill="#4C5930"/>
<path d="M62.2418 63.1639C59.3906 46.4171 70.1497 29.7422 87.2209 26.8882C108.345 23.5676 127.155 41.9118 125.918 62.9844C127.335 74.0592 121.525 84.7212 110.102 87.0905C108.165 87.5033 106.085 87.4315 104.131 87.629C97.1552 88.3469 91.1122 94.5395 90.6639 101.791C90.2873 109.509 90.0004 117.461 89.3907 125.287H89.0321C88.4583 117.407 88.0637 109.635 87.8306 101.665C87.8306 97.3934 89.4983 93.1215 92.3674 89.8906C95.5593 86.2289 100.329 83.8596 105.243 83.6621C106.552 83.5904 108.058 83.5724 109.349 83.3032C119.229 81.2928 123.73 72.5156 123.067 62.9485C126.707 30.2806 89.0679 17.0878 69.3249 41.6067C65.9357 46.112 63.7122 51.6404 63.1025 57.2945C62.8335 59.1971 62.7976 61.2075 62.6004 63.146H62.2418V63.1639Z" fill="#4C5930"/>
<path d="M101.244 146.252C101.549 156.267 91.5426 161.078 84.6388 153.306C78.0219 146.467 81.68 135.123 91.686 134.944C97.8367 134.836 101.531 140.759 101.244 146.252ZM100.885 146.252C100.885 141.459 95.7566 138.695 91.686 138.785C87.5079 138.785 83.9394 141.998 83.2759 146.252C82.4331 151.206 87.0058 154.993 91.686 154.149C95.7924 153.647 100.903 151.17 100.885 146.252Z" fill="#4C5930"/>
<path d="M164.938 146.683C175.285 153.844 182.888 162.622 191.047 171.937C185.452 177.179 180.987 183.497 175.715 189.043L174.603 190.228C165.332 181.792 156.546 172.925 148.979 162.873L149.23 162.622C158.877 169.747 167.556 177.914 175.715 186.674H173.348C176.02 184.071 178.835 181.612 181.686 179.189C184.502 176.748 187.299 174.253 189.827 171.507V172.314C180.646 164.632 171.662 156.788 164.669 146.916L164.92 146.665L164.938 146.683Z" fill="#4C5930"/>
<path d="M269.75 258.956L263.295 265.597C255.871 273.872 245.255 272.041 238.315 264.125C219.917 247.594 203.241 229.304 185.954 211.659C181.615 207.262 177.168 202.972 172.738 198.682C171.573 197.659 170.264 196.187 170.12 194.482C169.851 192.759 170.479 190.856 171.716 189.635L178.064 182.886C182.296 178.381 186.474 173.84 190.76 169.371C192.876 166.588 196.893 165.565 199.834 167.683C211.4 178.489 222.84 189.833 234.101 200.908C244.986 211.695 255.853 222.967 266.307 234.24L269.481 237.614C275.363 243.178 275.524 253.392 269.732 258.956H269.75ZM269.499 258.705C275.04 253.212 274.646 243.466 268.585 238.565C266.487 236.645 260.533 231.17 258.327 229.16C249.146 220.867 240.288 212.27 231.448 203.636C220.509 192.902 209.517 181.756 198.722 170.842C197.915 169.927 197 169.532 195.817 169.568C194.579 169.586 193.611 170.519 192.804 171.363C186.42 177.609 179.266 184.448 172.828 190.694C170.533 192.794 171.304 195.972 173.635 197.749C177.992 202.128 182.332 206.508 186.779 210.798C195.655 219.378 204.819 227.688 213.785 236.196C222.733 244.722 231.448 253.463 239.893 262.492C241.991 264.646 243.803 267.069 246.564 268.379C251.926 271.18 258.883 269.779 262.936 265.238L269.481 258.687L269.499 258.705Z" fill="#4C5930"/>
</g>
<defs>
<clipPath id="clip0_1_140">
<rect width="274" height="271" fill="white"/>
</clipPath>
</defs>
</svg>
