<svg width="35" height="29" viewBox="0 0 35 29" fill="none" xmlns="http://www.w3.org/2000/svg">
<path d="M10.9944 28.8145C24.2025 28.8145 31.4278 17.8704 31.4278 8.39638C31.4278 8.09013 31.4278 7.77951 31.4147 7.47326C32.8214 6.45494 34.0354 5.19421 35 3.75013C33.686 4.32949 32.2935 4.71133 30.8678 4.88325C32.3696 3.98559 33.4944 2.57319 34.0331 0.908567C32.6222 1.74446 31.0778 2.33126 29.4678 2.64325C28.3854 1.49049 26.9531 0.726825 25.3927 0.470537C23.8323 0.214248 22.231 0.479645 20.8367 1.22562C19.4424 1.97159 18.333 3.15651 17.6804 4.59682C17.0277 6.03714 16.8682 7.65248 17.2266 9.19263C14.3713 9.04946 11.578 8.30772 9.02791 7.0155C6.47778 5.72329 4.22775 3.90948 2.42375 1.69169C1.50793 3.27344 1.22844 5.14444 1.64204 6.92477C2.05563 8.70511 3.13131 10.2613 4.65062 11.2773C3.51212 11.2386 2.39864 10.9329 1.4 10.3848V10.4833C1.40196 12.1402 1.97598 13.7457 3.02504 15.0284C4.07409 16.311 5.53382 17.192 7.1575 17.5226C6.5412 17.6924 5.90456 17.7771 5.26531 17.7742C4.81465 17.7756 4.36489 17.7338 3.92219 17.6495C4.3811 19.0759 5.27466 20.323 6.47773 21.2162C7.68079 22.1094 9.13311 22.6039 10.6313 22.6304C8.08622 24.6294 4.94244 25.7135 1.70625 25.7083C1.13601 25.7107 0.566176 25.6778 0 25.6098C3.28456 27.7038 7.09909 28.8157 10.9944 28.8145Z" fill="#4C5930"/>
</svg>
