<svg width="189" height="11" viewBox="0 0 189 11" fill="none" xmlns="http://www.w3.org/2000/svg">
<path d="M181.999 4.58898C184.027 4.70146 186.832 5.07637 189 5.09887C189 5.09887 188.993 5.09887 188.986 5.09137C187.916 5.02388 186.097 4.82143 185.111 4.76144C186.321 4.82893 187.545 4.89641 188.762 4.9639C188.594 4.87392 188.391 4.79143 188.182 4.70146C187.286 4.58898 186.391 4.4915 185.44 4.43901C186.244 4.484 187.056 4.52899 187.86 4.57398C187.3 4.36403 186.65 4.15408 185.929 3.95912C183.139 3.46424 180.516 2.81189 178.956 2.72191C166.408 1.8596 153.756 1.10227 141.068 0.599888C140.991 0.802342 141.621 1.03479 140.55 1.09478C137.193 1.16976 134.696 0.389935 131.332 0.479915C131.227 0.584891 131.122 0.697365 131.017 0.802342C128.478 0.584891 125.848 0.307454 123.149 0.0900035C118.099 0.00752222 113.056 -0.022471 108.02 0.00752222C108.125 0.134993 108.167 0.247468 107.656 0.277461C105.558 0.337447 102.69 0.172485 99.6968 0.119997C99.2491 0.134993 98.8015 0.14999 98.3679 0.164986C98.0111 0.232471 97.9062 0.352444 97.8363 0.419928C96.4864 0.397434 95.2834 0.352444 94.1713 0.322451C86.7573 0.607386 79.2594 1.03479 71.6007 1.52218C63.9699 2.03206 10.6733 2.62443 2.76275 2.79689C1.8395 2.85687 0.923248 2.90936 0 2.95435V10.2502C4.27352 10.3627 54.1289 10.3702 58.3674 10.3327C60.5217 10.1902 65.7324 9.98026 72.37 9.7703C79.0076 9.57535 87.2189 9.44788 95.6121 9.46287C112.398 9.46287 129.891 10.0477 137.011 10.4152C137.445 10.4227 137.879 10.4377 138.312 10.4452C146.097 10.7826 155.588 11.105 162.303 10.955C165.401 10.8126 168.57 10.6251 171.724 10.4377C170.346 10.1752 169.08 9.92027 167.982 9.68032C171.102 9.85279 174.214 10.0177 175.466 9.86778C182.251 9.68032 178.641 8.9155 176.291 7.99321C174.543 7.55831 177.173 7.1384 174.389 6.64351C176.466 6.75599 177.501 6.81598 179.586 6.93595C179.914 6.61352 173.13 6.80098 174.718 6.32109C176.683 6.54604 178.984 6.44856 181.061 6.56103C180.46 6.07364 173.892 6.05115 174.333 5.62375C175.487 5.57126 180.019 6.50854 180.572 5.96867C180.684 5.86369 178.599 5.74372 177.564 5.68373C184.02 5.8187 187.692 5.45878 181.999 4.57398V4.58898Z" fill="#E77622"/>
</svg>
